<svg id="Layer_1" data-name="Layer 1" xmlns="http://www.w3.org/2000/svg" viewBox="0 0 500 500" style=""><defs><style>.cls-1{fill:none;stroke:#1d1d1b;stroke-miterlimit:10;}</style></defs><path class="cls-1 JhmLiBoE_0" d="M294.63,45.65c-2.9,1-6.39-1.8-6.79,1.2s-.8,7-2.2,7.4-1.6,6.79-3.59,8-3,5.79-6.6,5.59-14.38.6-14.78-1-2.6-1-4-4.39-1.6-4.92-3.2-6.06-4.59.86-5,3.06,1.2,7.19,0,7.39-4.8-1.79-5.8,2-2.8,4.4-3.39,1.8,1.59-4.2,0-8-1.4-4.8-3.4-6-1.8.6-3.4-2-2-14-1.6-15.38-1.2-3-1.2-4.8,2.8-14.78,6-16.58,3-5.6,6.79-7.19,9.39-1.4,10-1.8,9.69-1,9.69-1,9.1-3.2,13.89-1.4,8.79,3.6,8,4.6,8.6,8.79,8.6,8.79,4.59,2.59,4,5.19-2.8,5.8-1.4,8.19a11.36,11.36,0,0,1,1.46,5.82C296.83,40.86,296.43,45.05,294.63,45.65Z"></path><path class="cls-1 JhmLiBoE_1" d="M241.28,71.79s-.15,5.63,0,7.28a51.74,51.74,0,0,0,2.4,9.89c1,2.55,6.6,5,8.69,6.45s1.8,2.84,2.25,4.64,1.65,2.85,2.4,4.5,4.79,2.55,8.39,2.55S275.9,104.55,277,104,290.59,81,290.59,81l4.19-6.89s.75-.15,0-6.75a99.4,99.4,0,0,1-.3-14.38s.91-6.54,1.51-8.9"></path><path class="cls-1 JhmLiBoE_2" d="M276.05,82.37s-.45,2.85-3.6,1.2-3.44-1.95-6.89-2.7a29.61,29.61,0,0,0-8.54,0"></path><path class="cls-1 JhmLiBoE_3" d="M281.6,79.37s1.64,2.7,3.59,1.8,9-9,9-9"></path><path class="cls-1 JhmLiBoE_4" d="M279.65,82.31s-.6,7.1-.6,8a8.63,8.63,0,0,0,1.8,3.75c.75.9-1.8,4.34-1.8,4.34a18.64,18.64,0,0,1-3,.9c-.6,0-1.65-1.64-3.15-2.09s-3.81.89-4.3-.15-1.09-6.51.56-6.25"></path><path class="cls-1 JhmLiBoE_5" d="M264.66,93.76s-3.74,3.75-4.49,3.75"></path><path class="cls-1 JhmLiBoE_6" d="M263.2,99.3a8.34,8.34,0,0,1,3.34,1.8c2.17,1.65,5.91,2.1,7.11,1.5"></path><path class="cls-1 JhmLiBoE_7" d="M264.66,101.85s3.75,3.45,6,3.15"></path><path class="cls-1 JhmLiBoE_8" d="M261.21,84.08c3.3,1.44,5.64,2.49,7.39,1.74"></path><path class="cls-1 JhmLiBoE_9" d="M283.09,82.31s2.85,1.28,4.8.66"></path><path class="cls-1 JhmLiBoE_10" d="M233.1,55.53s-3.46-1-3.41.76-.2,6.75,0,7.5,2,1.64,3.41,3.89a12.36,12.36,0,0,1,1.74,4.53s3,3.17,4.45-1.58"></path><path class="cls-1 JhmLiBoE_11" d="M235.44,61.24c-1.35-1.35-2.85-1.35-3.15,0a8.18,8.18,0,0,0,1.58,5.24,11.61,11.61,0,0,0,2.92,1.5"></path><path class="cls-1 JhmLiBoE_12" d="M231.76,52.57S202,56.44,199.32,57s-9.89-2.1-10.79,0-4.49,4.5-8.09,4.5S170,62.15,170,64.24s-3.45,1.64-5.7,2.24-7.79,3.15-9,4.8-7.49.78-10.64,2a27.69,27.69,0,0,1-5.24,1.48S119,73.08,116,74.73s-5.84,1.79-8.84,1.79-2.4,1-6.45,0-12.58,3.3-12.58,3.3-12.89,7.64-13.34,8.84-3.6,9.89-2.85,10.94,3.45.45,2.55,2.1-1.35,1.8-1.95,3,1.5,4,1.5,4l9.19,16.44s6.39-3.8,11.39-4.6,11.59-3.79,14.79-2.59a33.12,33.12,0,0,0,7.19,1.59l1-2s.2-1.8,1.4-1.2,3.19,1.6,3.79.4.8-1.8,3.2-1.4,2.8,1.4,3.6,1.4a15.49,15.49,0,0,1,2.79.6l.2,2.59s-.4,2.1,2.45,2.25,15.29-3.44,15.29-3.44l6.89-1.05s4.95,1.05,5.4,1.05a3.31,3.31,0,0,1,2.84.3c1.65.89,3,.15,3.3,2.24a5.09,5.09,0,0,1-1.5,3.85s3.6-.1,4.65,2.3,1.8,6.44,4.64,9.59,6.9,8.24,8.25,9.59,5.54,4.65,8.39,5.69,10.64,0,11.69,0,8.24-1.19,8.54-1.64a5.46,5.46,0,0,1,4.35-1.35c2.09.3,5.54-.3,9.74,2.54s12.9,3.6,13.72,4.2-.39-.3,2.91,2.25,8.39,12.59,8.54,13.19,2.55,25.17,2.55,27.57,16.19,6.59,16.19,6.59L290,209s.3-5.54,4.64-7.64,5.55-3.75,10.19-4.35a77.46,77.46,0,0,1,11.39-.9c2.1.15,6,1.2,7.35,2.55s3.44,4.65,3.44,6.45,2.1-3.3,2.25-4.2.75-1.5,0-2.7-1.36-2.1.37-2.7,2.63-1.94,1.43-3.29-1.5-.6-1.5-2.1.6-7.94-.45-9.89,1-.3,1.8-2.1,1.2-3.15-.15-3.75-.3,4.2-1.35-.6.75-6.29.75-6.29a3.34,3.34,0,0,1-1.8-2.7c-.15-1.95.9-7.49,3.9-10.64s1.2-26.67,1.2-26.67l-2.1-21.28a108.23,108.23,0,0,0-5.69-9.89c-2.25-3.15-3.45-7.78-7.05-11.24s-6.74-7.4-9.14-9.47-10-6.12-10.94-6.57-3.75-1.65-3.75-1.65"></path><path class="cls-1 JhmLiBoE_13" d="M229.61,52.85c-1.46.2-3.71,16.15-2.91,19.36s2.89,14.41,5.54,17.2,7,11.55,11.24,11.67S257,104.55,257,104.55"></path><path class="cls-1 JhmLiBoE_14" d="M84.79,124.31S92.62,141,98.62,147.16s21.38,24.38,23,26.77,6.6,4.4,7.8,7.4,4.39,16.78,4.79,18.78,2,6.59,2,6.59,8.79,9.79,10.19,11.19,4.6,4.2,5.4,3.8,1.4-3.6,1.4-4.2S141.78,209,141.78,209"></path><path class="cls-1 JhmLiBoE_15" d="M142.48,201.51s6.09,4.1,6.79,5a95,95,0,0,0,7.39,6.1,4.29,4.29,0,0,1,.9,3.2c-.3.5-2.69,3.21-4.39,1.69"></path><path class="cls-1 JhmLiBoE_16" d="M159.56,205.31,157,202l-4.92-5.5s-.87-2.89-.17-3.69-1-8.2-1-8.2l3.69,3.7c.7.7,4.2,5.3,4.2,5.9s2.5,4.29,2.5,4.29,3.09,4.2,3.79,4.6,4.5,1.3,5.4.5a4.77,4.77,0,0,0,1.3-3.1,7.78,7.78,0,0,0-2.1-5.1c-1.7-2-5-5.29-5.79-7.09s-1.2-2-1.5-3.7-5-7.09-6.7-8.39a26.93,26.93,0,0,0-4.79-2.8c-1.6-.79-4.2-1.29-6-2.79a30.78,30.78,0,0,1-5.79-5.7c-1.9-2.59-12.49-20.28-14.29-25s-3.5-10.29-4-12-.8-3.1-1.4-4.6-2.14-5.11-2.14-5.11"></path><path class="cls-1 JhmLiBoE_17" d="M162.38,200.91a32.94,32.94,0,0,0-3-2.7c-.67-.45-.34-1.42-1.74-1.42s-1.7,1.12-1.63,1.35,0,2.8,0,2.8"></path><path class="cls-1 JhmLiBoE_18" d="M166.18,203.49a14.77,14.77,0,0,1,.4,4.09c-.23,1.42-5.3,3.41-5.3,3.41s-3.26,2.21-3.64,1.61-1.64-.49-1.64-.49"></path><path class="cls-1 JhmLiBoE_19" d="M94.2,141.39s-7.57,13.16-8.27,17.16-.77,7.89-1.14,10.29-2.46,23.58-1.16,27.37,2.2,23.08,9.39,32.57,8.89,16.19,18.48,22.28,16.49,10.79,27.28,10.59a51.25,51.25,0,0,0,20.08-5s12.79-8,13.09-8.29,8.19-6.3,12.49-6.3,12.48,5.5,13.08,6.2,9.6,7.39,11,8,6.9,1.1,9,1.1,4.19.4,5.29-.5,5-1.8,4.3-7.9-4.8-12.18-4.8-12.18-1.8-1.1-2.4-5.7-1.7-9.39,1.4-10.69,5.6-2.1,8.39-2,28.88,5.1,28.88,5.1l21.58,3.2s.7-5.7,4.49-4.5c0,0,.2-5.7,2.1-7.69s3.2-1.9,3.2-1.9,2.3,0,2.6.8-.3,3.19,0,4.29-.7,2.4-1.2,3a11.35,11.35,0,0,0-1.2,4.8,54.33,54.33,0,0,1-.4,6.39l-.3,1.5s2.1,5.89,2.4,6.19"></path><path class="cls-1 JhmLiBoE_20" d="M181.84,191.62c.31-.32,6.09-6.6,10.59-6s7.79,1.76,9.19,3,5,5,5.4,6a12.69,12.69,0,0,1,.59,2.17s3,13.81,0,16.81-4,5.69-8.59,5.89-12.09-.69-15.18-6.79-4.6-8.79-4.1-12.69S180.37,193.14,181.84,191.62Z"></path><path class="cls-1 JhmLiBoE_21" d="M233,218.83a8.79,8.79,0,0,0,0,4.06c.51,2.5,1.71,7.59,3,8.69s3.89,7.59,3.89,8.89.2,5.9-.39,6.3-14.8,8.9-14.8,8.9"></path><path class="cls-1 JhmLiBoE_22" d="M119.9,123.36c.22,0,14.23-1.61,20.75,1s13.71,6.61,15.36,8.19,13,11.69,16.19,15.66,8.39,9.21,11.84,10.64,14.61,0,14.61,0,9.44-4.72,12.44-4.8,8.76-.22,13.71,4,10.49,10.12,12.89,17.09,3.29,25.55,3.44,26.15-33.77-5.55-33.77-5.55"></path><path class="cls-1 JhmLiBoE_23" d="M361.57,223.49l-.32,14.88s4.87,0,5.84.38,6.37,3.15,6.37,3.15,6.07,1.49,8.47,2,35.07,4.94,38.81,3.9l.68-2.78s4.64-1,4.72-7.19-1.58-10.19-2.48-10.42l-.89-.22.15-4.57s-45.26-2.77-46.39-2.17a34,34,0,0,1-6.89,2.17C368,222.86,361.57,223.49,361.57,223.49Z"></path><path class="cls-1 JhmLiBoE_24" d="M384.63,211.4c-.83.22-2,.67-2,1.42s-.9,2.55,0,3.38,1.5,1,1.58,1.49a23.84,23.84,0,0,1-.15,2.69h1.79v-2.61s1.28-.68,1.43-1.57a8.14,8.14,0,0,0,0-3.3,2.79,2.79,0,0,0-.9-1.5C385.75,210.88,384.63,211.4,384.63,211.4Z"></path><path class="cls-1 JhmLiBoE_25" d="M399.16,212a2.34,2.34,0,0,0-2.1,1.65,8.56,8.56,0,0,0,0,3.07,2.9,2.9,0,0,0,1,1.8c.37.22,0,2.32,0,2.32h2.47V219a4.61,4.61,0,0,1,.9-1.65c.52-.45.22-3.74,0-4A2.71,2.71,0,0,0,399.16,212Z"></path><path class="cls-1 JhmLiBoE_26" d="M412.8,213.2s-2,.07-2.1,1.27a9.68,9.68,0,0,0,0,2.92c.23.68,1.35,1.65,1.5,1.88a15.8,15.8,0,0,1-.09,2.73h2.56l-.37-2.43s1.65-.08,1.57-.45a26.61,26.61,0,0,0,0-2.7,10.79,10.79,0,0,0-.82-2.62C414.75,213.27,412.8,213.2,412.8,213.2Z"></path><path class="cls-1 JhmLiBoE_27" d="M381.93,243.92s-.45,1.65-.75,1.65-1.13.45-1.05,2.1,1.87,3.44,2.92,3.52a2.47,2.47,0,0,0,2.47-1c.53-.82,2.1-1.26,1.13-2.65s-1.75-2.14-1.84-2.67l-.08-.52Z"></path><path class="cls-1 JhmLiBoE_28" d="M395.34,246.32a8.49,8.49,0,0,0,0,2.17c.15,1.27.3,2.13,1.05,2.71a2.51,2.51,0,0,0,2.92.29c1.35-.6,2.47,0,1.95-1.43a7.21,7.21,0,0,0-1.2-2.5,10.54,10.54,0,0,0-1.73-1.24Z"></path><path class="cls-1 JhmLiBoE_29" d="M411.23,248s.07,2.79,0,3.22.07,1.86,1,1.94a3,3,0,0,0,2.1-.68c.45-.37.9-.15.67-1.57s-.6-2.91-.6-2.91l-2.93-.42Z"></path><path class="cls-1 JhmLiBoE_30" d="M164.08,253.38l2.55,17.36a21.47,21.47,0,0,1,7.22,7.8c3,5.39,3.29,15,3.29,15s9.26.6,10.78,3.6,10.8,11.09,12.9,13.79,0,5.09,0,5.69,2.08,3.9,2.08,3.9,3,4.49,1.82,4.79-3.6,3.3-3.6,3.3.9,11.69.3,14.39-1.8,5.39-1.8,6.89.9,3.3,1.8,7.49,1.8,4.8,2.1,7.2,3.89,18.58,4.79,20.38,3.3,2.4,3.3,7.49,2.1,10.79,2.4,12,5.09,7.79,5.09,10.19v9.29l3,9.89,3.9,7.5,5.09-5.4s8.4-.3,10.79.3,8.4-2.7,8.4-2.7V428.4s2.09-2.4,1.19-3.9-.45-3,.23-8.69-2-5.39-2.92-8.09-.6,0-1.2-5.4,0-3.29,0-9.59-4-20.68-2.17-34.47,2.17-15.58,1.57-17.68,1.1-2.1.8-3.8-2.5-3.49-1.7-5.09,1.7-1.9,2.2-2.9,2.79-.8,1.1-3.5-3.1-3.89-3.1-4.79,1.6-.8,1.9-1.3,3.49-.5,1.9-3.5-1.8-4-1.5-4.79,3-3.3,2.39-8.19-3.43-11-5.56-14.09-4-7.59-6.32-9.89a66.58,66.58,0,0,1-7.3-9.69"></path><path class="cls-1 JhmLiBoE_31" d="M280.15,226.69l.5,12.08s4.39,4.6,5.79,5.9,3.8,1.9,6.18,2.8a83.15,83.15,0,0,0,9.61,2.39c1.6.3,5.09-.4,7.59-.7s3.9-4.19,5.39-5.89a8.7,8.7,0,0,0,2.3-6.19c.1-2.9.6-4.4.5-4.7l-4,.6a22.69,22.69,0,0,0-1.6-4.5c-.7-1.69-1.9-3.89-2.2-4.79s.5-3.6.5-4.8a13,13,0,0,0-1.9-5.39c-1-1.5-3-.7-4.2-.9s-1.69,2.8-1.79,4,1.49,4.2,1.89,5.6a7.47,7.47,0,0,1,.3,4c-.3,1.79-.5,1.49-.5,2.29a28,28,0,0,0,.5,4.5,23,23,0,0,1,.4,2.8c.1.7-1.89,2.53-1.89,2.53a19.14,19.14,0,0,0-1.1-1.73A14,14,0,0,0,300,235l-2.3-2.5a37.36,37.36,0,0,0-.5-4.5c-.3-1.09.8-5.39,1-6.19a5.27,5.27,0,0,0-.7-3.4c-.6-.8-2.6-1.1-2.6-1.1l-2.31,1.1"></path><path class="cls-1 JhmLiBoE_32" d="M284.64,222.19L284.64,235.88L288.24,241.37"></path><path class="cls-1 JhmLiBoE_33" d="M325.81,215.9L361.57,223.49"></path><path class="cls-1 JhmLiBoE_34" d="M318.01,232.38L361.25,238.37"></path><path class="cls-1 JhmLiBoE_35" d="M315.21,243.27a31.55,31.55,0,0,0,4,2.3c.45,0,0-1.95,2.4.75s6.44,8.09,6.44,9.59-1.35,3.15-.75,4.64,6.45,8.55,8.7,11.54,6.14,12.14,6.74,13.19,2.7,12.29,3.15,14.39,3.74,1.8,3.74,2.7-1.2,1.64,0,5.39,1.35,5.1,2.1,6.89a8.87,8.87,0,0,1,.9,4.2c0,1.65,3.15,10.49,2.7,11.54a36.4,36.4,0,0,0-.9,6.59c0,.75,1,2.7.94,3.9a18.36,18.36,0,0,1-1.24,4.05s1.44,3.44,1.24,4.19-1.09,1.2-1.39,1.65-2.4,1.8-3.45,3.9-7,8.54-9.59,9.14-.75,2.4-3.6,2.85-8.69,2.24-9.74,2.24-13.18,3-19.78,2.85-18.13-1.05-19-.6-.3,3.45-3.3,3-3,.39-4.64,0-6-.53-7.8.09-5.24,2.27-6.89,2.27H257s-6-1.8-7.34-1.8-4.51-2.57-4.51-2.57"></path><path class="cls-1 JhmLiBoE_36" d="M243.45,285.39s5.54,1.69,8.36,3.94,5.36,4.79,7.16,6.29,2.54,2.4,4.64,4.35,2.85,1.95,4.8,4.49,7.79,6.45,9.59,8,7.19,6.59,8.09,6.89,4.05,3.6,5.85,5.09,4.49,4.2,4.49,4.2l1.95,4.2L294,331.14a12.18,12.18,0,0,1-4.34.75c-1.95-.15-6.15.75-6.6,1.95a32.14,32.14,0,0,1-1.64,3.89c-.45.75-2.25,2.55-2.7,4a13.11,13.11,0,0,0,0,4.34"></path><path class="cls-1 JhmLiBoE_37" d="M246.3,351.7c.06-.48,4.12-5.73,7.57-5.58s5.7-.15,6.6,0,1.34.45,3.44-1a22.47,22.47,0,0,1,5.7-2.85c1.95-.75,2.54-2.4,4.34-2.55a10,10,0,0,1,3.15,0c.45.15,2.4-1.2,2.7-1.65s1.65-.3,1.65-.3"></path><path class="cls-1 JhmLiBoE_38" d="M218.35,425.25c.45.6-1,4.35-1.94,6.15a25.52,25.52,0,0,0-2.25,7.79c-.45,3.3-2.55,4,0,7.64s7.79,10,8.09,11.54,1.8,4.65,2.55,7.64,3,8.63,3.45,10.79,3.14,10,3.74,10,6.45,9,15.59,8.1,13.93-1.05,15.73-1.5,5.25-2.1,6-4.2,3.14-2,2.1-6.14-1.65-6.15-2.85-7.8-3-5.24-5.7-9.14-2.69-4.34-3.29-7.64-1.5-4.2-2.7-7.79-1.35-4.35-2.25-7.79,0-5.4-.45-7.2-.83-1.8-2.36-3.45l-1.53-1.64"></path><path class="cls-1 JhmLiBoE_39" d="M235.89,438.44c2,3.15,11.24,5.84,14.24,4.79s-6.75,7.65-18.89,4.5-4.34,4.95,0,4.65,16.38.9,19.43-3.3,5.75,1.5,3.35,2.55-16.63,3.74-18.88,5.39-2.7,4.8,1.65,5,12.89-7.05,16.18-5.4,4.5,4.65,1.35,5.4-16,2.4-15.88,3.89"></path><path class="cls-1 JhmLiBoE_40" d="M211.8,395.23c-.9,2.55-6,11.59-5.88,14.29s1.34,8.09.9,9.89,1.79,10.94,4.19,13a12.51,12.51,0,0,0,4,2.59"></path><path class="cls-1 JhmLiBoE_41" d="M263.76,376.55s.75.45-.75,3.74a10.26,10.26,0,0,1-4.94,5.4,4.9,4.9,0,0,0-3.45,3.89c-.3,2.4-.6,4.8-2.1,6.9s-3.44,4-3.59,5.24-.36,5.42-.36,5.42"></path><path class="cls-1 JhmLiBoE_42" d="M241.13,201.21L273.56,206.09"></path><path class="cls-1 JhmLiBoE_43" d="M306.47,150.26c0,.6-13.18,26.22-15.58,28.92s-7.65,4.8-8.84,4.8-8.55-.3-10.34,0-10,1.49-12,.74a40.75,40.75,0,0,0-5.84-1.37"></path><path class="cls-1 JhmLiBoE_44" d="M286.44,183.68c-.95.89-3.4,1-1.8,4.34s1.1,3.6,1.8,4.95,2,4.64,1.8,6.74-.8,4.85-.65,5.8a33.74,33.74,0,0,0,1.5,4.09l.9-.6,35.82,6.9.79-10.39"></path><path class="cls-1 JhmLiBoE_45" d="M241.13,278.84c5,1.8,59.5,12.79,62.7,12.79"></path><path class="cls-1 JhmLiBoE_46" d="M251.81,276c10.85,2.4,44.92,4.4,48.47,4.4"></path><path class="cls-1 JhmLiBoE_47" d="M300.28,351.7c-8.24-1.13-8.84-.47-14.84,0s-9.79,3.67-16.58,4.07-13.19,1.79-14.79,2.79"></path><path class="cls-1 JhmLiBoE_48" d="M204.72,325.29s.6.5.8,5.1c.08,1.89,5.39.4,7.39-1.2"></path><path class="cls-1 JhmLiBoE_49" d="M207.94,336.78c-3,6.2-3,6.9-3.22,9.34s1.2,4.45.8,7.05,3.85,6,2.42,9.39-2.12,3.2-1.47,8,3.5,8,2.34,10.19l-1.15,2.18"></path><path class="cls-1 JhmLiBoE_50" d="M243.45,391.84s-1.37,3.49-6.76,6.09-5.6,4-9,2.79"></path><path class="cls-1 JhmLiBoE_51" d="M227.7,412.91c2.39,2.6,4.16,3.4,7.87,3.6a19.19,19.19,0,0,0,7.88-1.38"></path><path class="cls-1 JhmLiBoE_52" d="M224.75,425.25c5.74,2.05,5.14,1.85,6.74,2.05a25.39,25.39,0,0,0,4.08,0"></path><path class="cls-1 JhmLiBoE_53" d="M279.27,227.21s-1,2-4.57,2.92-1.57,1.13-5.17,1.65-7.12.38-10.49,1.57-4.64,1-6.67,2.4-2.24,2.1-4.12,2.55a26.71,26.71,0,0,1-4.64.9c-1.43.07-3.69,0-3.69,0"></path><path class="cls-1 JhmLiBoE_54" d="M213.56,214.7l-.9,1.42a30.29,30.29,0,0,1-3.71,4.72c-1.32,1-1.54.9-3.93,2.1a18.44,18.44,0,0,1-7.8,1.35c-1.19-.15-6.29,0-8.24,0s-10.49-8.84-13.19-11.59a5.9,5.9,0,0,1-.84-1.18c-2.25-4.07-3.79-14-3.19-14.73s-.16-5.32,0-6.22a17,17,0,0,1,4.78-7.19c2.85-2.4,3.45-3.9,6.75-5.4A18.94,18.94,0,0,1,189,176s10.79-.75,13,1.8,6.51,5.25,6.93,6.15,4.46,4.49,4.61,6a34,34,0,0,0,1.8,5.54v1.28"></path><path class="cls-1 JhmLiBoE_55" d="M207.61,213.6L232.3,218.73"></path><path class="cls-1 JhmLiBoE_56" d="M175,211.52l-4.4-.27a14.21,14.21,0,0,0-5.7.75c-2.09.75-4.19.83-4.94,4.16s2.55,6.25,2.47,8.16-1.16,10.46-1.07,11.66-.57,4.94-1.51,6.14-.83,4.95,1.51,4S171.45,241.08,174,240a17.73,17.73,0,0,1,7.64-1.81c3.15,0,5.09,1.65,9.29,2.85s12.29,6.12,13.34,5.24,3.69-3.88,3.34-6.28-1.24-4.65-1.69-8.1-.11-3.3,1.05-6.89l1.15-3.6"></path><path class="cls-1 JhmLiBoE_57" d="M306.47,177.68c3.75,2.25,6.15,3.3,8.84,2.7s6.15-1.27,6.15-1.27"></path><path class="cls-1 JhmLiBoE_58" d="M299.88,194.32c1.05.3.32.59,5.48,0a46.26,46.26,0,0,1,10.55,0c1.5.15,6-.45,7.2,1a25.66,25.66,0,0,0,4.34,3.6"></path><path class="cls-1 JhmLiBoE_59" d="M303.78,168.69c1.64.9,11.68-1.95,12.58-2.25s5.1-3.75,5.1-3.75l1.35-1.34"></path><path class="cls-1 JhmLiBoE_60" d="M302.58,162.05a19.91,19.91,0,0,0,4.94,1.09,31,31,0,0,0,3.75,0,16.37,16.37,0,0,0,4-.51"></path><path class="cls-1 JhmLiBoE_61" d="M380.12,235.38c-2,.75-3.81,1.35-3.66,3s1.56,4.64,2.66,4.9,4.42-1.3,4.42-1.3a21,21,0,0,0,0-3.6c-.19-1.34-.69-2.84-1.34-3a3.86,3.86,0,0,0-1.4,0Z"></path><path class="cls-1 JhmLiBoE_62" d="M378.56,222c-.75,1.09-1.05,2,0,3.79s4.42.9,5,0,1.41-.55.09-2.3-1.63-3.1-2.53-2.65S378.56,222,378.56,222Z"></path><path class="cls-1 JhmLiBoE_63" d="M396.24,224.59c-1.65-.75-3.3-2-3.45,0s-.45,2.25,0,3.59.92,2.25,2.48,2.25,1.72,2.1,2.47,0,.45-2.72,0-3.61A18.94,18.94,0,0,0,396.24,224.59Z"></path><path class="cls-1 JhmLiBoE_64" d="M393.69,237.33c-.6.3-2.4-.15-2.1,2.7s-.78,3,1,3.89a3.65,3.65,0,0,0,4.29-.65c.82-.85,2.78-.28,1.27-2.44s-2.63-2.9-2.81-3.5S393.69,237.33,393.69,237.33Z"></path><path class="cls-1 JhmLiBoE_65" d="M408.08,224.44c-.45,0-2.85,2.84-2.1,3.89s.3,2.69,2.1,2.92,3.9-1.57,3.9-2a10.63,10.63,0,0,0-1.4-3.59A8.17,8.17,0,0,0,408.08,224.44Z"></path><path class="cls-1 JhmLiBoE_66" d="M408.91,240c-.68-.46-1.43-.31-2.18,1.34s1.77,3.9,2.18,4.95,2.92-.3,3.07-.75a19.6,19.6,0,0,0,0-4.2C411.83,240.62,408.91,240,408.91,240Z"></path><style data-made-with="vivus-instant">.JhmLiBoE_0{stroke-dasharray:243 245;stroke-dashoffset:244;animation:JhmLiBoE_draw 2000ms linear 0ms forwards;}.JhmLiBoE_1{stroke-dasharray:126 128;stroke-dashoffset:127;animation:JhmLiBoE_draw 2000ms linear 15ms forwards;}.JhmLiBoE_2{stroke-dasharray:21 23;stroke-dashoffset:22;animation:JhmLiBoE_draw 2000ms linear 30ms forwards;}.JhmLiBoE_3{stroke-dasharray:18 20;stroke-dashoffset:19;animation:JhmLiBoE_draw 2000ms linear 45ms forwards;}.JhmLiBoE_4{stroke-dasharray:36 38;stroke-dashoffset:37;animation:JhmLiBoE_draw 2000ms linear 60ms forwards;}.JhmLiBoE_5{stroke-dasharray:6 8;stroke-dashoffset:7;animation:JhmLiBoE_draw 2000ms linear 75ms forwards;}.JhmLiBoE_6{stroke-dasharray:12 14;stroke-dashoffset:13;animation:JhmLiBoE_draw 2000ms linear 90ms forwards;}.JhmLiBoE_7{stroke-dasharray:7 9;stroke-dashoffset:8;animation:JhmLiBoE_draw 2000ms linear 106ms forwards;}.JhmLiBoE_8{stroke-dasharray:8 10;stroke-dashoffset:9;animation:JhmLiBoE_draw 2000ms linear 121ms forwards;}.JhmLiBoE_9{stroke-dasharray:5 7;stroke-dashoffset:6;animation:JhmLiBoE_draw 2000ms linear 136ms forwards;}.JhmLiBoE_10{stroke-dasharray:28 30;stroke-dashoffset:29;animation:JhmLiBoE_draw 2000ms linear 151ms forwards;}.JhmLiBoE_11{stroke-dasharray:13 15;stroke-dashoffset:14;animation:JhmLiBoE_draw 2000ms linear 166ms forwards;}.JhmLiBoE_12{stroke-dasharray:695 697;stroke-dashoffset:696;animation:JhmLiBoE_draw 2000ms linear 181ms forwards;}.JhmLiBoE_13{stroke-dasharray:69 71;stroke-dashoffset:70;animation:JhmLiBoE_draw 2000ms linear 196ms forwards;}.JhmLiBoE_14{stroke-dasharray:140 142;stroke-dashoffset:141;animation:JhmLiBoE_draw 2000ms linear 212ms forwards;}.JhmLiBoE_15{stroke-dasharray:27 29;stroke-dashoffset:28;animation:JhmLiBoE_draw 2000ms linear 227ms forwards;}.JhmLiBoE_16{stroke-dasharray:158 160;stroke-dashoffset:159;animation:JhmLiBoE_draw 2000ms linear 242ms forwards;}.JhmLiBoE_17{stroke-dasharray:12 14;stroke-dashoffset:13;animation:JhmLiBoE_draw 2000ms linear 257ms forwards;}.JhmLiBoE_18{stroke-dasharray:17 19;stroke-dashoffset:18;animation:JhmLiBoE_draw 2000ms linear 272ms forwards;}.JhmLiBoE_19{stroke-dasharray:394 396;stroke-dashoffset:395;animation:JhmLiBoE_draw 2000ms linear 287ms forwards;}.JhmLiBoE_20{stroke-dasharray:101 103;stroke-dashoffset:102;animation:JhmLiBoE_draw 2000ms linear 303ms forwards;}.JhmLiBoE_21{stroke-dasharray:47 49;stroke-dashoffset:48;animation:JhmLiBoE_draw 2000ms linear 318ms forwards;}.JhmLiBoE_22{stroke-dasharray:203 205;stroke-dashoffset:204;animation:JhmLiBoE_draw 2000ms linear 333ms forwards;}.JhmLiBoE_23{stroke-dasharray:167 169;stroke-dashoffset:168;animation:JhmLiBoE_draw 2000ms linear 348ms forwards;}.JhmLiBoE_24{stroke-dasharray:25 27;stroke-dashoffset:26;animation:JhmLiBoE_draw 2000ms linear 363ms forwards;}.JhmLiBoE_25{stroke-dasharray:24 26;stroke-dashoffset:25;animation:JhmLiBoE_draw 2000ms linear 378ms forwards;}.JhmLiBoE_26{stroke-dasharray:26 28;stroke-dashoffset:27;animation:JhmLiBoE_draw 2000ms linear 393ms forwards;}.JhmLiBoE_27{stroke-dasharray:22 24;stroke-dashoffset:23;animation:JhmLiBoE_draw 2000ms linear 409ms forwards;}.JhmLiBoE_28{stroke-dasharray:20 22;stroke-dashoffset:21;animation:JhmLiBoE_draw 2000ms linear 424ms forwards;}.JhmLiBoE_29{stroke-dasharray:17 19;stroke-dashoffset:18;animation:JhmLiBoE_draw 2000ms linear 439ms forwards;}.JhmLiBoE_30{stroke-dasharray:420 422;stroke-dashoffset:421;animation:JhmLiBoE_draw 2000ms linear 454ms forwards;}.JhmLiBoE_31{stroke-dasharray:150 152;stroke-dashoffset:151;animation:JhmLiBoE_draw 2000ms linear 469ms forwards;}.JhmLiBoE_32{stroke-dasharray:21 23;stroke-dashoffset:22;animation:JhmLiBoE_draw 2000ms linear 484ms forwards;}.JhmLiBoE_33{stroke-dasharray:37 39;stroke-dashoffset:38;animation:JhmLiBoE_draw 2000ms linear 500ms forwards;}.JhmLiBoE_34{stroke-dasharray:44 46;stroke-dashoffset:45;animation:JhmLiBoE_draw 2000ms linear 515ms forwards;}.JhmLiBoE_35{stroke-dasharray:244 246;stroke-dashoffset:245;animation:JhmLiBoE_draw 2000ms linear 530ms forwards;}.JhmLiBoE_36{stroke-dasharray:104 106;stroke-dashoffset:105;animation:JhmLiBoE_draw 2000ms linear 545ms forwards;}.JhmLiBoE_37{stroke-dasharray:40 42;stroke-dashoffset:41;animation:JhmLiBoE_draw 2000ms linear 560ms forwards;}.JhmLiBoE_38{stroke-dasharray:174 176;stroke-dashoffset:175;animation:JhmLiBoE_draw 2000ms linear 575ms forwards;}.JhmLiBoE_39{stroke-dasharray:151 153;stroke-dashoffset:152;animation:JhmLiBoE_draw 2000ms linear 590ms forwards;}.JhmLiBoE_40{stroke-dasharray:45 47;stroke-dashoffset:46;animation:JhmLiBoE_draw 2000ms linear 606ms forwards;}.JhmLiBoE_41{stroke-dasharray:37 39;stroke-dashoffset:38;animation:JhmLiBoE_draw 2000ms linear 621ms forwards;}.JhmLiBoE_42{stroke-dasharray:33 35;stroke-dashoffset:34;animation:JhmLiBoE_draw 2000ms linear 636ms forwards;}.JhmLiBoE_43{stroke-dasharray:72 74;stroke-dashoffset:73;animation:JhmLiBoE_draw 2000ms linear 651ms forwards;}.JhmLiBoE_44{stroke-dasharray:77 79;stroke-dashoffset:78;animation:JhmLiBoE_draw 2000ms linear 666ms forwards;}.JhmLiBoE_45{stroke-dasharray:65 67;stroke-dashoffset:66;animation:JhmLiBoE_draw 2000ms linear 681ms forwards;}.JhmLiBoE_46{stroke-dasharray:49 51;stroke-dashoffset:50;animation:JhmLiBoE_draw 2000ms linear 696ms forwards;}.JhmLiBoE_47{stroke-dasharray:48 50;stroke-dashoffset:49;animation:JhmLiBoE_draw 2000ms linear 712ms forwards;}.JhmLiBoE_48{stroke-dasharray:14 16;stroke-dashoffset:15;animation:JhmLiBoE_draw 2000ms linear 727ms forwards;}.JhmLiBoE_49{stroke-dasharray:49 51;stroke-dashoffset:50;animation:JhmLiBoE_draw 2000ms linear 742ms forwards;}.JhmLiBoE_50{stroke-dasharray:20 22;stroke-dashoffset:21;animation:JhmLiBoE_draw 2000ms linear 757ms forwards;}.JhmLiBoE_51{stroke-dasharray:18 20;stroke-dashoffset:19;animation:JhmLiBoE_draw 2000ms linear 772ms forwards;}.JhmLiBoE_52{stroke-dasharray:12 14;stroke-dashoffset:13;animation:JhmLiBoE_draw 2000ms linear 787ms forwards;}.JhmLiBoE_53{stroke-dasharray:43 45;stroke-dashoffset:44;animation:JhmLiBoE_draw 2000ms linear 803ms forwards;}.JhmLiBoE_54{stroke-dasharray:130 132;stroke-dashoffset:131;animation:JhmLiBoE_draw 2000ms linear 818ms forwards;}.JhmLiBoE_55{stroke-dasharray:26 28;stroke-dashoffset:27;animation:JhmLiBoE_draw 2000ms linear 833ms forwards;}.JhmLiBoE_56{stroke-dasharray:123 125;stroke-dashoffset:124;animation:JhmLiBoE_draw 2000ms linear 848ms forwards;}.JhmLiBoE_57{stroke-dasharray:16 18;stroke-dashoffset:17;animation:JhmLiBoE_draw 2000ms linear 863ms forwards;}.JhmLiBoE_58{stroke-dasharray:30 32;stroke-dashoffset:31;animation:JhmLiBoE_draw 2000ms linear 878ms forwards;}.JhmLiBoE_59{stroke-dasharray:22 24;stroke-dashoffset:23;animation:JhmLiBoE_draw 2000ms linear 893ms forwards;}.JhmLiBoE_60{stroke-dasharray:13 15;stroke-dashoffset:14;animation:JhmLiBoE_draw 2000ms linear 909ms forwards;}.JhmLiBoE_61{stroke-dasharray:25 27;stroke-dashoffset:26;animation:JhmLiBoE_draw 2000ms linear 924ms forwards;}.JhmLiBoE_62{stroke-dasharray:20 22;stroke-dashoffset:21;animation:JhmLiBoE_draw 2000ms linear 939ms forwards;}.JhmLiBoE_63{stroke-dasharray:22 24;stroke-dashoffset:23;animation:JhmLiBoE_draw 2000ms linear 954ms forwards;}.JhmLiBoE_64{stroke-dasharray:24 26;stroke-dashoffset:25;animation:JhmLiBoE_draw 2000ms linear 969ms forwards;}.JhmLiBoE_65{stroke-dasharray:20 22;stroke-dashoffset:21;animation:JhmLiBoE_draw 2000ms linear 984ms forwards;}.JhmLiBoE_66{stroke-dasharray:20 22;stroke-dashoffset:21;animation:JhmLiBoE_draw 2000ms linear 1000ms forwards;}@keyframes JhmLiBoE_draw{100%{stroke-dashoffset:0;}}@keyframes JhmLiBoE_fade{0%{stroke-opacity:1;}94.44444444444444%{stroke-opacity:1;}100%{stroke-opacity:0;}}</style></svg>