<svg id="Layer_1" data-name="Layer 1" xmlns="http://www.w3.org/2000/svg" viewBox="0 0 500 500" style=""><defs><style>.cls-1{fill:none;stroke:#1d1d1b;stroke-miterlimit:10;}</style></defs><path class="cls-1 sRHAvJkN_0" d="M227.28,42.38S229,35,233.43,34.11a31.37,31.37,0,0,0,6.12-2.5s4.55-.21,5.91-1.05,4.43-3.34,6-2.78,2.6-1,4.15.56,2.53-.81,4.64-.53,2.71,4.62,2.95,5c1.69,2.43.67,4.79,2.64,7.18s1.3,1.71,1.8,4.89a22,22,0,0,1-.78,6.29c-.42.7.16,4.53-.07,5.8-.37,2.06-1,2.64-1.12,4.47s-1.53,2.19-1.39,4.16-1.18,3.22-2,4.77a25.44,25.44,0,0,1-3.06,4.85c-1,1-4.64,4.19-6.61,4.33A92.22,92.22,0,0,1,240,78.77c-1.68-.42-7.52-7.24-8.09-7.81S228,64.21,228,63.51s-1.27-8.16-1.13-9.29.28-6,.56-9.14a18.36,18.36,0,0,0-.16-3.27q-.06-.45-.12-.93c-.53-3.93-1.55-9-1.55-11.13,0-3.1,2-8.44,3.94-11.82s10.69-7.31,15.76-9c0,0,11.81-1.58,14.66.63s8,5.49,8.59,7.7,3.55,12.45,3.65,14,0,14,0,14,.51,5.66-.63,7.28c-.89,1.27.53,5.38-.85,6.54-.82.7-1.54,1.37-2.74,1.05-.65-.17-1.58-1.58-1.58-1.58"></path><path class="cls-1 sRHAvJkN_1" d="M267.59,46.65a15.69,15.69,0,0,1,3.08-1.11c.67,0,1.53,1.58,1.53,1.58"></path><path class="cls-1 sRHAvJkN_2" d="M269.3,50.39s1.21-.21,1.08,1.69-.23,2.11-1.08,2.85a2,2,0,0,0-.74,1.58"></path><path class="cls-1 sRHAvJkN_3" d="M260.55,41c-.53-1-4.12-1.69-4.54-1.69a34,34,0,0,0-4.64,0c-1,.21-3.27,2.54-3.27,2.54a38.39,38.39,0,0,0-.21,4.48,11.89,11.89,0,0,0,1.37,4.05c.31.31,1.58,2.23,1.58,2.23a1.71,1.71,0,0,1,.42,1.65,3.81,3.81,0,0,1-2.38,2.25c-1.12.21-1.06-1-1.42-.84s-.45,1.54-.84,1.9-1.37.31-2.53,0-1.27-1.59-1.58-2.33-1.9,0-2.43,0-1.09-1.72-.85-2.63,2.22-1.9,2.75-2.23,1.26-2.63,1.26-2.63l1-6.4a10.56,10.56,0,0,0-1.44-1.3,39.76,39.76,0,0,0-3.59-2.32,9.75,9.75,0,0,0-3.21-.42,5.37,5.37,0,0,0-3.12,1.27L231.43,40"></path><path class="cls-1 sRHAvJkN_4" d="M241,43.32a34.23,34.23,0,0,0-5.49-.52,16.82,16.82,0,0,0-3.27.52"></path><path class="cls-1 sRHAvJkN_5" d="M234,43s.13,1.81,1.49,2c2.45.43,3.19-.79,3.19-.79l.59-1.17"></path><path class="cls-1 sRHAvJkN_6" d="M250.63,43.32a9.2,9.2,0,0,1,5-.54,13.2,13.2,0,0,1,5,1.79"></path><path class="cls-1 sRHAvJkN_7" d="M252.74,42.76a1.58,1.58,0,0,0,.74,2.26c1.58.94,3.8,0,3.8,0l1.38-1.4"></path><path class="cls-1 sRHAvJkN_8" d="M238.18,53.45s-.74,3.55-2.32,4.26-3.06,1.23-3.59,2.07,0,5.28,0,5.28"></path><path class="cls-1 sRHAvJkN_9" d="M252.56,53.45a17.4,17.4,0,0,1,3.66,4.75,10.46,10.46,0,0,1,1.27,3.48V64"></path><path class="cls-1 sRHAvJkN_10" d="M236.58,60.1c.54.63,6.14.84,6.14.84l3.27-.42,2.89.42,4.7-.42"></path><path class="cls-1 sRHAvJkN_11" d="M236.65,61.68c.18.16.94,1,1.91,1.81a5.71,5.71,0,0,0,3.21,1.57h6.54L251.47,64l2.11-1.48"></path><path class="cls-1 sRHAvJkN_12" d="M238.56,63.49s-.84,2.83.66,3.25a39.91,39.91,0,0,0,5.4.85c.31,0,3.16.1,3.58,0a7.91,7.91,0,0,0,2.85-1.37,9.55,9.55,0,0,0,1.33-2.85"></path><path class="cls-1 sRHAvJkN_13" d="M238.18,74.34c.42.74,6.65,4.33,8.44,3.69s5.77-1.61,5.94-1.81,2.22-2.3,2.46-2.51"></path><path class="cls-1 sRHAvJkN_14" d="M209.8,82.15s-16,2.32-19.41,5.7-13.72,13.5-15,16.24-3.38,14.77-4.86,17.52-12.66,64.56-12.66,64.56-5.27,32.5-4.22,38,.42,15.6.85,21.51a49.6,49.6,0,0,0,1.47,9.5l-2.88,17.73a28.58,28.58,0,0,1,8.95-2.13c5.27-.42,7.44-.62,10,.23s9.71.42,9.71.42l1.26-.21,1.27-14.77s4-4.22,2.32-6.12-2.53-7-4-8.65-.63-12.87.42-15.62,3.8-28.69,3.8-28.69,2.95-5.28,1.9-7.81a17.1,17.1,0,0,1-1.69-8.86c.42-3.38.84-11.82,1.06-14.56s4-26,4-26L197.56,113l5.91-8.45,3.16-5.06s2.75-9.71,3.17-10.34S209.8,82.15,209.8,82.15Z"></path><path class="cls-1 sRHAvJkN_15" d="M227.22,41.81s-.89-1.47-2.23-1-3.27,2-2.42,5.54c.18.76,1.79,2.24,1.89,3.39.07.69-.08,1-.64,2.86s-.62,4.11.64,4.42a3.64,3.64,0,0,0,2.53-.49"></path><path class="cls-1 sRHAvJkN_16" d="M227.22,59.25s-19.11,16.67-17.42,22.9,7.81,10,9.71,12.76,7.93,16,7.71,21,1.36,27.54-.43,32,3-.53,3.16-8.76.84-25.85.84-25.85L229,99s-1.86-19.67-.19-33.47"></path><path class="cls-1 sRHAvJkN_17" d="M273,65.56s-9.42-2.75-7.17,4,1.54,26.87,1.54,26.87l.14,57.39-1.26,16.74s8-24.34,8.44-25.18,4.5-19,4.78-20.26,1.83-11.11,1.83-12.52.28-9.56,1.55-11.95,3.8-8,3.8-8l8-5.77A86.17,86.17,0,0,0,286,78.11C281.12,73.78,273,65.56,273,65.56Z"></path><path class="cls-1 sRHAvJkN_18" d="M228.35,89.22s3.39,7.28,14.26,7.07a44.73,44.73,0,0,0,19.73-5.49l5-6.65"></path><path class="cls-1 sRHAvJkN_19" d="M228.12,78.11s7,9.1,13.86,9,17.93-5.17,17.93-5.17.32,4.22-5.9,6.64-14.46,3-18.47,0S228.12,83,228.12,83"></path><path class="cls-1 sRHAvJkN_20" d="M269.48,65L264.81,63.49"></path><path class="cls-1 sRHAvJkN_21" d="M293.18,87.9s10.41,6.8,12.42,9.65S312,108.21,312,108.21s7.28,12.76,8.55,19.73,4.32,20.46,5.27,21.62,3.38,5.39,3.38,6.86.42,4.75.42,6.44a15.56,15.56,0,0,0,1.79,6c.64.85,2.43,2.85,2.85,4.12s1.06,3.9,0,5L332,180.27c-.63.63-3.58-.32-2.21,1.9s1.79,3.16,1.37,4.11-3.06,5.38-4.54,5.91,2.32,3.9,3.06,4.75.53,1.79-.95,3.58-2.85,3.27-2.53,4.12.21,8.23.21,8.23-3.38-4.12-4.75-5.81-3.58-6.12-4.53-7.49-.53.53-3.7-4.43-5.9-9.6-8.33-12.76-3.8-8.87-3.9-9.6-3-15.51-2.85-18.78-1.16-6.76-1.8-10.77-.31-7-.63-9.28-2.25-14.51-2.71-16.17-1.4-2.29-1.62-6.41,1.06-5.8-.52-8.44-1.69-2.53-2.75-4.32-2.59-4-2.59-4"></path><path class="cls-1 sRHAvJkN_22" d="M302.22,170.56s3.48-5.59,6.22-8.12,4.86-6.55,7.28-7,3.28-1.26,4,2.43,2.75,3.59-2.21,7-4.66,4.54-7.24,4.86S302.22,170.56,302.22,170.56Z"></path><path class="cls-1 sRHAvJkN_23" d="M306,177.42c1.26-.85.84-3.27,7.91-3.38a141.68,141.68,0,0,1,14.24.63"></path><path class="cls-1 sRHAvJkN_24" d="M275,144.3s5.66,20.35,5.06,22,3.76,6.53,3.9,9.38,3.11,5,1.77,8.34A12.11,12.11,0,0,0,287,194.9,51.83,51.83,0,0,1,292.51,205c.42,1.26,3.29,4.89,6.18,8.51s5.92,7.38,6.34,8.52c.85,2.25,2.11,5.9,0,5.48s-3.09-1.12-4.64-2.95a36.3,36.3,0,0,0-2.95-3.1l-.28,7.18s3.93,2.53,7.17,1.83a6.32,6.32,0,0,0,4.36-3.52,9.22,9.22,0,0,0,8.41,2.25c5.24-1.13,8.33-7.74,8.47-8.58s.81-7.77.81-7.77"></path><path class="cls-1 sRHAvJkN_25" d="M279.56,124.47s4.51,25.13,7.89,35.82,7.17,16.18,9,20,4.22,13.64,7.74,17.44,15.7,16,16.57,17.72-1.45,7-3.66,8.3-5.61.85-5.61.85,5.71.28,5.61-5.07-.84-7.45-5.61-11.25a67.71,67.71,0,0,1-11.24-10.55c-3.94-4.64-6.61-8.58-7.45-12.38s-.29-5.27-1.83-7.91a35,35,0,0,1-3.8-7.42c-1.55-4.08-8.7-40.61-8.7-40.61"></path><path class="cls-1 sRHAvJkN_26" d="M283.79,187.45s-.56,7.87-3.09,7.16"></path><path class="cls-1 sRHAvJkN_27" d="M266.37,168.44s-1.56,12.53-.93,20,2.46,24.47,3.16,28a23.72,23.72,0,0,0,3.88,9.13c.48.7,1,1.4,1.61,2.12,3.37,4.08,9.85,9.15,11.61,9.43s14,8.16,14,8.16.55.42,1-2.4-1.7-8.86-2-9.28a33.66,33.66,0,0,1-.78-4.48"></path><path class="cls-1 sRHAvJkN_28" d="M183.89,260.89l9.45,9.83s2.53,3.94,3.8,1.4,3.38-16.45,3.38-17.72,1.82-11.68,1.82-11.68,18.57,3,24.9,1.55,15.2-.42,19.7-3.52,14.2-3.51,16.74-7.17,5.7-1.24,6.33-6.19,0-6.32,0-6.32"></path><path class="cls-1 sRHAvJkN_29" d="M227.75,148s-.2,22.41,0,24.52-2.23,39.39-.66,43.33,2.83,6.75,2.83,6.75-.15,16.46-.71,17.58-3.51,3.94-4.22,1.69-2.39-1.83-2.67-1-.14,3.09-1.27,1.12l-1.12-2-1.27,1.55-2-1.55c-2,1.27-3.51,1.83-3.51,1.41s1.82-.71,0-1.83-2.4,1-2.4,1-2,1.27-2.67.29.85-.43-.84-1.69-2.39-1-3,.28-2.11,2.39-2.39.84,1.41-4.36-.56-3-.8,2.25-1.24,3.09-3,1.69-3.26.85.42-2.39,0-3,4.08-1.26-2,1.55-1.69-1.12-1.69-1.12l-1.52-2.54a2.27,2.27,0,0,1-.87,1.69c-.85.56.28,1.69-.85.56s-.84-2-1.26-2.53-1.83,1-2.39,1.41-1.69,0-1.69,0,1.41-6.61,1.55-6.77,7.45-9.13,7.45-9.54,3.24-10.84,3.66-12.11-.7-31.93,0-36.57,1.41-4.78.84-7.74-.84-25.18-.84-28,1.41-8.58,2.95-12.19,3.38-11.44,3.52-11.87,1.57-11,1.57-11a12.8,12.8,0,0,1,4.37-2.18c1.87-.28,5.92-8.49,5.92-8.49"></path><path class="cls-1 sRHAvJkN_30" d="M265.29,197.78s-.84,9.92-6.54,15.83S251.9,220,251.9,220s13.18-.42,14.34-3.59,1.68-4.65,1.68-4.65"></path><path class="cls-1 sRHAvJkN_31" d="M246.3,487.91s-1.9-5.27-2.53-7.8,0-19.63,1.26-23.64,1.7-28.06,0-32.49,2.54-48.53,2.54-48.53.42-30.39,0-32.08-2.53-18.14-2.52-20.67-1.07-28.91-.22-31.23-.85-10.34-2.54-13.72c0,0-.84-2.74-2.11,0a11.27,11.27,0,0,0-.84,6.54c.21,1.27-1.59,2.65-1.59,2.65"></path><path class="cls-1 sRHAvJkN_32" d="M250.52,356.46c1.69,2.53,12.66,16.88,19,21.31"></path><path class="cls-1 sRHAvJkN_33" d="M275.63,364.69a66.71,66.71,0,0,1-7.59,0l3.8,9.07"></path><path class="cls-1 sRHAvJkN_34" d="M245,305.6s4,6.76,7.18,8.44"></path><path class="cls-1 sRHAvJkN_35" d="M244.83,291.47s10.76,7.59,15.19,9.28"></path><path class="cls-1 sRHAvJkN_36" d="M244,277.75s5.49,4.43,8.23,4.85a32.14,32.14,0,0,0,6.75,0l11.32,3.59"></path><path class="cls-1 sRHAvJkN_37" d="M216.76,454.79c-7.38-.22-16.67-4.65-16.88-5.28S198,440,198,440s9.92,5.27,18.78,5.27"></path><path class="cls-1 sRHAvJkN_38" d="M230.06,437.91l1.47,7a32.15,32.15,0,0,1-3.48,5.27c-2.21,2.75-11.29,4.65-11.29,4.65v-9.5l13.3-7.38-1.27-6.12s-3.8-19-3.59-19.63,2.75-15.4,3.38-24.05-1.48-26.8-1.48-31.65,5.91-11.4,6.58-12.66-1.09-16.25,0-17.94,3.34-14.35,2.83-17.09a23,23,0,0,0-2.44-8c-1.9-3.8,3.79-4.43,4.22-7.6s-1.06-8.65-2.75-16.24,3.8-28.7,3.8-28.7-2.32,21.62,2.53,28.32"></path><path class="cls-1 sRHAvJkN_39" d="M243.53,474.2c0-.85,17.54-11,26-9.29.75.15-1.47,11.47-1.47,11.47l-5.23.69a3.21,3.21,0,0,0-2.06,2.51c-.15,2.68-.23,5-.23,5-2.32,0-14.64,4.43-14.22,3.37s3.17-2.74,3.38-3.58,7.38-5.49,7.6-6.12,13.08-2.11,13.08-2.11,4.43-.42,11.6,2.74,3.59,2.74,3.59,2.74c-4-7.38-.42-30.17-1.48-37.34s-1.26-29.33-1.26-30,2.53-23,2.53-23.63-2.53-24.9-2.53-24.9-3.48-25.32-2.75-25.85,4.54-2.95,5-3.8-1.79-11.81-1.79-11.81,7.28-53.28,7.49-53.81.74-17.62.74-17.62l4.37-10"></path><path class="cls-1 sRHAvJkN_40" d="M287.24,492.13c-.42-.42-1.62,1.48-5.63,1.69s-9.29.72-11.93.35c-1.11-.15-7.87-2-7.87-2a14.19,14.19,0,0,0,2.08,2.25c.66.42,1.51,1.34,5.79,1.55s12.22-.09,13.62-.56A6.07,6.07,0,0,0,287.24,492.13Z"></path><path class="cls-1 sRHAvJkN_41" d="M287.24,492.13l-1.48-7.59s-3.72,4.78-9.2,4.57-11.05-1-12.95-3.31-2.86-2.68-2.86-2.68l.61,8.7"></path><path class="cls-1 sRHAvJkN_42" d="M203.39,451.41c-.76,1.9-1,7-1,7s6.76,5.91,8,6.33,7.39,3.38,9.71,2.11,6.12-5.48,6.12-5.48v-9.78"></path><path class="cls-1 sRHAvJkN_43" d="M284.98,480.28L285.76,484.54"></path><path class="cls-1 sRHAvJkN_44" d="M269.51,464.91s12.78.84,14.09,3.8"></path><path class="cls-1 sRHAvJkN_45" d="M188.72,265.92s4.83,21.75,5,25.55-.84,25.74-.84,25.74S187.22,340,189.75,347s1.51,44.1,1.51,44.1,1.45,26.38,1.66,27.22,3.59,3.38,3.59,6.12S198,440,198,440"></path><path class="cls-1 sRHAvJkN_46" d="M205.79,379.67s-6.54,21.73-2.32,27.85,7.6,15.83,7.81,16.88,1,11.82,1.24,13.29-.71,7.13-.71,7.13"></path><path class="cls-1 sRHAvJkN_47" d="M208.53,377.77s8.23,21.1,10.76,27.22,4.86,17.51,4.86,17.51.21,3.59-.85,2.32a158,158,0,0,1-9-13.5c-1.38-2.74-5.17-12.24-5.81-15.19S208.53,377.77,208.53,377.77Z"></path><path class="cls-1 sRHAvJkN_48" d="M191.38,365.54c2.59-4.23,6.18-9.51,6.6-.85s3.17,20.67,3.17,20.67l-1.9,7.81"></path><path class="cls-1 sRHAvJkN_49" d="M208.25,350.13c.28.63,7.73,13.69,13.58,14.56l5.85.86"></path><path class="cls-1 sRHAvJkN_50" d="M222.67,315.73c.63,1.69,4.79,15.38,10.84,19"></path><path class="cls-1 sRHAvJkN_51" d="M281.12,234.3a70.72,70.72,0,0,1-17.72,5h-9.92"></path><path class="cls-1 sRHAvJkN_52" d="M289.77,245.28s-9.07,3.77-12.45,2.93a47.66,47.66,0,0,1-7.64-2.93"></path><path class="cls-1 sRHAvJkN_53" d="M204.74,249.05c1.89.64,11,3.17,13.5,2.75s6.54-1.35,6.54-1.35"></path><path class="cls-1 sRHAvJkN_54" d="M163,270.8s-2.55,6.61-2.55,8.43,1.64,5.9,1.64,6.22-.62,2.58-.33,3.27c.5,1.17,2.25,2.93,3.12,0a15.1,15.1,0,0,0,0-6.22"></path><path class="cls-1 sRHAvJkN_55" d="M179.24,271.51c.37.07,2.42,6.87,1.43,9.29s-.28,5.29,0,6.66.15,3-.77,3.3c-.71.22-2.67-1.19-3.2-2.46a18.53,18.53,0,0,1-.95-4.75,9.3,9.3,0,0,1,.26-3.95"></path><path class="cls-1 sRHAvJkN_56" d="M164.15,290.1c.55-.13,4.5,1.79,6.51.84s4.36-1.54,4.64-1.8a7.45,7.45,0,0,0,1-2.06"></path><path class="cls-1 sRHAvJkN_57" d="M169.62,282s.61,8.74-.86,9.22"></path><path class="cls-1 sRHAvJkN_58" d="M172.66,281.47s1.41,8.15.61,8.43"></path><path class="cls-1 sRHAvJkN_59" d="M160.42,280.56c-3.58,1.76-3.36,5.88-3.61,7.93-.71,5.84-.26,29.05-.26,29.05l1.17-.15,3.79-.16,2.9,14.71,3.47,2.38-5.41,17.9a160.46,160.46,0,0,1,1.58,27.31c-.41,15.22.57,28.49.15,36.64a82.8,82.8,0,0,1-1.52,10.91l-7.84-.83s3.13,22.46,4.53,24.53h2.43l.88-23.7"></path><path class="cls-1 sRHAvJkN_60" d="M182.46,296.79c2.53-.55,4.76-13.2-1.58-16.84"></path><path class="cls-1 sRHAvJkN_61" d="M180.47,285.69c1.23,1.06,1.07,7.22-.26,8-2.17,1.32,2.51,3.07,2.51,3.07"></path><path class="cls-1 sRHAvJkN_62" d="M161.51,317.23l.06-4.18s-.42-5.44-.42-8.51-.31-7.5-.18-10.65c.07-1.57-.33-7.43,1-7.8"></path><path class="cls-1 sRHAvJkN_63" d="M156.55,317.54L151.86,329.56L148,332.65L152.72,350.89L162.47,352.22"></path><path class="cls-1 sRHAvJkN_64" d="M152.72,350.89s-1.39,24.28-1.26,28.18.62,20.93,1.24,23.81,2.14,23.37,2.14,23.37"></path><path class="cls-1 sRHAvJkN_65" d="M163.38,335.5L161.11,349.14L160.93,334.87"></path><style data-made-with="vivus-instant">.sRHAvJkN_0{stroke-dasharray:272 274;stroke-dashoffset:273;animation:sRHAvJkN_draw 2000ms linear 0ms forwards;}.sRHAvJkN_1{stroke-dasharray:6 8;stroke-dashoffset:7;animation:sRHAvJkN_draw 2000ms linear 15ms forwards;}.sRHAvJkN_2{stroke-dasharray:8 10;stroke-dashoffset:9;animation:sRHAvJkN_draw 2000ms linear 30ms forwards;}.sRHAvJkN_3{stroke-dasharray:74 76;stroke-dashoffset:75;animation:sRHAvJkN_draw 2000ms linear 46ms forwards;}.sRHAvJkN_4{stroke-dasharray:9 11;stroke-dashoffset:10;animation:sRHAvJkN_draw 2000ms linear 61ms forwards;}.sRHAvJkN_5{stroke-dasharray:8 10;stroke-dashoffset:9;animation:sRHAvJkN_draw 2000ms linear 76ms forwards;}.sRHAvJkN_6{stroke-dasharray:11 13;stroke-dashoffset:12;animation:sRHAvJkN_draw 2000ms linear 92ms forwards;}.sRHAvJkN_7{stroke-dasharray:9 11;stroke-dashoffset:10;animation:sRHAvJkN_draw 2000ms linear 107ms forwards;}.sRHAvJkN_8{stroke-dasharray:15 17;stroke-dashoffset:16;animation:sRHAvJkN_draw 2000ms linear 123ms forwards;}.sRHAvJkN_9{stroke-dasharray:13 15;stroke-dashoffset:14;animation:sRHAvJkN_draw 2000ms linear 138ms forwards;}.sRHAvJkN_10{stroke-dasharray:18 20;stroke-dashoffset:19;animation:sRHAvJkN_draw 2000ms linear 153ms forwards;}.sRHAvJkN_11{stroke-dasharray:19 21;stroke-dashoffset:20;animation:sRHAvJkN_draw 2000ms linear 169ms forwards;}.sRHAvJkN_12{stroke-dasharray:20 22;stroke-dashoffset:21;animation:sRHAvJkN_draw 2000ms linear 184ms forwards;}.sRHAvJkN_13{stroke-dasharray:20 22;stroke-dashoffset:21;animation:sRHAvJkN_draw 2000ms linear 200ms forwards;}.sRHAvJkN_14{stroke-dasharray:441 443;stroke-dashoffset:442;animation:sRHAvJkN_draw 2000ms linear 215ms forwards;}.sRHAvJkN_15{stroke-dasharray:24 26;stroke-dashoffset:25;animation:sRHAvJkN_draw 2000ms linear 230ms forwards;}.sRHAvJkN_16{stroke-dasharray:188 190;stroke-dashoffset:189;animation:sRHAvJkN_draw 2000ms linear 246ms forwards;}.sRHAvJkN_17{stroke-dasharray:234 236;stroke-dashoffset:235;animation:sRHAvJkN_draw 2000ms linear 261ms forwards;}.sRHAvJkN_18{stroke-dasharray:46 48;stroke-dashoffset:47;animation:sRHAvJkN_draw 2000ms linear 276ms forwards;}.sRHAvJkN_19{stroke-dasharray:74 76;stroke-dashoffset:75;animation:sRHAvJkN_draw 2000ms linear 292ms forwards;}.sRHAvJkN_20{stroke-dasharray:5 7;stroke-dashoffset:6;animation:sRHAvJkN_draw 2000ms linear 307ms forwards;}.sRHAvJkN_21{stroke-dasharray:275 277;stroke-dashoffset:276;animation:sRHAvJkN_draw 2000ms linear 323ms forwards;}.sRHAvJkN_22{stroke-dasharray:52 54;stroke-dashoffset:53;animation:sRHAvJkN_draw 2000ms linear 338ms forwards;}.sRHAvJkN_23{stroke-dasharray:24 26;stroke-dashoffset:25;animation:sRHAvJkN_draw 2000ms linear 353ms forwards;}.sRHAvJkN_24{stroke-dasharray:153 155;stroke-dashoffset:154;animation:sRHAvJkN_draw 2000ms linear 369ms forwards;}.sRHAvJkN_25{stroke-dasharray:228 230;stroke-dashoffset:229;animation:sRHAvJkN_draw 2000ms linear 384ms forwards;}.sRHAvJkN_26{stroke-dasharray:9 11;stroke-dashoffset:10;animation:sRHAvJkN_draw 2000ms linear 400ms forwards;}.sRHAvJkN_27{stroke-dasharray:110 112;stroke-dashoffset:111;animation:sRHAvJkN_draw 2000ms linear 415ms forwards;}.sRHAvJkN_28{stroke-dasharray:129 131;stroke-dashoffset:130;animation:sRHAvJkN_draw 2000ms linear 430ms forwards;}.sRHAvJkN_29{stroke-dasharray:331 333;stroke-dashoffset:332;animation:sRHAvJkN_draw 2000ms linear 446ms forwards;}.sRHAvJkN_30{stroke-dasharray:47 49;stroke-dashoffset:48;animation:sRHAvJkN_draw 2000ms linear 461ms forwards;}.sRHAvJkN_31{stroke-dasharray:225 227;stroke-dashoffset:226;animation:sRHAvJkN_draw 2000ms linear 476ms forwards;}.sRHAvJkN_32{stroke-dasharray:29 31;stroke-dashoffset:30;animation:sRHAvJkN_draw 2000ms linear 492ms forwards;}.sRHAvJkN_33{stroke-dasharray:18 20;stroke-dashoffset:19;animation:sRHAvJkN_draw 2000ms linear 507ms forwards;}.sRHAvJkN_34{stroke-dasharray:12 14;stroke-dashoffset:13;animation:sRHAvJkN_draw 2000ms linear 523ms forwards;}.sRHAvJkN_35{stroke-dasharray:18 20;stroke-dashoffset:19;animation:sRHAvJkN_draw 2000ms linear 538ms forwards;}.sRHAvJkN_36{stroke-dasharray:29 31;stroke-dashoffset:30;animation:sRHAvJkN_draw 2000ms linear 553ms forwards;}.sRHAvJkN_37{stroke-dasharray:48 50;stroke-dashoffset:49;animation:sRHAvJkN_draw 2000ms linear 569ms forwards;}.sRHAvJkN_38{stroke-dasharray:276 278;stroke-dashoffset:277;animation:sRHAvJkN_draw 2000ms linear 584ms forwards;}.sRHAvJkN_39{stroke-dasharray:359 361;stroke-dashoffset:360;animation:sRHAvJkN_draw 2000ms linear 600ms forwards;}.sRHAvJkN_40{stroke-dasharray:55 57;stroke-dashoffset:56;animation:sRHAvJkN_draw 2000ms linear 615ms forwards;}.sRHAvJkN_41{stroke-dasharray:45 47;stroke-dashoffset:46;animation:sRHAvJkN_draw 2000ms linear 630ms forwards;}.sRHAvJkN_42{stroke-dasharray:46 48;stroke-dashoffset:47;animation:sRHAvJkN_draw 2000ms linear 646ms forwards;}.sRHAvJkN_43{stroke-dasharray:5 7;stroke-dashoffset:6;animation:sRHAvJkN_draw 2000ms linear 661ms forwards;}.sRHAvJkN_44{stroke-dasharray:15 17;stroke-dashoffset:16;animation:sRHAvJkN_draw 2000ms linear 676ms forwards;}.sRHAvJkN_45{stroke-dasharray:177 179;stroke-dashoffset:178;animation:sRHAvJkN_draw 2000ms linear 692ms forwards;}.sRHAvJkN_46{stroke-dasharray:68 70;stroke-dashoffset:69;animation:sRHAvJkN_draw 2000ms linear 707ms forwards;}.sRHAvJkN_47{stroke-dasharray:102 104;stroke-dashoffset:103;animation:sRHAvJkN_draw 2000ms linear 723ms forwards;}.sRHAvJkN_48{stroke-dasharray:42 44;stroke-dashoffset:43;animation:sRHAvJkN_draw 2000ms linear 738ms forwards;}.sRHAvJkN_49{stroke-dasharray:27 29;stroke-dashoffset:28;animation:sRHAvJkN_draw 2000ms linear 753ms forwards;}.sRHAvJkN_50{stroke-dasharray:23 25;stroke-dashoffset:24;animation:sRHAvJkN_draw 2000ms linear 769ms forwards;}.sRHAvJkN_51{stroke-dasharray:29 31;stroke-dashoffset:30;animation:sRHAvJkN_draw 2000ms linear 784ms forwards;}.sRHAvJkN_52{stroke-dasharray:22 24;stroke-dashoffset:23;animation:sRHAvJkN_draw 2000ms linear 800ms forwards;}.sRHAvJkN_53{stroke-dasharray:21 23;stroke-dashoffset:22;animation:sRHAvJkN_draw 2000ms linear 815ms forwards;}.sRHAvJkN_54{stroke-dasharray:30 32;stroke-dashoffset:31;animation:sRHAvJkN_draw 2000ms linear 830ms forwards;}.sRHAvJkN_55{stroke-dasharray:34 36;stroke-dashoffset:35;animation:sRHAvJkN_draw 2000ms linear 846ms forwards;}.sRHAvJkN_56{stroke-dasharray:14 16;stroke-dashoffset:15;animation:sRHAvJkN_draw 2000ms linear 861ms forwards;}.sRHAvJkN_57{stroke-dasharray:10 12;stroke-dashoffset:11;animation:sRHAvJkN_draw 2000ms linear 876ms forwards;}.sRHAvJkN_58{stroke-dasharray:9 11;stroke-dashoffset:10;animation:sRHAvJkN_draw 2000ms linear 892ms forwards;}.sRHAvJkN_59{stroke-dasharray:216 218;stroke-dashoffset:217;animation:sRHAvJkN_draw 2000ms linear 907ms forwards;}.sRHAvJkN_60{stroke-dasharray:19 21;stroke-dashoffset:20;animation:sRHAvJkN_draw 2000ms linear 923ms forwards;}.sRHAvJkN_61{stroke-dasharray:14 16;stroke-dashoffset:15;animation:sRHAvJkN_draw 2000ms linear 938ms forwards;}.sRHAvJkN_62{stroke-dasharray:32 34;stroke-dashoffset:33;animation:sRHAvJkN_draw 2000ms linear 953ms forwards;}.sRHAvJkN_63{stroke-dasharray:47 49;stroke-dashoffset:48;animation:sRHAvJkN_draw 2000ms linear 969ms forwards;}.sRHAvJkN_64{stroke-dasharray:76 78;stroke-dashoffset:77;animation:sRHAvJkN_draw 2000ms linear 984ms forwards;}.sRHAvJkN_65{stroke-dasharray:29 31;stroke-dashoffset:30;animation:sRHAvJkN_draw 2000ms linear 1000ms forwards;}@keyframes sRHAvJkN_draw{100%{stroke-dashoffset:0;}}@keyframes sRHAvJkN_fade{0%{stroke-opacity:1;}94.44444444444444%{stroke-opacity:1;}100%{stroke-opacity:0;}}</style></svg>