<svg id="Layer_1" data-name="Layer 1" xmlns="http://www.w3.org/2000/svg" viewBox="0 0 500 500" style=""><defs><style>.cls-1{fill:none;stroke:#1d1d1b;stroke-miterlimit:10;}</style></defs><path class="cls-1 xaPTeCZk_0" d="M251.91,79.91c-.64-.32.14,3.77.14,5s-1.44,6.54-1.66,7.64-3.33,2.33-4.88,2.55-11.86-1.33-11.86-1.33,0,2.88-.22,6.43-1.44,7.2-3,7.42-14.85.89-20.17-.55-14.85-10.38-18.1-13.93-2.95-6.2-2.95-6.2,6.5-2.37,12.41-5.32,3.84-11.23-2.37-31.32,3.85-31,3.55-33.69,5.91-5,5.91-6.21,5.58-.87,5.87-2.95,9-2.33,9-2.33,6.82-.35,7-.24c0,0,9.2-1.94,11.64,0s6.76,4.91,8,6.69a10.89,10.89,0,0,0,3.43,3.65c1.11.56.67-1,3.44,1.44a17.53,17.53,0,0,1,4.54,5.55c.33.88,8.42,4.1,8,6.42s.89,1.89.89,1.89,2.21,7,.44,7.31-5.54-1-5.76-.11.22,5.65-3.22,5.65-2.55,1.88-2.55,1.88l.56,4.88s2,.44,2,1.55-1.66,3-2.32,3-1.34,3.82-3.11,4c0,0-1.38,1.36-.18,4.16,3.47,8.13,2.3,7.54,2.12,8.13-.36,1.18-2.77,1.63-3.77,1.52S253.24,80.57,251.91,79.91Z"></path><path class="cls-1 xaPTeCZk_1" d="M241.52,79.39s.22,4.29,4.29,5a5.22,5.22,0,0,0,5.69-2.52s.66-.51-.74-1.32-2.44-.15-3.77,0-1.48.29-2.36-.08S242.19,78.51,241.52,79.39Z"></path><path class="cls-1 xaPTeCZk_2" d="M242.85,79.13s2.88-1.73,4.07-1.07a2.89,2.89,0,0,0,2,.46s2.09-.87,2.74,0-.15,3.38-.15,3.38"></path><path class="cls-1 xaPTeCZk_3" d="M248.84,52.65s-6.65-2.66-9.31-2.88-7.09,1.44-7.09,1.44"></path><path class="cls-1 xaPTeCZk_4" d="M245.07,56a5.08,5.08,0,0,0-3.55-2c-2.07,0-5.32,1.64-6.2,2"></path><path class="cls-1 xaPTeCZk_5" d="M255.71,54s4.43-3,6.2-2.33"></path><path class="cls-1 xaPTeCZk_6" d="M239.61,54.3s-.16,1.75.58,2.34.54.7,1.61.79c.61.06,1.31-.7,1.94-1.45l.62-.75"></path><path class="cls-1 xaPTeCZk_7" d="M245.88,69.55s-1.36,1.18.71,2.22,1.55,1,2.95,1h4.51l1.69-.25"></path><path class="cls-1 xaPTeCZk_8" d="M218.18,56s1.18,13.81,4.13,16.76,6.51,7.69,9.16,9.16,3.85,1.33,3.85,1.33a6.56,6.56,0,0,1,1.18,3.26c0,1.62.44,3.1,1.92,3.25s3.1.73,4.43.59,2.15.19,3.74,0a2.45,2.45,0,0,0,2.25-1.5A29.24,29.24,0,0,1,251.91,86"></path><path class="cls-1 xaPTeCZk_9" d="M233.65,93.76s-7.64-2.69-9.71-3.36-5.76-4.65-7.24-5.87-2.81-4.62-2.81-4.62l1-20.32s2.74-2.84,3.25-3.61l1.33-2s.88-10.93,3.25-12.26,4.23-1.15,4.87-3.11.47-5.57,1.2-6.06a5.66,5.66,0,0,0,2.2,1c2.66,0,4-.74,4.88-1.77s2.21-2.07,2.66-1.19-2.07,2.37,0,4.44,3.91,3,5.79,2.66,4.25.14,5.88-.89,2.07-.89,4.8-1.48,3,.15,3,1a1.22,1.22,0,0,0,1.77,1.18c1-.44,2.66-1.77,3-.74a3.26,3.26,0,0,1-.89,2.95c-.74.89-3.1,3-3.1,3s-2,1.54,1.2.92"></path><path class="cls-1 xaPTeCZk_10" d="M214.74,59.1S211.16,54.3,212,52c.46-1.28-1.77-7.35-5-7.05s-4.14,1-5.32,2.51S200,52.65,200,52.65"></path><path class="cls-1 xaPTeCZk_11" d="M204.73,49.75c-.74.54-2.81,1.27-2.21,2.9s1,4,2.21,4.2,3.1-.24,3.84,0,1.19.23,1.19,1.27-2.77,1.47-3.68,1.62-3.4,2-3.12,3,.78,3.91,3.12,4.79,3.23,1,3.68.74A8.79,8.79,0,0,0,211.82,66a13,13,0,0,1,2.92-2.65"></path><path class="cls-1 xaPTeCZk_12" d="M206.94,65.1A1.37,1.37 0,1,1 209.68,65.1A1.37,1.37 0,1,1 206.94,65.1"></path><path class="cls-1 xaPTeCZk_13" d="M161.88,111c.74.59.74-.59,3.84,4s3.4,8.57,1.48,12.27-4.43,4-3.84,7.09,2.39,2.51,1.78,4.87-3.85,2.07-1.93,4.88,3.7,2.81,4.14,4.73,3.89,2.95,1.06,5-7.71,5.32-8.3,6.06-4.58,1-4.58,1"></path><path class="cls-1 xaPTeCZk_14" d="M169.51,101.26a13.09,13.09,0,0,1,6.41,5.47,47.5,47.5,0,0,1,3.55,8.57s.14,4.43.14,7.09A32.77,32.77,0,0,0,181.24,133c1.33,3.54-1.63,7.39-3.7,11.23s-2.21,4.28-.73,7.39-.45,4.72-3.4,8-3.55,4.44-3.55,5.47,1.77,13.3-.15,18.17-.14,3,.45,4.14-.45,5.91-1.33,7.39-2.07,4-3.55,7.09.3.89,2.22,1.63.74.59.88,3.1-.29,2.51,2.22,3.84,4.73,4.88,5.32,5.17,12.41,4.88,12.41,4.88,9.31,4.43,9.75,4.73,11.53,3.84,12.56,4.58.3,1.77,2.22,2.8,4,.74,8,3.7a32.32,32.32,0,0,1,5.32,4.58l8,2.81a36.41,36.41,0,0,1-3.84,3.1c-1.77,1.18-3.84,4.58-6.35,8.86s-1.18,7.69-1.18,7.69l-3.7-1.78s-17-7.83-22.16-8.27-16.4-1.48-16.4-1.48-16.25-7.53-16.84-7.68-22.61-11.38-27.78-16.55-4.73-13.74-5.17-21.57,3.39-33.1,3.39-33.1A281.33,281.33,0,0,0,143,137.76c3.25-18.33,8.27-28.52,13.45-34.87s32.8-16,32.8-16"></path><path class="cls-1 xaPTeCZk_15" d="M161.88,164.94s-3.84,1.33-1.62,2.66.88-1.18,2.21,1.33,3.25,3.55,1.63,4.73-4.48.89-4.53,2,1.43,5.83-1.38,5.39"></path><path class="cls-1 xaPTeCZk_16" d="M148.14,186.37c.74,1.62,1.33,3.4,4.29,3.54s4.43-.88,7.38,0,5.83.45,4.91,2.52.27,2.51-4.32,4.13-5,2.81-7.83,3.4-5.32,1.33-5.32,1.33"></path><path class="cls-1 xaPTeCZk_17" d="M135.73,202.33c1.33-.89.3-3.55,5.61-5.32s12.86-3.55,14.19-3.18"></path><path class="cls-1 xaPTeCZk_18" d="M135.73,214.15s.59-3.85,3.1-5.47a42.53,42.53,0,0,1,11.38-4.88"></path><path class="cls-1 xaPTeCZk_19" d="M157.45,206.17c.44,0,3-3.84,3.25,0s-1.83,5,1.82,5.76,9,.89,9.26,3.84-2.81,2.51,0,4.43a15.17,15.17,0,0,0,6.65,3c3.4.89,4.88-.3,7.83,3.1s4.14,7,6.21,6.21,2.81-2.37,5.61-2.51,5.17,1.77,7.39,1.77,2.22.88,4.14,2.21a18.35,18.35,0,0,1,3.69,3.85"></path><path class="cls-1 xaPTeCZk_20" d="M232.68,245a12.9,12.9,0,0,0,4.41,2.42c2.95,1,5.32,0,7.39,0s13,.46,13,.46a46.4,46.4,0,0,1,5.76,3.83c2.81,2.21,5.17,5.17,7.09,6.35s4.14,3.4,4.29,4,.74,4.43.89,5.32-1.33,4.28-1.33,4.28-2.07,1.78-3,1.48-.74-2.36-1.18-4a14,14,0,0,0-2.37-4.58c-.44-.3-3.39-1.63-4.28-2.81s-3.1-4-3.1-4"></path><path class="cls-1 xaPTeCZk_21" d="M222.43,261.69s5.06,3.28,7.57,4.76,5.91,4,8,4.58,2.51-1,3.84,0,3.54,4.43,4.43,5.32,4.88,3.4,5.76,4.43,1.07,2.37,2.09,2.37,2,.5,2.64-.74a4,4,0,0,0-.59-4.43,18.14,18.14,0,0,0-3.69-3.85c-1.78-1.33-3.85-3.1-3.85-3.1"></path><path class="cls-1 xaPTeCZk_22" d="M256.15,265.56c.44.3,6,6.91,6,6.91s2.4,3.58,2.55,4a21.13,21.13,0,0,1,0,3.1c0,.89-2.22,5.62-5.17,3s-2.74-3.74-2.74-3.74"></path><path class="cls-1 xaPTeCZk_23" d="M271.22,273.1s.3,3.4-1.62,4.43-4.2,2.29-4.81,0"></path><path class="cls-1 xaPTeCZk_24" d="M188,92.54c.29.59,19.35,26.6,27.48,33.1"></path><path class="cls-1 xaPTeCZk_25" d="M192.76,93.76s14.48,23.61,26.3,29.81c0,0,12.88-9.79,13.91-20.19"></path><path class="cls-1 xaPTeCZk_26" d="M236.94,101.85s-2.66,14.33-14,24.68"></path><path class="cls-1 xaPTeCZk_27" d="M233.61,96.23s8,3,10.31,4.59,10.31,6.5,11.93,8.27a38.74,38.74,0,0,1,4.73,7.24c.3.89,2.51,6.5,3,7.24a22.29,22.29,0,0,1,2.21,5.76c.3,1.93,1,8,1.19,9.61s4.28,15.36,5,17.43,2.81,11.82,3,12.41,6.21,16,6.21,16h2.22c.74,0,4.43-2.07,5.61-2.36s14.33-4,14.33-4-5.46.59-8,7.09-2.66,9.16-1.78,10.2,3.7,4,3.7,4-3.7,4.58-12.12,6.79-18.91,1.78-18.91,1.78l-5.77-.6s-3.54-1.92-3.25-4.43-1.62-4.14-1.33-6.5a8.66,8.66,0,0,0-2.36-6.35c-1.33-1.48-4.58-3.84-5.47-5.62s-.44-6.94-.29-8.12,3.1-20.07,2.36-24.37-.15-12-.15-12"></path><path class="cls-1 xaPTeCZk_28" d="M257.48,130.07a10.17,10.17,0,0,1-3.25,9.31c-4.45,4-4.47,4.74-4.47,4.74"></path><path class="cls-1 xaPTeCZk_29" d="M262.89,151.2s-5.71,1.48-9.2,2.51-3.72,5-3.72,5"></path><path class="cls-1 xaPTeCZk_30" d="M266.49,167.75c-3.54-3.69-4.87-5.17-8.86-6.94a13,13,0,0,0-7.87-.74"></path><path class="cls-1 xaPTeCZk_31" d="M264.57,175.66c-.44.22-4.16-2.74-8.14-4.22a21.23,21.23,0,0,0-7.79-1.23"></path><path class="cls-1 xaPTeCZk_32" d="M267.82,185.63s-5.61.15-8.42,0-8.21-2.22-9.64-2.66a11.26,11.26,0,0,1-3.07-1.77"></path><path class="cls-1 xaPTeCZk_33" d="M269.3,190.06c-.44.44-13,10.2-11.67,15"></path><path class="cls-1 xaPTeCZk_34" d="M269.3,194.05c-1.63,3.1-6.75,4-5.89,7.09"></path><path class="cls-1 xaPTeCZk_35" d="M275.8,192.72c-.59.74-5,3.4-4.87,6.5"></path><path class="cls-1 xaPTeCZk_36" d="M283.93,187s-5.47,4.73-5.62,7.09-1.47,9.31-1.47,9.31"></path><path class="cls-1 xaPTeCZk_37" d="M287.47,190.06s-1.77,6-1,7.5,3.55,3.58,3.55,3.58"></path><path class="cls-1 xaPTeCZk_38" d="M247.57,182.78s-3.09,10.09-3.39,12.38.45,13.52-2.07,14.11-1.77,10.64-1.77,10.64a11.63,11.63,0,0,0-6.21,3.54,40.06,40.06,0,0,0-5.3,7.54l-1.62,10.27"></path><path class="cls-1 xaPTeCZk_39" d="M222.91,147.21s-4,28.74-9.61,35.57a125.93,125.93,0,0,1-10.05,11"></path><path class="cls-1 xaPTeCZk_40" d="M222.91,163.76s-3.4,30,1.18,36.35"></path><path class="cls-1 xaPTeCZk_41" d="M181.53,167.75c2.37,1.63,5.18.62,2.81,5.26s-4,6.34-2.81,9.77,1.92,7.28,3.85,8.76,8.57,3,7.83,7.68-2.81,12.41-2.66,13.45,3.84,1.48,3.84,1.48"></path><path class="cls-1 xaPTeCZk_42" d="M230.44,215.62c-.44.3-3.84,2.43-4.73,5.5s-.8,7.36-4,6.32-6.17-1.33-8.39-1.92-6.06.3-6.06.3"></path><path class="cls-1 xaPTeCZk_43" d="M140.63,231.24s0,9.94-1.95,12.6-2.65,8-3,10.64,1.65,5.62,2.45,8.13-.24,6.8,0,8.72-.17,8.57,2.46,11.37,9.58,7.83,9.58,7.83l1.39-2.19s-1-.73-2.57-4.16-.74-18.62-.74-18.62,1-.14,4.58-3.25,3.55-4.87,5.76-7.83,6.5-3.4,7.83-4,7-1.91,7-1.91"></path><path class="cls-1 xaPTeCZk_44" d="M160.55,245a27.57,27.57,0,0,1-6,7c-3.35,2.51-2.9,1.33-6.6,6.35s-3.54,7.24-3.54,7.24"></path><path class="cls-1 xaPTeCZk_45" d="M152.5,246.06s-1.4,2.51-3.32,3-6.8,3-7.1,6.25"></path><path class="cls-1 xaPTeCZk_46" d="M152.5,240.45s-6.87,1.77-8.79,3.25-4.88,6.25-4.88,7"></path><path class="cls-1 xaPTeCZk_47" d="M230.44,228.28L261.32,236.46"></path><path class="cls-1 xaPTeCZk_48" d="M303.28,181.93c-.14.15-4.13,2.81-3.39,5s1.33,5.17,3.39,7.09,3,6.35,3,7.09-1.48,4-3,3.92-2.54-.81-3.49-2.88a4.42,4.42,0,0,0-2.56-2.51"></path><path class="cls-1 xaPTeCZk_49" d="M303.28,181.2c1.48.88,3.11,2.79,3,4.49s2.66,4.52,2.51,7,.31,8.28,0,9.9.29,5,2.5,4.73,3.55-3.55,3.7-6.21.74-6.57.74-7.64-.6-6.54-.6-6.54"></path><path class="cls-1 xaPTeCZk_50" d="M322.05,185.69s1,6.61,1,8.59-2.95,9.08-2.95,9.08-2.51,4.21-2.51,4.91-.15,4.14-1.92,3.75-3,.2-3.11-1.57a26.54,26.54,0,0,1,0-3.7"></path><path class="cls-1 xaPTeCZk_51" d="M327.52,192.72c.73,3.55-1.33,8.42-1.33,8.42l-4.44,5.62s.36,4.16-.92,4.86c-.91.49-3.93-.12-3.93-.12"></path><path class="cls-1 xaPTeCZk_52" d="M303.28,178.39H316.9l7.54,3.54s7.06,5.77,8.39,9c0,0,1.19,8.57,0,9.16s-3.67,4-5.16,4.35-3.23-1.1-3.23-1.1"></path><path class="cls-1 xaPTeCZk_53" d="M308.75,196s-2.58-2.95-3.73.74"></path><path class="cls-1 xaPTeCZk_54" d="M270.92,208.27s-11.22,8.9-11.37,12.85-2.59,11.79,6.76,18.29,21.62,15.66,46.22,18.32,55.91,3.82,70.1,1.32a142.88,142.88,0,0,0,24.73-6.64"></path><path class="cls-1 xaPTeCZk_55" d="M261.32,235.13c0,1.33-.88,4.72,2,9.16S276.69,260,282.15,262s25.42,9.9,37.39,11.08,42,1.92,42,1.92l26.6-1.92s13.12-3.84,19.26-8.57"></path><path class="cls-1 xaPTeCZk_56" d="M261.86,283.28s14.05,6.63,24.28,11.41,21,10,23.05,11.51c4.14,3.1,9,6.35,11.09,15.51S315,357.47,315,357.47s-4,28.66-4.73,41.81-1.77,23.64-1.18,27.48,4.43,31.77,5.32,33.25-11.23,6.21-20.25,5.17-19.8-7.83-19.8-7.83a408.28,408.28,0,0,0-.88-52.31c-2.37-26.44-4.14-30.88-3.25-40.78s5-23.93,5-23.93-35.74-11.23-46.38-16-31.34-11.82-31.34-11.82-22.9-8.13-30-12.56a191.16,191.16,0,0,1-16.11-11.82"></path><path class="cls-1 xaPTeCZk_57" d="M284.76,294.05c6.6,2,44.09,7.12,44.09,7.12s-7,24.09-8.21,39.16-3.17,58.07-3.17,58.07l-.3,24.08s28.63,8.94,28.33.23.34-40.42.34-40.42V340.92"></path><path class="cls-1 xaPTeCZk_58" d="M341.85,275v61.76s2.51,7.24,9.6,7a12.7,12.7,0,0,0,7.29-2.74,15.28,15.28,0,0,0,3.5-3.76V275"></path><path class="cls-1 xaPTeCZk_59" d="M277,458.89S275.5,473,277,473.6s11.23,3.4,13.74,3,6.65,2.51,7.69,3.25A73.46,73.46,0,0,0,309.34,484c1.63.29,15.07.73,15.52.73S346,482,348.2,480.1s3.55-4.58,2.81-5.91-5.47-4-8.57-4.13-6.21-.45-6.21-.45-7.09-1.47-8.12-2.21-8.28,5.76-8.28,5.76-2.36-5.47-.29-6.65a10.48,10.48,0,0,1,4.58-1.18s-9.62-1.78-10.35,0,.1-2.51,1.53-3"></path><path class="cls-1 xaPTeCZk_60" d="M345.84,444.43L345.84,417.9L359.13,417.9L358.74,340.99"></path><path class="cls-1 xaPTeCZk_61" d="M359.14,417.9v35.31s-1.33,3.25-6.65,3.4-6.65-2.66-6.65-2.66v-9.52"></path><path class="cls-1 xaPTeCZk_62" d="M276.32,473s-1.11,9.31,0,9.61a74.79,74.79,0,0,0,9.09,1.18c1.77,0,5.61-.45,7.53.88A98.5,98.5,0,0,0,303.73,491c2.21.88,11.52,3.1,14.77,2.95s15.37-1,17.88-1.62,12-3.25,13.3-3.84a5.83,5.83,0,0,0,2.22-2.07v-12"></path><path class="cls-1 xaPTeCZk_63" d="M277,477.44s3.85,2.07,6.36,2.07a72.31,72.31,0,0,1,9.75,1,50.13,50.13,0,0,1,7.83,4.13c1.18.89,4.58,3.26,12,4a54.08,54.08,0,0,0,12.26,0"></path><path class="cls-1 xaPTeCZk_64" d="M336.23,469.61s-11.7,3.78-12.57,15"></path><path class="cls-1 xaPTeCZk_65" d="M358.58,447c4,.17,8.15.3,8.4.3.44,0,21.13-2.66,23.34-4.58s3.55-4.58,2.81-5.91-5.47-4-8.57-4.14-6.21-.44-6.21-.44-7.09-1.48-8.12-2.22-8.28,5.77-8.28,5.77-2.36-5.47-.29-6.65a10.57,10.57,0,0,1,4.58-1.19l-7.1-.93"></path><path class="cls-1 xaPTeCZk_66" d="M319,422.71s-1.36,12.92.12,13.51,11.23,3.4,13.75,2.95,6.64,2.52,7.68,3.26a25.12,25.12,0,0,0,5.31,2.62"></path><path class="cls-1 xaPTeCZk_67" d="M318.44,435.63s-1.11,9.31,0,9.6a72.86,72.86,0,0,0,9.09,1.18c1.77,0,5.61-.44,7.53.89S345.5,452,345.5,452c.74,5.83,10.64,6,14,1.31,0,0,16.64.95,19.21.76,5.81-.43,10.68-1.58,11.1-2.22,0,0,1.59-.78,2.32-1.17a2.39,2.39,0,0,0,1.24-2.1V437.83"></path><path class="cls-1 xaPTeCZk_68" d="M318,440.06s4.91,2.07,7.42,2.07a74.19,74.19,0,0,1,9.75,1,88.78,88.78,0,0,1,10.29,5.64"></path><path class="cls-1 xaPTeCZk_69" d="M378.35,432.23s-11.7,3.77-12.57,15"></path><path class="cls-1 xaPTeCZk_70" d="M313.77,461s12.71,4.48,14.34,6.4"></path><path class="cls-1 xaPTeCZk_71" d="M138.78,278.48c-.3.44-14.72,6.29-12.36,8.36s25.56,13,33,15.22a39.89,39.89,0,0,0,14.72,1.28"></path><path class="cls-1 xaPTeCZk_72" d="M204.38,315a61.51,61.51,0,0,1-30.29,3.35C161.15,316.39,140,306.54,130.74,302c-2.87-1.41-4.6-2.3-4.6-2.3l.28-12.86"></path><path class="cls-1 xaPTeCZk_73" d="M135.29,361s18.76,14.78,34.87,16.26,26.89-1,26.89-1,30.29-13,35-17.73v12.56l-27.69,13s-20,9.31-35.11,4c0,0-27.63-8.12-34-14.48Z"></path><path class="cls-1 xaPTeCZk_74" d="M150.12,310.76L148.54,369.63"></path><path class="cls-1 xaPTeCZk_75" d="M162.96,315.53L156.29,373.43"></path><path class="cls-1 xaPTeCZk_76" d="M146.85,380.12l-2.25,50.34s2.57,2.51,3.94,2.07S153.9,428,153.9,428l1.24-44.58"></path><path class="cls-1 xaPTeCZk_77" d="M130.74,302l-7.86,162.44a2.25,2.25,0,0,0,2.51,2.66,5.42,5.42,0,0,0,4.28-1.77l5.62-91.76"></path><path class="cls-1 xaPTeCZk_78" d="M142.76,307.62L137.55,362.69"></path><path class="cls-1 xaPTeCZk_79" d="M202.2,315.74L210.74,370.1"></path><path class="cls-1 xaPTeCZk_80" d="M217.85,319.92L219.33,365.98"></path><path class="cls-1 xaPTeCZk_81" d="M226.1,323.2L230.3,359.9"></path><path class="cls-1 xaPTeCZk_82" d="M238.2,328l4.21,95.06s-2.22,5.76-7.24,0l-4-51.59"></path><path class="cls-1 xaPTeCZk_83" d="M211.32,380.8l6.41,86.3s3.25,3.84,5.18,3.84a3.33,3.33,0,0,0,2.8-1.77l-5.32-92.63"></path><path class="cls-1 xaPTeCZk_84" d="M148.54,364.25s-2.76.31-3.94,2.23"></path><path class="cls-1 xaPTeCZk_85" d="M138.1,356.85s6.41-3.67,10.44-4"></path><path class="cls-1 xaPTeCZk_86" d="M159.62,348.9c.19,0,16.74-4.11,20.88-4.42s18.45,1.4,26.81,3.79"></path><path class="cls-1 xaPTeCZk_87" d="M219.33,351.26c.62,0,10.39,3.61,10.39,3.61"></path><path class="cls-1 xaPTeCZk_88" d="M157.62,361.85s19.33-6.48,24.5-7,26.73,3.18,26.8,3.63"></path><path class="cls-1 xaPTeCZk_89" d="M365.78,427.97L370.23,430.01"></path><path class="cls-1 xaPTeCZk_90" d="M342.44,87.54s.88,3.77.88,4.1,3.44,6.21,3.55,6.54,7.54,13.52,7.54,13.52l1.77,5.43v12.41"></path><path class="cls-1 xaPTeCZk_91" d="M375,107.93s-.22,1.77-1.44,1.77-1.78-1.44-2.33,0,0,3.66-1.22,4-2.55,1.89-3.1,2.33-2.55,2.66-3.1,3.21-1.22,2-2,2.11a10.33,10.33,0,0,0-3.43,2,10.47,10.47,0,0,1-1.67,1.33l-.55,1"></path><path class="cls-1 xaPTeCZk_92" d="M379.34,112.25c-.11.67-.33,2.22-1.22,2.33s.11.11-1.88,0-2.44,1-3.11,1.11a8.2,8.2,0,0,1-2.32,0c-.67-.11-1.87-1.44-1.87-1.44"></path><path class="cls-1 xaPTeCZk_93" d="M346.65,118.12a6.94,6.94,0,0,1-1.11,1.67,3.31,3.31,0,0,0-1.11,2.88,4.37,4.37,0,0,0,1.09,2.44,1.71,1.71,0,0,0,1.9,0c.56-.45,1.78-.12,1.89-1.44s1.33-2.22,0-3.55a11.87,11.87,0,0,1-2.16-3.33Z"></path><path class="cls-1 xaPTeCZk_94" d="M339.11,117.9a14.21,14.21,0,0,0,1.11,1.66c.33.34,2.22,2.07,2.66,1.54a3.8,3.8,0,0,1,1.5-.87"></path><path class="cls-1 xaPTeCZk_95" d="M349.92,123.11s1.73.33,2.11,1.55,2.71,3.11,2.71,3.11l1.44,1.1"></path><path class="cls-1 xaPTeCZk_96" d="M361.5,114a12.29,12.29,0,0,1,0,2.12c-.11.89,1.33,2.77,1.33,2.77l2.25-1a9.82,9.82,0,0,1-1-2.13c-.22-.86.88-1.41-.22-2.41l-2.34-2.11Z"></path><path class="cls-1 xaPTeCZk_97" d="M348.94,102s-2,1.23-2.85,0-1.88-2.44-2.54-2.55-.16-.23-1.8,0-2.64.33-2.64.88-.66.65-1.22.6-1.44-.84-1.55,0S335,102.5,335,102.5a6.7,6.7,0,0,0-1.11-1.62c-.33-.15-1,.82-1.77,0s-.55-1.07-1.66-1.61-1.77-1.31-1.88-.87.22,1.75.88,2,1.33,2.12,1.33,2.12-1.44-.45-1.22,0a5,5,0,0,0,1.55,1.44c.78.55,1.67.89,2.11.66a7.09,7.09,0,0,0,1.55-.88"></path><path class="cls-1 xaPTeCZk_98" d="M342.44,86.76a2.06,2.06,0,0,1-2,1.33c-1.66.11-2.55.89-4.54-.66s-1.44-2.22-2.55-2.33-1.77.33-2.1-.66,1.33.77-.34-1-3-2-2.35-2.88,1.91-2,2.13-2.77,2.44.33,2.88-.56.33-2.1,1-2.55,3.27.78,4.18.67,1.14.22,1.58-1.66-.49-3.55,1.42-3.66a5.13,5.13,0,0,1,3.68,1.11c.78.55,3.55.66,2.66,3.21s.37,3.88.85,3,3.15-.77,3.09-.44.73.78,0,1.55-1.93.11-2.11,1.55-.93,2.22,0,3.11.84,1.66,0,2.32-2.94,1-3.27,1.33-.54,2.11-2.27.78S342.44,86.76,342.44,86.76Z"></path><path class="cls-1 xaPTeCZk_99" d="M335.9,77.23c-.67.45-1.66.73-1,2s1.78,2.58,2.77,2.58,3.05-.78,2.69.55-1.86.67-1.61,1.22S340.66,84.88,341,85a6.12,6.12,0,0,0,1.44,0s1.56-.68,1.94.05,2.77.62,2.77.62l1.79-3.11s.7-.32-.85-1.1-1.33-.61-1.55-2.25,1.11-2.19-.67-2.52-2.66,2.52-2.66,2.52l-.77,2.47s-1.16.55-.69,1.1,1.46,1.56,1.8,1.22.44-.44.33-1.22l-.11-.77"></path><path class="cls-1 xaPTeCZk_100" d="M333.13,67s-1.11.77-.67,1.55a3.64,3.64,0,0,0,1.78,1.88,5.37,5.37,0,0,0,2.77,0,6.18,6.18,0,0,1-1.55-1.62A7.68,7.68,0,0,0,333.13,67Z"></path><path class="cls-1 xaPTeCZk_101" d="M351,83.79a5,5,0,0,1,1.37,0,3.58,3.58,0,0,0,2.18-.89c.44-.44.44-.66,1.1-2.54a5.94,5.94,0,0,0,0-3.69L355,75.9s-1.81.06-1.51.75-1.42,1.8-1.42,1.8"></path><path class="cls-1 xaPTeCZk_102" d="M357.4,82.44a1.42,1.42,0,0,1-.67,1.35c-.66.42-1.29.88-.81,1.87s-.28,1.44.65,1.44,1.27-1.1,1.71-1.44,1.33.22,1-.89a21.8,21.8,0,0,0-.88-2.33Z"></path><path class="cls-1 xaPTeCZk_103" d="M337.56,91.42a5.45,5.45,0,0,0,1.55,1.77c1.22,1,1.28,1.11,1.25,1.66a3.43,3.43,0,0,0,0,1.11c.08,1,1.53,2.31,1.53,2.31l1.66,1.13"></path><path class="cls-1 xaPTeCZk_104" d="M381,63.82a18.92,18.92,0,0,0,0,3.77c.11,2.44-1.88,2-2.1,2.43s-3.42,3.33-4.76,5.44-3.44,4.3-3.89,5.7a6.55,6.55,0,0,0-.33,2.63c-.11,1.64-2.66,5.08-3,5.3a5.69,5.69,0,0,0-1.85,3,7,7,0,0,1-1.14,3.33c-.67.77-2.45,6.06-2.45,6.06s2-.3,0,1.47-1.51,3.33-2.14,4.1-3.28,4.66-3.17,5.21a45.21,45.21,0,0,1,.66,4.54,5.68,5.68,0,0,1-.66,2.11"></path><path class="cls-1 xaPTeCZk_105" d="M356.57,87.1a5,5,0,0,1,1.83.44c1,.44,1.44-.44,2.21,1.55s2,1.88,2.68,2.33a9.34,9.34,0,0,1,1.58,1.75"></path><path class="cls-1 xaPTeCZk_106" d="M362.42,98.85c.12-.32.52-1,1.63-.58a5.74,5.74,0,0,1,2.32,1.13c1.11.88,1.93,1.88,2.57,1.55a5.67,5.67,0,0,0,1.42-1.38"></path><path class="cls-1 xaPTeCZk_107" d="M369.7,88.38s.26.49-.76.71-2-2.22-2,0-1,2.77-.54,3.55-.24,1.77.54,2.32-.4.11,1.08,1.78a7.23,7.23,0,0,0,2.35,2s.34-.77,1.33.84a5.76,5.76,0,0,0,2.45,2.49c.32,0,.21,0,.88-.59a2.46,2.46,0,0,1,3.1-.46,3.65,3.65,0,0,0,2.89.46c.44-.08.88-1,1.88-.46s2,1,2.88.46,1.55-.85,1.44-2.07S387,98.18,386.1,97s-.89-.67-.89-1.22,2-1.93,2-2.57.68-2,0-3-3.12-3.7-4.67-3a7.68,7.68,0,0,0-2.77,2.54l-.44-4a5.23,5.23,0,0,0-2.44-2.55c-1.55-.56-1.77.69-2.33.68s-.66-1.08-1.44-.83-1.33,2.26-1.88,2.7A12.31,12.31,0,0,0,369.7,88.38Z"></path><path class="cls-1 xaPTeCZk_108" d="M370.36,90.13c.34.51-.11,1.9,1.22,3a8.78,8.78,0,0,0,2.56,1.46c.77.44,3.2,0,2.76,1.66s-.77,2.07-1.88,2-1,.46-2.22-.65-1.33-1.88-2.44-2.21a2,2,0,0,1-1.42-2.24A19.34,19.34,0,0,1,370.36,90.13Z"></path><path class="cls-1 xaPTeCZk_109" d="M377.9,95.41s2.89-.67,3.11-.78-.67-.69,1.21-.4,1.66-.41,2.33.55l.66,1"></path><path class="cls-1 xaPTeCZk_110" d="M376.9,98.33s-.22.84,1,1.07a7.9,7.9,0,0,0,2.33,0c.55,0,1.77,1,1.77,1"></path><path class="cls-1 xaPTeCZk_111" d="M377.9,88.38s-1.66.38-2.11,1.15a10.67,10.67,0,0,1-1.65,1.83c-.23.28-1,.43-.67,1.13a14.83,14.83,0,0,1,.67,2.14s3.54-2.92,3.76-3.12.33-1.56.89-1.38,1-.49,1-.49"></path><path class="cls-1 xaPTeCZk_112" d="M381,50.3c-.23,0-.45-.66-1.23.78a4,4,0,0,0,.61,4.21c.83,1,1.83.78,1.61,1.77s-.22.89-.44,1.78.88,2.66,1.1,3,.56,1.77.78,1.11a3.8,3.8,0,0,1,3-2.11c1.55-.11,3.66-.11,4.55-.55s2.88-.67,3.32-1.89,2.88-1.08,1.22-1.76-2.88.12-4.1,0,.11-2.22-1.89-1.78-2.1.77-2.54,1.33-.11,2.55-.45,2.88-2.32,1.66-2.32,1.66"></path><path class="cls-1 xaPTeCZk_113" d="M382,63.11s-.21.51-1,0-1.34.27-1.23-1.28.56-1.77.56-2.66-.22-2.53-1.33-2.54-1.89,1-3.11-1.23-2.26-2.77-2.52-4.1-.63-3.1,0-3.88-.14-4,1.64-2.1a14,14,0,0,0,4.39,2.88c.15.11,1.92,1.13,2.15,1.95a20.73,20.73,0,0,0,1.21,2.7V55"></path><path class="cls-1 xaPTeCZk_114" d="M382.77,52.85s-.62-1.25,0-1.77.34-2,.67-2.33a6,6,0,0,1,1.77-.66,10,10,0,0,0,.89,1.22c.33.33,2.17,1.11,1.42,2.32S386,53.33,385.66,54a2.46,2.46,0,0,0,.11,2,6,6,0,0,1,.44,1.33l.33,1.66"></path><path class="cls-1 xaPTeCZk_115" d="M383.55,68.85s-1.22,1.91-2,1.82-.56.69-1.78,1.47-1.22,1.33-1.88,2.21-.67,1.72,0,2.3.44-.19,1.88-.75,2.88-.11,3-1.88.78-1.33.78-2.44Z"></path><path class="cls-1 xaPTeCZk_116" d="M388.65,71.91s-.35,2.77-.9,2.77-2.43-1.66-2.54.78-.11,3.74-.11,3.74.33,1.19,1.11,0a6,6,0,0,1,2.44-2.55c1.44-.86,2-2.85,1.44-3.79A1.8,1.8,0,0,0,388.65,71.91Z"></path><path class="cls-1 xaPTeCZk_117" d="M370.25,81.16a5.22,5.22,0,0,1,1.44-.71c.78-.22,1.89-1,3.33-.61a9.63,9.63,0,0,0,3.88.61,21.9,21.9,0,0,1,3.87,0l2.33-.61"></path><path class="cls-1 xaPTeCZk_118" d="M377.9,76.65s-.42,1.91-1.32,1.69S374.35,77,374,77.51a19,19,0,0,0-1,2.22"></path><path class="cls-1 xaPTeCZk_119" d="M372.93,65.93c0,.33.59.89.45,1.77a8.91,8.91,0,0,0,.64,3,3.7,3.7,0,0,1,0,2.19,2.69,2.69,0,0,0,.17,1.6"></path><path class="cls-1 xaPTeCZk_120" d="M373.38,102.06a4.48,4.48,0,0,0-.34,3.43c.54,1.55.47,3,1.15,3.05s.51-.94,1.28-1.39.91-.83,1.11-1.85.9-.92,0-1.8a4.82,4.82,0,0,1-1.11-1.44l-.45-.59"></path><path class="cls-1 xaPTeCZk_121" d="M346.43,130.42c.11-.49,18.13-.49,18.65,0s-3.14,2.66-3.14,2.66,1.11,14,2.44,19.06,7,15,7,15,3.66,9.64,3.1,15.95-2.88,18.18-4.87,19.28-10.86,2.11-13.85,2.22-13.3-2.1-13.3-2.1-5.21-9.53-4.77-18.4,2.44-16.51,4.77-20.72,6.09-13.19,6.87-17.73,0-11.75,0-11.75S346.32,130.92,346.43,130.42Z"></path><path class="cls-1 xaPTeCZk_122" d="M368,275.02L362.24,315.53"></path><style data-made-with="vivus-instant">.xaPTeCZk_0{stroke-dasharray:329 331;stroke-dashoffset:330;animation:xaPTeCZk_draw 2000ms linear 0ms forwards;}.xaPTeCZk_1{stroke-dasharray:26 28;stroke-dashoffset:27;animation:xaPTeCZk_draw 2000ms linear 8ms forwards;}.xaPTeCZk_2{stroke-dasharray:13 15;stroke-dashoffset:14;animation:xaPTeCZk_draw 2000ms linear 16ms forwards;}.xaPTeCZk_3{stroke-dasharray:18 20;stroke-dashoffset:19;animation:xaPTeCZk_draw 2000ms linear 24ms forwards;}.xaPTeCZk_4{stroke-dasharray:11 13;stroke-dashoffset:12;animation:xaPTeCZk_draw 2000ms linear 32ms forwards;}.xaPTeCZk_5{stroke-dasharray:7 9;stroke-dashoffset:8;animation:xaPTeCZk_draw 2000ms linear 40ms forwards;}.xaPTeCZk_6{stroke-dasharray:8 10;stroke-dashoffset:9;animation:xaPTeCZk_draw 2000ms linear 49ms forwards;}.xaPTeCZk_7{stroke-dasharray:13 15;stroke-dashoffset:14;animation:xaPTeCZk_draw 2000ms linear 57ms forwards;}.xaPTeCZk_8{stroke-dasharray:58 60;stroke-dashoffset:59;animation:xaPTeCZk_draw 2000ms linear 65ms forwards;}.xaPTeCZk_9{stroke-dasharray:132 134;stroke-dashoffset:133;animation:xaPTeCZk_draw 2000ms linear 73ms forwards;}.xaPTeCZk_10{stroke-dasharray:29 31;stroke-dashoffset:30;animation:xaPTeCZk_draw 2000ms linear 81ms forwards;}.xaPTeCZk_11{stroke-dasharray:41 43;stroke-dashoffset:42;animation:xaPTeCZk_draw 2000ms linear 90ms forwards;}.xaPTeCZk_12{stroke-dasharray:9 11;stroke-dashoffset:10;animation:xaPTeCZk_draw 2000ms linear 98ms forwards;}.xaPTeCZk_13{stroke-dasharray:66 68;stroke-dashoffset:67;animation:xaPTeCZk_draw 2000ms linear 106ms forwards;}.xaPTeCZk_14{stroke-dasharray:484 486;stroke-dashoffset:485;animation:xaPTeCZk_draw 2000ms linear 114ms forwards;}.xaPTeCZk_15{stroke-dasharray:25 27;stroke-dashoffset:26;animation:xaPTeCZk_draw 2000ms linear 122ms forwards;}.xaPTeCZk_16{stroke-dasharray:41 43;stroke-dashoffset:42;animation:xaPTeCZk_draw 2000ms linear 131ms forwards;}.xaPTeCZk_17{stroke-dasharray:23 25;stroke-dashoffset:24;animation:xaPTeCZk_draw 2000ms linear 139ms forwards;}.xaPTeCZk_18{stroke-dasharray:19 21;stroke-dashoffset:20;animation:xaPTeCZk_draw 2000ms linear 147ms forwards;}.xaPTeCZk_19{stroke-dasharray:78 80;stroke-dashoffset:79;animation:xaPTeCZk_draw 2000ms linear 155ms forwards;}.xaPTeCZk_20{stroke-dasharray:81 83;stroke-dashoffset:82;animation:xaPTeCZk_draw 2000ms linear 163ms forwards;}.xaPTeCZk_21{stroke-dasharray:58 60;stroke-dashoffset:59;animation:xaPTeCZk_draw 2000ms linear 172ms forwards;}.xaPTeCZk_22{stroke-dasharray:30 32;stroke-dashoffset:31;animation:xaPTeCZk_draw 2000ms linear 180ms forwards;}.xaPTeCZk_23{stroke-dasharray:11 13;stroke-dashoffset:12;animation:xaPTeCZk_draw 2000ms linear 188ms forwards;}.xaPTeCZk_24{stroke-dasharray:44 46;stroke-dashoffset:45;animation:xaPTeCZk_draw 2000ms linear 196ms forwards;}.xaPTeCZk_25{stroke-dasharray:66 68;stroke-dashoffset:67;animation:xaPTeCZk_draw 2000ms linear 204ms forwards;}.xaPTeCZk_26{stroke-dasharray:29 31;stroke-dashoffset:30;animation:xaPTeCZk_draw 2000ms linear 213ms forwards;}.xaPTeCZk_27{stroke-dasharray:268 270;stroke-dashoffset:269;animation:xaPTeCZk_draw 2000ms linear 221ms forwards;}.xaPTeCZk_28{stroke-dasharray:17 19;stroke-dashoffset:18;animation:xaPTeCZk_draw 2000ms linear 229ms forwards;}.xaPTeCZk_29{stroke-dasharray:17 19;stroke-dashoffset:18;animation:xaPTeCZk_draw 2000ms linear 237ms forwards;}.xaPTeCZk_30{stroke-dasharray:20 22;stroke-dashoffset:21;animation:xaPTeCZk_draw 2000ms linear 245ms forwards;}.xaPTeCZk_31{stroke-dasharray:18 20;stroke-dashoffset:19;animation:xaPTeCZk_draw 2000ms linear 254ms forwards;}.xaPTeCZk_32{stroke-dasharray:23 25;stroke-dashoffset:24;animation:xaPTeCZk_draw 2000ms linear 262ms forwards;}.xaPTeCZk_33{stroke-dasharray:20 22;stroke-dashoffset:21;animation:xaPTeCZk_draw 2000ms linear 270ms forwards;}.xaPTeCZk_34{stroke-dasharray:10 12;stroke-dashoffset:11;animation:xaPTeCZk_draw 2000ms linear 278ms forwards;}.xaPTeCZk_35{stroke-dasharray:9 11;stroke-dashoffset:10;animation:xaPTeCZk_draw 2000ms linear 286ms forwards;}.xaPTeCZk_36{stroke-dasharray:19 21;stroke-dashoffset:20;animation:xaPTeCZk_draw 2000ms linear 295ms forwards;}.xaPTeCZk_37{stroke-dasharray:13 15;stroke-dashoffset:14;animation:xaPTeCZk_draw 2000ms linear 303ms forwards;}.xaPTeCZk_38{stroke-dasharray:66 68;stroke-dashoffset:67;animation:xaPTeCZk_draw 2000ms linear 311ms forwards;}.xaPTeCZk_39{stroke-dasharray:52 54;stroke-dashoffset:53;animation:xaPTeCZk_draw 2000ms linear 319ms forwards;}.xaPTeCZk_40{stroke-dasharray:37 39;stroke-dashoffset:38;animation:xaPTeCZk_draw 2000ms linear 327ms forwards;}.xaPTeCZk_41{stroke-dasharray:58 60;stroke-dashoffset:59;animation:xaPTeCZk_draw 2000ms linear 336ms forwards;}.xaPTeCZk_42{stroke-dasharray:31 33;stroke-dashoffset:32;animation:xaPTeCZk_draw 2000ms linear 344ms forwards;}.xaPTeCZk_43{stroke-dasharray:124 126;stroke-dashoffset:125;animation:xaPTeCZk_draw 2000ms linear 352ms forwards;}.xaPTeCZk_44{stroke-dasharray:27 29;stroke-dashoffset:28;animation:xaPTeCZk_draw 2000ms linear 360ms forwards;}.xaPTeCZk_45{stroke-dasharray:15 17;stroke-dashoffset:16;animation:xaPTeCZk_draw 2000ms linear 368ms forwards;}.xaPTeCZk_46{stroke-dasharray:19 21;stroke-dashoffset:20;animation:xaPTeCZk_draw 2000ms linear 377ms forwards;}.xaPTeCZk_47{stroke-dasharray:32 34;stroke-dashoffset:33;animation:xaPTeCZk_draw 2000ms linear 385ms forwards;}.xaPTeCZk_48{stroke-dasharray:36 38;stroke-dashoffset:37;animation:xaPTeCZk_draw 2000ms linear 393ms forwards;}.xaPTeCZk_49{stroke-dasharray:52 54;stroke-dashoffset:53;animation:xaPTeCZk_draw 2000ms linear 401ms forwards;}.xaPTeCZk_50{stroke-dasharray:37 39;stroke-dashoffset:38;animation:xaPTeCZk_draw 2000ms linear 409ms forwards;}.xaPTeCZk_51{stroke-dasharray:25 27;stroke-dashoffset:26;animation:xaPTeCZk_draw 2000ms linear 418ms forwards;}.xaPTeCZk_52{stroke-dasharray:54 56;stroke-dashoffset:55;animation:xaPTeCZk_draw 2000ms linear 426ms forwards;}.xaPTeCZk_53{stroke-dasharray:6 8;stroke-dashoffset:7;animation:xaPTeCZk_draw 2000ms linear 434ms forwards;}.xaPTeCZk_54{stroke-dasharray:185 187;stroke-dashoffset:186;animation:xaPTeCZk_draw 2000ms linear 442ms forwards;}.xaPTeCZk_55{stroke-dasharray:165 167;stroke-dashoffset:166;animation:xaPTeCZk_draw 2000ms linear 450ms forwards;}.xaPTeCZk_56{stroke-dasharray:508 510;stroke-dashoffset:509;animation:xaPTeCZk_draw 2000ms linear 459ms forwards;}.xaPTeCZk_57{stroke-dasharray:280 282;stroke-dashoffset:281;animation:xaPTeCZk_draw 2000ms linear 467ms forwards;}.xaPTeCZk_58{stroke-dasharray:150 152;stroke-dashoffset:151;animation:xaPTeCZk_draw 2000ms linear 475ms forwards;}.xaPTeCZk_59{stroke-dasharray:158 160;stroke-dashoffset:159;animation:xaPTeCZk_draw 2000ms linear 483ms forwards;}.xaPTeCZk_60{stroke-dasharray:117 119;stroke-dashoffset:118;animation:xaPTeCZk_draw 2000ms linear 491ms forwards;}.xaPTeCZk_61{stroke-dasharray:61 63;stroke-dashoffset:62;animation:xaPTeCZk_draw 2000ms linear 499ms forwards;}.xaPTeCZk_62{stroke-dasharray:102 104;stroke-dashoffset:103;animation:xaPTeCZk_draw 2000ms linear 508ms forwards;}.xaPTeCZk_63{stroke-dasharray:51 53;stroke-dashoffset:52;animation:xaPTeCZk_draw 2000ms linear 516ms forwards;}.xaPTeCZk_64{stroke-dasharray:21 23;stroke-dashoffset:22;animation:xaPTeCZk_draw 2000ms linear 524ms forwards;}.xaPTeCZk_65{stroke-dasharray:93 95;stroke-dashoffset:94;animation:xaPTeCZk_draw 2000ms linear 532ms forwards;}.xaPTeCZk_66{stroke-dasharray:43 45;stroke-dashoffset:44;animation:xaPTeCZk_draw 2000ms linear 540ms forwards;}.xaPTeCZk_67{stroke-dasharray:102 104;stroke-dashoffset:103;animation:xaPTeCZk_draw 2000ms linear 549ms forwards;}.xaPTeCZk_68{stroke-dasharray:30 32;stroke-dashoffset:31;animation:xaPTeCZk_draw 2000ms linear 557ms forwards;}.xaPTeCZk_69{stroke-dasharray:21 23;stroke-dashoffset:22;animation:xaPTeCZk_draw 2000ms linear 565ms forwards;}.xaPTeCZk_70{stroke-dasharray:16 18;stroke-dashoffset:17;animation:xaPTeCZk_draw 2000ms linear 573ms forwards;}.xaPTeCZk_71{stroke-dasharray:67 69;stroke-dashoffset:68;animation:xaPTeCZk_draw 2000ms linear 581ms forwards;}.xaPTeCZk_72{stroke-dasharray:96 98;stroke-dashoffset:97;animation:xaPTeCZk_draw 2000ms linear 590ms forwards;}.xaPTeCZk_73{stroke-dasharray:235 237;stroke-dashoffset:236;animation:xaPTeCZk_draw 2000ms linear 598ms forwards;}.xaPTeCZk_74{stroke-dasharray:59 61;stroke-dashoffset:60;animation:xaPTeCZk_draw 2000ms linear 606ms forwards;}.xaPTeCZk_75{stroke-dasharray:59 61;stroke-dashoffset:60;animation:xaPTeCZk_draw 2000ms linear 614ms forwards;}.xaPTeCZk_76{stroke-dasharray:107 109;stroke-dashoffset:108;animation:xaPTeCZk_draw 2000ms linear 622ms forwards;}.xaPTeCZk_77{stroke-dasharray:264 266;stroke-dashoffset:265;animation:xaPTeCZk_draw 2000ms linear 631ms forwards;}.xaPTeCZk_78{stroke-dasharray:56 58;stroke-dashoffset:57;animation:xaPTeCZk_draw 2000ms linear 639ms forwards;}.xaPTeCZk_79{stroke-dasharray:56 58;stroke-dashoffset:57;animation:xaPTeCZk_draw 2000ms linear 647ms forwards;}.xaPTeCZk_80{stroke-dasharray:47 49;stroke-dashoffset:48;animation:xaPTeCZk_draw 2000ms linear 655ms forwards;}.xaPTeCZk_81{stroke-dasharray:37 39;stroke-dashoffset:38;animation:xaPTeCZk_draw 2000ms linear 663ms forwards;}.xaPTeCZk_82{stroke-dasharray:157 159;stroke-dashoffset:158;animation:xaPTeCZk_draw 2000ms linear 672ms forwards;}.xaPTeCZk_83{stroke-dasharray:190 192;stroke-dashoffset:191;animation:xaPTeCZk_draw 2000ms linear 680ms forwards;}.xaPTeCZk_84{stroke-dasharray:5 7;stroke-dashoffset:6;animation:xaPTeCZk_draw 2000ms linear 688ms forwards;}.xaPTeCZk_85{stroke-dasharray:12 14;stroke-dashoffset:13;animation:xaPTeCZk_draw 2000ms linear 696ms forwards;}.xaPTeCZk_86{stroke-dasharray:49 51;stroke-dashoffset:50;animation:xaPTeCZk_draw 2000ms linear 704ms forwards;}.xaPTeCZk_87{stroke-dasharray:12 14;stroke-dashoffset:13;animation:xaPTeCZk_draw 2000ms linear 713ms forwards;}.xaPTeCZk_88{stroke-dasharray:53 55;stroke-dashoffset:54;animation:xaPTeCZk_draw 2000ms linear 721ms forwards;}.xaPTeCZk_89{stroke-dasharray:5 7;stroke-dashoffset:6;animation:xaPTeCZk_draw 2000ms linear 729ms forwards;}.xaPTeCZk_90{stroke-dasharray:46 48;stroke-dashoffset:47;animation:xaPTeCZk_draw 2000ms linear 737ms forwards;}.xaPTeCZk_91{stroke-dasharray:29 31;stroke-dashoffset:30;animation:xaPTeCZk_draw 2000ms linear 745ms forwards;}.xaPTeCZk_92{stroke-dasharray:13 15;stroke-dashoffset:14;animation:xaPTeCZk_draw 2000ms linear 754ms forwards;}.xaPTeCZk_93{stroke-dasharray:22 24;stroke-dashoffset:23;animation:xaPTeCZk_draw 2000ms linear 762ms forwards;}.xaPTeCZk_94{stroke-dasharray:7 9;stroke-dashoffset:8;animation:xaPTeCZk_draw 2000ms linear 770ms forwards;}.xaPTeCZk_95{stroke-dasharray:9 11;stroke-dashoffset:10;animation:xaPTeCZk_draw 2000ms linear 778ms forwards;}.xaPTeCZk_96{stroke-dasharray:19 21;stroke-dashoffset:20;animation:xaPTeCZk_draw 2000ms linear 786ms forwards;}.xaPTeCZk_97{stroke-dasharray:39 41;stroke-dashoffset:40;animation:xaPTeCZk_draw 2000ms linear 795ms forwards;}.xaPTeCZk_98{stroke-dasharray:76 78;stroke-dashoffset:77;animation:xaPTeCZk_draw 2000ms linear 803ms forwards;}.xaPTeCZk_99{stroke-dasharray:46 48;stroke-dashoffset:47;animation:xaPTeCZk_draw 2000ms linear 811ms forwards;}.xaPTeCZk_100{stroke-dasharray:13 15;stroke-dashoffset:14;animation:xaPTeCZk_draw 2000ms linear 819ms forwards;}.xaPTeCZk_101{stroke-dasharray:16 18;stroke-dashoffset:17;animation:xaPTeCZk_draw 2000ms linear 827ms forwards;}.xaPTeCZk_102{stroke-dasharray:14 16;stroke-dashoffset:15;animation:xaPTeCZk_draw 2000ms linear 836ms forwards;}.xaPTeCZk_103{stroke-dasharray:11 13;stroke-dashoffset:12;animation:xaPTeCZk_draw 2000ms linear 844ms forwards;}.xaPTeCZk_104{stroke-dasharray:65 67;stroke-dashoffset:66;animation:xaPTeCZk_draw 2000ms linear 852ms forwards;}.xaPTeCZk_105{stroke-dasharray:11 13;stroke-dashoffset:12;animation:xaPTeCZk_draw 2000ms linear 860ms forwards;}.xaPTeCZk_106{stroke-dasharray:10 12;stroke-dashoffset:11;animation:xaPTeCZk_draw 2000ms linear 868ms forwards;}.xaPTeCZk_107{stroke-dasharray:76 78;stroke-dashoffset:77;animation:xaPTeCZk_draw 2000ms linear 877ms forwards;}.xaPTeCZk_108{stroke-dasharray:26 28;stroke-dashoffset:27;animation:xaPTeCZk_draw 2000ms linear 885ms forwards;}.xaPTeCZk_109{stroke-dasharray:9 11;stroke-dashoffset:10;animation:xaPTeCZk_draw 2000ms linear 893ms forwards;}.xaPTeCZk_110{stroke-dasharray:7 9;stroke-dashoffset:8;animation:xaPTeCZk_draw 2000ms linear 901ms forwards;}.xaPTeCZk_111{stroke-dasharray:17 19;stroke-dashoffset:18;animation:xaPTeCZk_draw 2000ms linear 909ms forwards;}.xaPTeCZk_112{stroke-dasharray:47 49;stroke-dashoffset:48;animation:xaPTeCZk_draw 2000ms linear 918ms forwards;}.xaPTeCZk_113{stroke-dasharray:40 42;stroke-dashoffset:41;animation:xaPTeCZk_draw 2000ms linear 926ms forwards;}.xaPTeCZk_114{stroke-dasharray:20 22;stroke-dashoffset:21;animation:xaPTeCZk_draw 2000ms linear 934ms forwards;}.xaPTeCZk_115{stroke-dasharray:23 25;stroke-dashoffset:24;animation:xaPTeCZk_draw 2000ms linear 942ms forwards;}.xaPTeCZk_116{stroke-dasharray:22 24;stroke-dashoffset:23;animation:xaPTeCZk_draw 2000ms linear 950ms forwards;}.xaPTeCZk_117{stroke-dasharray:16 18;stroke-dashoffset:17;animation:xaPTeCZk_draw 2000ms linear 959ms forwards;}.xaPTeCZk_118{stroke-dasharray:8 10;stroke-dashoffset:9;animation:xaPTeCZk_draw 2000ms linear 967ms forwards;}.xaPTeCZk_119{stroke-dasharray:9 11;stroke-dashoffset:10;animation:xaPTeCZk_draw 2000ms linear 975ms forwards;}.xaPTeCZk_120{stroke-dasharray:16 18;stroke-dashoffset:17;animation:xaPTeCZk_draw 2000ms linear 983ms forwards;}.xaPTeCZk_121{stroke-dasharray:199 201;stroke-dashoffset:200;animation:xaPTeCZk_draw 2000ms linear 991ms forwards;}.xaPTeCZk_122{stroke-dasharray:41 43;stroke-dashoffset:42;animation:xaPTeCZk_draw 2000ms linear 999ms forwards;}@keyframes xaPTeCZk_draw{100%{stroke-dashoffset:0;}}@keyframes xaPTeCZk_fade{0%{stroke-opacity:1;}94.44444444444444%{stroke-opacity:1;}100%{stroke-opacity:0;}}</style></svg>