<svg id="Layer_1" data-name="Layer 1" xmlns="http://www.w3.org/2000/svg" viewBox="0 0 500 500" style=""><defs><style>.cls-1{fill:none;stroke:#1d1d1b;stroke-miterlimit:10;}</style></defs><path class="cls-1 COGOhLcR_0" d="M55.63,5C57.21,7.37,77.68,34.14,89.5,46S123.36,79,128.87,88.48s29.14,35.44,29.93,41,22,45.41,22,45.41v8.67s2.21,1.05,2.15-1.84-2,2.1,0,4.46,4.67,5.78,5.2,7.61,1.57,7.88,1.31,9.19,3.41,1.31,3.15,3.41,1.57,6.3,1.31,8.14a55.69,55.69,0,0,0,0,6.83s-.29-.79,1.28,0a3.71,3.71,0,0,1,1.84,3.67c0,1.31-.79-1,0,1.31a7.67,7.67,0,0,0,2.1,3.42s-5,12.33-10,15.75-3.68,5.51-3.68,5.51,14.7-2.89,15.49-3.94a47.15,47.15,0,0,1,5-4.2,4.89,4.89,0,0,1-1.32,6c-3.15,2.89-5.25,3.67-10,6.56a38.36,38.36,0,0,0-5.78,3.94s5.25-.53,6.83,1.05,6.3,2.89,6.3,2.89l-2.63,2.1s3.15,6,3.68,6.82,1.33,3.15,3.42,5-1.58,5.51-3.42,2.1-3.68-4.2-4.73-5.78.79,3.15,1.32,4.47-.27,3.93-.27,3.93l-5.25,4.47s-.52,7.35-1,6.56-3.67-6.56-1.31-9.45,3.94-3.94,3.68-5.25-3.15.79-3.15.79-1.58,2.88-2.37,2.88a11,11,0,0,1-2.36-.52s-1.57-3.94-1.57-3.15,2.88,7.09,3.15,8.4A41.9,41.9,0,0,1,189,293s-2.62.46-2.62-1.11-3.83-6.83-3.36-8.14,1.52-2.36,1.26-3.94-2.63-3.15-2.63-3.15v-3.15s-4.2,0-4.46-1.57-3.15-3.15-2.89-8.4,1.84-6.3,2.63-6.83,3.15-3.24,1.31-2.93-9.71,5.3-10.24,6.08-6,11.29-5.51,13.39-1.31,3.15-1.57,2.36-.79-11,0-11.81,7.87-10.33,9.18-10,6.57-2.84,6.57-2.84-1.58.26-4.47.52-10,6.83-10,6.83l-3.15,5.51a2.62,2.62,0,0,1-1.31-3.15c.52-2.36,0-3.15,2.1-5.25s4.72-3.15,7.08-4.46a55.32,55.32,0,0,1,7.35-2.89l1.05-1.31s-1.57-2.63-2.88-2.1-23.37.79-23.37.79-3.93,2.36-5.77,5-4.73,1.58-2.89-1.31,2.89-6.3,4.46-8.4,7.09-3.15,9.19-3.94a33.15,33.15,0,0,1,7.61-1.31c2.63-.26,5,0,5.25-.79s2.37-3.41-1.57-2.36a118.11,118.11,0,0,1-14.7,2.63c-3.15.26-6.56,1-8.93.26s-5.51-1.31-7.08-.79.26-3.41,2.88-3.94,4.47-1.05,5.52-2.1,4.46-3.93,6.56-3.93,3.94.52,5.77.52,5.52,1.05,4.73-.79-2.1-2.1-6.56-2.88-3.15-2.63-9.72-1.58-7.35,2.36-8.92,3.15-3.49,4.2-3.49,4.2a5.43,5.43,0,0,1,0-3.94c.86-1.83,2.28-1,0-3.15s-.34-3.15,0-5.51,6.38-6.56,8.48-6.82,7.35-1.32,8.92-2.1,9.19-.79,1.31-1.84-14.85,2.1-18.71-.79-7.27-4.2-9.64-6.3-11.28-4.46-12.33-5.25-6-2.62-5-3.41,3.15-1.05,3.67-4.2,3.68-2.36,1.84-4.73-3.94-1.31-5.77-4.2a44.64,44.64,0,0,1-3.15-6s5,6.56,8.13,6.56,7.09.79,8.93-.53,4.72-3.41,6.3-4.46,7.87-2.62,9.71-2.89,6-.78,6-.78-15-4.2-18.9-4.47-6.83,1.58-11.81-2.36-5.52-3.41-7.35-7.87.26-2.89-5.25-9.19a67.53,67.53,0,0,0-11.29-10.24l-6.56,1s-8.14-2.36-8.14-3.15,2.36-2.89,4.72-2.36,6,2.36,9.19,1,4.73-2.36,1.31-3.15-7.87-.53-10-1.58-1.58-3.93,1.57-3.67,8.14,4.72,4.47-.26a52.55,52.55,0,0,0-5.78-7.09c-2.62-2.89-4.2-2.36-6.3-7.35s-2.62-11.81-4.2-16.28-1.05-2.88-3.67-7.87-7.88-3.15-4.73-7.61,3.94-3.15,5-8.4S55.37,53.83,54.06,46,55.9,38.34,55.37,32s-1.57-9.45-2.89-12.33.53-3.15,0-9.19S55.63,5,55.63,5Z"></path><path class="cls-1 COGOhLcR_1" d="M192.4,279.06l-1.58-6.83s-4.46-18.64-6.3-25.2-20.47-52-23.89-60.64-31-54.07-31-54.07a7.35,7.35,0,0,0,0,6.82c1.9,3.68,15.28,26.25,15.28,26.25s13.92,24.94,19.17,38.33,15.75,41.74,15.75,41.74l6.56,23.62"></path><path class="cls-1 COGOhLcR_2" d="M178.48,275.91l-12.33,7.35-5.57,11s-1,7.61,1.37,11.29,17.58,24.15,18.37,24.94,26.88,4.72,26.88,4.72l41.28-23.62L253,290.78l-25.33-26.42-19.43-2.45-8.75,3.5"></path><path class="cls-1 COGOhLcR_3" d="M189,293l3.42,28.55a7.65,7.65,0,0,0,4.2,1.58c2.23,0,4.85-.92,5.11-1.32s1.45-1.83,1.45-1.83l-5.66-18.16-3.62-11.65"></path><path class="cls-1 COGOhLcR_4" d="M198.56,302a2.72,2.72,0,0,0,2.37.91c1.57-.13,7.87-.91,7.87-.91s5.65-2.59,7-3.46,4.2-3.38,3.8-5.48-1.44-7.08-2.1-8-2.75-3.41-5.11-3.41a38.88,38.88,0,0,0-8,1.18c-.39.27-8.27,6.15-8.27,7.34s-1.34,2.74-1,3.93"></path><path class="cls-1 COGOhLcR_5" d="M180.32,330.51c.71.26,2.36,6,3.54,6.3S208.15,339,208.15,339l41.34-22.31-.89-5.67"></path><path class="cls-1 COGOhLcR_6" d="M162,305.57c.87,1.29,2.23,11.55,2.23,11.55l11.55,17.59,7.27,9.45s3.88,5.25,6,5.77,21.13.66,21.13.66l39.38-21.53L253,309.9V290.78l-3.5,26"></path><path class="cls-1 COGOhLcR_7" d="M182,342.84l-46.81,63.27s.53,3.41,10.24,6.82,57.75,25.2,57.75,25.2l91.61,37.8s36.49,17.59,38.59,18.38,11,1.05,12.6,0,7.61-2.63,8.66-3.94,31.5-64.84,31.5-64.84l19.95-38.32v-10l-10.5-2.36-145-51.71L398.2,370.41l10.23-1.58L426,350.59l31.24-74.16s-45.94-14.17-52.5-15.75-68.25-17.59-69-17.59-46.2-11.28-48-12.6S267,220.26,267,220.26,238.28,273,236.34,273.41"></path><path class="cls-1 COGOhLcR_8" d="M151.88,397.18c1.58.18,2.8.7,3.33-2.62s-2.1-4.2.87-4.2,8-3,8.4-5.78-1.57-1.4,2.63-5.95,1.4-2.45,5.77-6.12,5.25-3.85,5.25-6.48-2.27-2.1,0-5.25,2.8-4.37,3.85-5.95a5.64,5.64,0,0,0,1-3l4.06,1.75"></path><path class="cls-1 COGOhLcR_9" d="M158.53,407.86c4,.87,7.88.87,5.95-2.8s1.4-3.15,2.8-3.33,3-3.05,2.19-4.41-1.14-3.64,1.14-2.41,2.8,1,3-.35"></path><path class="cls-1 COGOhLcR_10" d="M175.51,386.16s1.05,4.2,3,1.22,2.28-3.5,1.84-4.9-2.81-1.05-2.32-2.62-3-2.1.48-1.58,3.61.53,4.52,1.23,1.26-.75,1.26-1.42v-3.5"></path><path class="cls-1 COGOhLcR_11" d="M188.28,366.56c1.58,1.05,2.8.52,2.45,0s-3.67-4.55-3.67-4.55,4.55,2.18,5.07,2.58.18,0,0-1.88-1.37-7,.28-5.08,4.8,5.78,4.62,2.45-1.56-3.15,0-4.72a13.54,13.54,0,0,0,2.44-3.5"></path><path class="cls-1 COGOhLcR_12" d="M163.26,414.68c2.45,1.4,2.62,5.6,4.9,1.4s-1.93-4.72,2.1-5.77,1.22,3,5.25-3.85,1.57-6.48,4.37-7.7,6.83-1.4,4.38-4.2S177,389.83,183,390s7,.2,7.38-1.56,1.93-1.77,0-4.39-2.8-3-2.45-3.5-3.67-5.95,1.75-.88,5.6,5.6,6.83,6.3"></path><path class="cls-1 COGOhLcR_13" d="M194.58,373c1.23.88.35,3.85,1.93,2.28s-1-1.58,0-4.2,1.57-3.33,3-1.93,1.93-3.5,1.23-4.9-4.46-4.37.31-1,4.59-.23,3.36-1.51-4-5.14-1.92-3.21c1.84,1.68,4.38.69,4.38,2.52a3.79,3.79,0,0,1-.16,1c-.9,3.15,1.07-9.1.79-7.7s.94,5.6,1.81,3.32,2.1-5.07,2.1-5.07"></path><path class="cls-1 COGOhLcR_14" d="M173.58,419.23c2.28,1.58,1.58,4,4.55,4.38s4.9-4.59,3.33-5.71-9.76-7.24-3.66-4.44,7.16,5.38,8,4.44,3.85-3.39,1.23-3.74-7.18,3.74-7.18,3.74"></path><path class="cls-1 COGOhLcR_15" d="M188.12,406.11c-2.29,1.22-4.21,6.47-1.06,4.9s4.37-1.49,4.37-2.67"></path><path class="cls-1 COGOhLcR_16" d="M191.43,396c-.35,1.4-1.92,7.17,0,6.65s5.25.38,3.85-3.31-2.62-5.79-2-4.74,1.11.7,2.35.87,3.86-2.1,2.29-4.72-4.55-4.9-1.4-3.85a14.64,14.64,0,0,1,5.42,3.5s1.58-4.73,1-5.25-1.92-3.33-1.22-3.59.52-1.31,3.67,1.66a49.59,49.59,0,0,1,4.9,5.27l-4.72-8.59s.22.7,1.86,0a8.2,8.2,0,0,0,2.86-2.33"></path><path class="cls-1 COGOhLcR_17" d="M190.49,420.81c-.11.52,3.57,9.45,4.09,8.4s-4.37-10.51-3.15-11,1,.88,3.15.7-1.4-3.67,0-3.67,3,4.2,4.9,4.2-.41-1.4.93-4.2,1.35-5.78,2.57-4.55,3.15,2.58,1.93-.29-4.73-7.59-1.93-5.31,3.9,5.51,4.49,3.28a56.74,56.74,0,0,1,2.86-6.89s2.63-4.79,1-4.79-2.27,8.11,0,6,2.8-3.34,2.8-4.92v-3.16"></path><path class="cls-1 COGOhLcR_18" d="M217.33,383.36c0,1.92-1.57,5.8,1.58,5.09s3.85-2.29,3.5-3.87,3.67,1.92,2.1-3.06-.18-2.89-1.58-5-6.67-10.15-2-4.72,4,6.54,5.7,5.72,1.92-4.5,1.92-5-.7-4.38-.87-3.5,3.67,3.32,3.85,1.92,1.57-4.37,0-4.55-1-4.45-.53-2.22,3.15-2,4.38,1-1.05,4.2-1.05,4.2"></path><path class="cls-1 COGOhLcR_19" d="M235.72,355.71c.16.17.34,6.2,2.44,3.8s4.2-.83,2.62-3.8-3-2.28-1.57-3,4.2,6.65,4.72-.17,1.75-4.9.53-6.83,1.4-.52,1.92-1.22-1.92-3.33-1.4-3.68,5.6,5.78,5.43,2.28-1.75-4.55-2.28-6.13-1.83-5.25,1.36-3.15,4.24,3.5,4.59,1.4"></path><path class="cls-1 COGOhLcR_20" d="M200.41,430.08c1.17,1.4-.47,4.73,1.93,4.9s5.76.7,5.13,0-3.61-6.48-2.56-5.69,6.3,6.58,5.42,3-.48-4.3-2.86-5.17-4.09,0-2.05,0,3.53-5.39,5-3.48,3,1.76,3,0a32.53,32.53,0,0,0,0-4.22,10.26,10.26,0,0,1,.06-2.39c.2-1.19.79-1.47,2,1.16,1.93,4,3.15,6,3.15,5.45s-1.75-13.9-.87-10.9.35,5.28,1.92,4,.18-2.5,0-4-1.14-5.75.74-5.4,1.36.44,2.76,1"></path><path class="cls-1 COGOhLcR_21" d="M222.76,397.32c-.18.56-1.75,6.23,1.92,5.32s4.9-.46,3.85-2.61-1.75-5.3-1.05-5.47a16.19,16.19,0,0,1,3,0c1.22,0,5.95-4,3.67-6s-4.72-4.47-3.5-3.25,3,3,4.11,2.45.47-1.4,1-3.32.51-4.2,2.44-3.68,2.1-1.33,2.62-3.2-1.05-4.18.88-2.94a14.69,14.69,0,0,1,3.24,2.94"></path><path class="cls-1 COGOhLcR_22" d="M242.88,368.48c.7.53,3.85,3.47,4.9,6.11s-2.45-8.38-2.45-8.38a3.65,3.65,0,0,0,1.93,1c1.05.1.92-1.3.72-2.18s-1.46-3.5.13-2.8,1.6,1.75,2.3-1.05-.53-4.21,1.22-3.5,2.28,1.74,2.45,0a3.91,3.91,0,0,0-.36-1.78c-.52-1.33-1.36-2.54-.73-2.42a26.83,26.83,0,0,0,3.89,0s-1.75-3.23-1.75-2.83.53,6,.53,6"></path><path class="cls-1 COGOhLcR_23" d="M260.56,344.68s-2.28,4.9,0,2.8,4.55-.7,2.1-3.5-1.75-1.57-3.85-3.5-3-2.1-2.1-1.92,7,4.7,7,4.7"></path><path class="cls-1 COGOhLcR_24" d="M216.94,436.21c-.31,2.45-.13,6,2,3.5s1.75-7.7,2.62-8,2.63,2.62,3.15,1,1.23-5.95.88-6.48-3.68-5-.7-2.6,3.15,3.65,3.67,1.55-.87-2.81-.52-3.86,1.57-2.1,3.32,0"></path><path class="cls-1 COGOhLcR_25" d="M233.59,414.86c1.94-1.93,3.89-2.22,2.13-3.56s-6.64-3.56-4.39,0,4.55,8.46,5.95,5.48-.32-4.2-1.56-6.47-7.36-7.18-4.39-6.48,6.13,4.32,7.18,4.87,4,2.92,1.92-.36-3.85-9.28-1.75-6.89,5.6,5.18,4.2,3.08a32.62,32.62,0,0,1-2.45-4.55c3.85,1.4,4.74,4.68,4.47,1.47a23.38,23.38,0,0,1,0-5"></path><path class="cls-1 COGOhLcR_26" d="M242.88,386.33c0,.53,6.13,9.8,6.13,8.93s.87-3.62,0-4.44-3.5-1.83-1.93-2.29,2.18.25,2.32-1.32-3.19-2.63.48-.88,4.9,1.93,4.2.88-2.8-4.2-2.27-4.9.87-.18,2.27,0,1.08-3.43.19-4.78-3.34-4.36-2.29-3.29a63.25,63.25,0,0,0,4.9,4.92c.88.52,3.33,1.12,1.58-1.63s-3.5-7.65-1.58-4.85,3.33,4.06,3.5,3.08-1.75-2.48-2.45-3.91,2.46-2,2.46-2a7.29,7.29,0,0,1,2.27,1.23,5.89,5.89,0,0,1,0,3.48"></path><path class="cls-1 COGOhLcR_27" d="M262.92,359.51s-1.65,5.69.8,4,1.21-4.49,2.44-1.69.35,5.43,0,4.55,1.92-3.32,1.92-4.9-2.1-2.45,0-1.57,4.55.51,2.45-2.28l-2.1-2.8s.88-7.17,1.23-5.42,2.45,7.87,3.5,5.95a5.43,5.43,0,0,0,.7-3.5"></path><path class="cls-1 COGOhLcR_28" d="M232.73,442.51s-2.8,4.2,0,3.32,4.73-.35,4-2.45-3.2-1.31-2.56-2.84,1.45-3.11,2.7-1.18.21,5.53,2.66,2.85c1.07-1.17,2.3-2.26,3.15-3.27,1.1-1.32,1.55-2.52.17-3.6-2.45-1.93-3.5-3.68-2.45-1.93s-1.05,3-1.05,3l1.58,1.4"></path><path class="cls-1 COGOhLcR_29" d="M242.88,424.48c-.52,1-2.1,3.15,0,3.5s1.58,5.74,4,2.35,3-5.15,1.75-5.85-2.79-.19-3.76-3.16-2.88-6,0-3.62,4.11,4.86,5.86,4.51-1.23-1.23,0-3.33,1-4.55,2.14-3.15,4.33,6.21,2.93,2-3-3.77-1.75-5,4.38,1.6,4.73,1.08,0-6.5,0-6.5-4,.31-1.93,1.39.88-1.61.88-1.61.31-5.62,1.2-4.35,3.52.74,4,2,.44,3.79,0,4"></path><path class="cls-1 COGOhLcR_30" d="M266,393s-4.2,2.57-1.57,2.34,4.85.11,3.74-2.34a11.7,11.7,0,0,0-.76-1.46,26.27,26.27,0,0,0-2.63-3c-1.93-2.2-2.84-4.3-2.38-3.25s7.8,6.62,7.28,4.89-3-5.22-1.51-2.61,7.05,5.39,5.76,2.61a14.29,14.29,0,0,0-3.73-5.17c-.52-.24,0-2.4,0-2.4l2.1,2.51s-1.22-1.69-.7-2.51a1.55,1.55,0,0,1,2.53,0"></path><path class="cls-1 COGOhLcR_31" d="M276.66,374.59c-.53.37-3.5,3.76-.88,2.94s4.2.61,3.5-1.77-.35.25-3-4.65-6-8.93-2.2-5.43,4.11,6.3,5.34,6.48,1.93.87,2.28-.35-2.62-5.27-2.1-4.65,3,2.72,3,2.72,2.27-.19,1.75,1.13"></path><path class="cls-1 COGOhLcR_32" d="M287.33,359.51c-1.22-.13-5.6,4.39-1.75,3.27s5.43,3.6,3.85-1.12-1.05-2.8-3.32-5.78,3.93,3.63,3.93,3.63"></path><path class="cls-1 COGOhLcR_33" d="M249.88,444.43s2.19,7,3.11,7.88-2.1-9.28-1.55-9.63,4.36,3.08,2.64,4.2-3.43,2.25-1.71,1.13,1-1.48,2.15-4.28-2.18-6.37,0-4.41,3.06,7.21,3.94,3.36,1.4-5.42,0-6.47-.7,5.42,2.27,1.4-3.15-6.69-1.92-7.28,2.1.76,4.11,2.36,4.81-1.91,3.24-3.4-6.48-3.9-6.3-5.66,5.12,2.95,6.76,4"></path><path class="cls-1 COGOhLcR_34" d="M269,417c1.4.66,4.63,5.91,3.45,3.11s-4.82-5.08-1.6-4.38,3.37,3.42,3.3-.13-4.72-7.63-1.7-6.9,10.55,7.86,7.92,4-6.47-9.07-4.2-7.85,3.9,3.94,4.75,3.46-3.31-7.35-2.46-6.89,5.59.81,4.19,2"></path><path class="cls-1 COGOhLcR_35" d="M282.26,394.56l6.82,6.12s-8.05-7.35-6.82-8.22,1.8-4.92,3.35-2.37,4.86,8.84,4.43,4.47-1.83-5.4-1.83-6.11-2.1-5.79-.18-4.22,2.28,2.28,3,2.1-2.64-5.19-1-3.73,6,5.31,3.94,2.16-4.9-6.48-2.1-5.08,5.52,3.5,4.33,1.84-3.45-6.35-1.88-5.49,5.78,5.4,4.2,3-4.28-7.35-2.32-6.3,4.25,2.32,4.25,2.32"></path><path class="cls-1 COGOhLcR_36" d="M261.26,453.18c1.05,1.75,4.42,4.55,5.36,5.95s.06,6.13,3.56,2.63-1.75-9.1-1.22-8.58,3.45,4,3.45,4-.3-4.38-1.35-5.6-3.15-6.13-.88-4.38,5.86,7.81,5.73,5.13-1.73-8.1-1.8-9.33-2.76-3,.07,1.23,5.14,6.65,4.24,3.32-3.86-9.35-1.76-8.26,3.67,5.46,3.67,3.71v-2.49"></path><path class="cls-1 COGOhLcR_37" d="M265.11,451.11V449c0,2.13,1.51.77,1.51.77"></path><path class="cls-1 COGOhLcR_38" d="M280.33,432.69c.7.89,8.23,6.93,8.58,7.85s-5.27-8.4-4.47-7.85,1,1.77,1.67,1.24-.34-3.33-1.48-4.64-7.62-7.43-3.25-4.11,2.63,3.81,5.78,5.15,3.18-1.47,1.76-3.05-5.09-6.15-1.59-3.07,2.88.31,2.49-.58-4.06-5.64-.74-2.31,1.05-1.17,1.05-1.17a4.08,4.08,0,0,1,2.28,3.48,6.53,6.53,0,0,0,1.57,4"></path><path class="cls-1 COGOhLcR_39" d="M292.93,412.73c0,1.08-1.05,7.69,1.05,5.17s2.8-2.26,0-6-4.72-5.82-4.72-5.82,6.14,6.6,6.57,6.62-.8-4.39-.8-4.39.7,2.9,2.63,3-.88-3,0-2.6"></path><path class="cls-1 COGOhLcR_40" d="M297.66,396.48c.35.35.52,3.68,2.8,3.5s3-1.3,2.1-2.66.17,5.11,1.57,3.36.35-4.72,0-6.12-3.32-8.25-.52-4.47,9.45,10.59,5.42,4.47-5-7.95-5-7.95.5.28,3.13,1.84"></path><path class="cls-1 COGOhLcR_41" d="M311.13,380.56c-1.57,1.4-2.1,6.3,1.05,4.37s2.8-1.75,2.45-4.37-3-6.92-1.05-5.56-.52,6.31,2.28,5.06,2.8-1.91,2.45-4-1.78-6.52.16-5,3.86,3.23,3.86,3.23"></path><path class="cls-1 COGOhLcR_42" d="M282.13,457.73c-.22.7,7.13,9.8,7.13,9.8s-1.05-6.65,0-4.9,1.27,5.25,2,2.45-3.08-7-1.16-6.12,5.95,3.32,3.85.17-4.85-7.17-2.69-5.25,3,5.43,3.28,2.8-1.55-6.95,1.64-5.57,6.17,6.27,4.25,2.42"></path><path class="cls-1 COGOhLcR_43" d="M305.36,442.86c-.7-.35,0-1.93-.7-.35s-.53,3.74,0,3.44.35-.47.7-1"></path><path class="cls-1 COGOhLcR_44" d="M256.37,316.68c-.54-2.27,6,1.93,6,1.93l1.34-2.6-1.34,4.68"></path><path class="cls-1 COGOhLcR_45" d="M268.15,320.69c-.07-.51.11-4.53,1.33-2.34s1.4,8.13,1.4,8.13l1.53-6.47"></path><path class="cls-1 COGOhLcR_46" d="M284,325.61s3.76-3.57,3-.56l-.75,3s2.79-5.49,3.76-3-1.48,5.63-1.48,5.63"></path><path class="cls-1 COGOhLcR_47" d="M299.58,329.11s-.35,5,.88,4.09,2.45-1.64,2.45-2.52-3.5-5.07-2.45-4.2,5.25,4.2,5.25,4.2"></path><path class="cls-1 COGOhLcR_48" d="M317.08,338.5s1.05-3.44,0-5.18-2.45,1.91-2.45,1.91l-2.45-2v-4.27"></path><path class="cls-1 COGOhLcR_49" d="M329.16,336.63c-.88,1.75-1.75,6.95-.7,6.63s1.05,3,3.67,1.07,5.25-2.19,3-3.55-5.6,2.48-5.6,2.48"></path><path class="cls-1 COGOhLcR_50" d="M339.66,346.64c.52-1.26,2.62-5.86,2.62-5.86l5.78,7.23-1.05-5.6-3.15,4.9"></path><path class="cls-1 COGOhLcR_51" d="M361.18,346.64c.7-1.08,5.95-8.43,3.68-10s-7.35-2.31-2.28-3.43,10,.81,8.23-4.27-2.1-3.5-1.75-5.07-8.23,1.22-5.95,2.62,7.35-.7,9.45,0,1.22-3.09,1.22-3.09"></path><path class="cls-1 COGOhLcR_52" d="M376.93,313.88c-.87-.87-5.06-3.19-3-2.82s1.05,1.6,2.1.37-.7-8.22.87-7.35,5.78,5.08,3.5,2.1-5-4.37-3.19-4.37h3.85"></path><path class="cls-1 COGOhLcR_53" d="M378.51,292.18c3.85,1.4,7.52,4.2,5.42,1.93a38.8,38.8,0,0,1-2.84-3.33,22.79,22.79,0,0,1,3.46.7c-.09.18,3.06,1.23,0-2.8s-7.27-6.65-3.07-4,3.33,3.32,4.2,2.62-4.2-8.75-2.45-7.35,5.25,3.85,5.25,3.85,1.58-5.07,0-6.65-8.92-8.05-4.63-5.95,4.11,3.15,5.33,3,.18-2.76,1.93-3.39,2.62,2.21,3.67,0l1.05-2.21"></path><path class="cls-1 COGOhLcR_54" d="M403.88,313.88c-1.4-.87-8.22-2.57-4.2,2.13s4,4.48,5.95,4.68,2.28-2.26,4.38-2.34.52-5,0-5.5-4.92-5.62-5.26-6.14-5.24-5.08-4.54-1A24.32,24.32,0,0,0,403.88,313.88Z"></path><style data-made-with="vivus-instant">.COGOhLcR_0{stroke-dasharray:1234 1236;stroke-dashoffset:1235;animation:COGOhLcR_draw 2000ms linear 0ms forwards;}.COGOhLcR_1{stroke-dasharray:310 312;stroke-dashoffset:311;animation:COGOhLcR_draw 2000ms linear 18ms forwards;}.COGOhLcR_2{stroke-dasharray:231 233;stroke-dashoffset:232;animation:COGOhLcR_draw 2000ms linear 37ms forwards;}.COGOhLcR_3{stroke-dasharray:73 75;stroke-dashoffset:74;animation:COGOhLcR_draw 2000ms linear 55ms forwards;}.COGOhLcR_4{stroke-dasharray:64 66;stroke-dashoffset:65;animation:COGOhLcR_draw 2000ms linear 74ms forwards;}.COGOhLcR_5{stroke-dasharray:85 87;stroke-dashoffset:86;animation:COGOhLcR_draw 2000ms linear 92ms forwards;}.COGOhLcR_6{stroke-dasharray:185 187;stroke-dashoffset:186;animation:COGOhLcR_draw 2000ms linear 111ms forwards;}.COGOhLcR_7{stroke-dasharray:1140 1142;stroke-dashoffset:1141;animation:COGOhLcR_draw 2000ms linear 129ms forwards;}.COGOhLcR_8{stroke-dasharray:66 68;stroke-dashoffset:67;animation:COGOhLcR_draw 2000ms linear 148ms forwards;}.COGOhLcR_9{stroke-dasharray:29 31;stroke-dashoffset:30;animation:COGOhLcR_draw 2000ms linear 166ms forwards;}.COGOhLcR_10{stroke-dasharray:29 31;stroke-dashoffset:30;animation:COGOhLcR_draw 2000ms linear 185ms forwards;}.COGOhLcR_11{stroke-dasharray:40 42;stroke-dashoffset:41;animation:COGOhLcR_draw 2000ms linear 203ms forwards;}.COGOhLcR_12{stroke-dasharray:82 84;stroke-dashoffset:83;animation:COGOhLcR_draw 2000ms linear 222ms forwards;}.COGOhLcR_13{stroke-dasharray:65 67;stroke-dashoffset:66;animation:COGOhLcR_draw 2000ms linear 240ms forwards;}.COGOhLcR_14{stroke-dasharray:48 50;stroke-dashoffset:49;animation:COGOhLcR_draw 2000ms linear 259ms forwards;}.COGOhLcR_15{stroke-dasharray:13 15;stroke-dashoffset:14;animation:COGOhLcR_draw 2000ms linear 277ms forwards;}.COGOhLcR_16{stroke-dasharray:79 81;stroke-dashoffset:80;animation:COGOhLcR_draw 2000ms linear 296ms forwards;}.COGOhLcR_17{stroke-dasharray:96 98;stroke-dashoffset:97;animation:COGOhLcR_draw 2000ms linear 314ms forwards;}.COGOhLcR_18{stroke-dasharray:76 78;stroke-dashoffset:77;animation:COGOhLcR_draw 2000ms linear 333ms forwards;}.COGOhLcR_19{stroke-dasharray:65 67;stroke-dashoffset:66;animation:COGOhLcR_draw 2000ms linear 351ms forwards;}.COGOhLcR_20{stroke-dasharray:96 98;stroke-dashoffset:97;animation:COGOhLcR_draw 2000ms linear 370ms forwards;}.COGOhLcR_21{stroke-dasharray:63 65;stroke-dashoffset:64;animation:COGOhLcR_draw 2000ms linear 388ms forwards;}.COGOhLcR_22{stroke-dasharray:56 58;stroke-dashoffset:57;animation:COGOhLcR_draw 2000ms linear 407ms forwards;}.COGOhLcR_23{stroke-dasharray:28 30;stroke-dashoffset:29;animation:COGOhLcR_draw 2000ms linear 425ms forwards;}.COGOhLcR_24{stroke-dasharray:45 47;stroke-dashoffset:46;animation:COGOhLcR_draw 2000ms linear 444ms forwards;}.COGOhLcR_25{stroke-dasharray:85 87;stroke-dashoffset:86;animation:COGOhLcR_draw 2000ms linear 462ms forwards;}.COGOhLcR_26{stroke-dasharray:89 91;stroke-dashoffset:90;animation:COGOhLcR_draw 2000ms linear 481ms forwards;}.COGOhLcR_27{stroke-dasharray:51 53;stroke-dashoffset:52;animation:COGOhLcR_draw 2000ms linear 500ms forwards;}.COGOhLcR_28{stroke-dasharray:44 46;stroke-dashoffset:45;animation:COGOhLcR_draw 2000ms linear 518ms forwards;}.COGOhLcR_29{stroke-dasharray:90 92;stroke-dashoffset:91;animation:COGOhLcR_draw 2000ms linear 537ms forwards;}.COGOhLcR_30{stroke-dasharray:61 63;stroke-dashoffset:62;animation:COGOhLcR_draw 2000ms linear 555ms forwards;}.COGOhLcR_31{stroke-dasharray:49 51;stroke-dashoffset:50;animation:COGOhLcR_draw 2000ms linear 574ms forwards;}.COGOhLcR_32{stroke-dasharray:28 30;stroke-dashoffset:29;animation:COGOhLcR_draw 2000ms linear 592ms forwards;}.COGOhLcR_33{stroke-dasharray:97 99;stroke-dashoffset:98;animation:COGOhLcR_draw 2000ms linear 611ms forwards;}.COGOhLcR_34{stroke-dasharray:68 70;stroke-dashoffset:69;animation:COGOhLcR_draw 2000ms linear 629ms forwards;}.COGOhLcR_35{stroke-dasharray:102 104;stroke-dashoffset:103;animation:COGOhLcR_draw 2000ms linear 648ms forwards;}.COGOhLcR_36{stroke-dasharray:92 94;stroke-dashoffset:93;animation:COGOhLcR_draw 2000ms linear 666ms forwards;}.COGOhLcR_37{stroke-dasharray:5 7;stroke-dashoffset:6;animation:COGOhLcR_draw 2000ms linear 685ms forwards;}.COGOhLcR_38{stroke-dasharray:83 85;stroke-dashoffset:84;animation:COGOhLcR_draw 2000ms linear 703ms forwards;}.COGOhLcR_39{stroke-dasharray:44 46;stroke-dashoffset:45;animation:COGOhLcR_draw 2000ms linear 722ms forwards;}.COGOhLcR_40{stroke-dasharray:54 56;stroke-dashoffset:55;animation:COGOhLcR_draw 2000ms linear 740ms forwards;}.COGOhLcR_41{stroke-dasharray:43 45;stroke-dashoffset:44;animation:COGOhLcR_draw 2000ms linear 759ms forwards;}.COGOhLcR_42{stroke-dasharray:66 68;stroke-dashoffset:67;animation:COGOhLcR_draw 2000ms linear 777ms forwards;}.COGOhLcR_43{stroke-dasharray:7 9;stroke-dashoffset:8;animation:COGOhLcR_draw 2000ms linear 796ms forwards;}.COGOhLcR_44{stroke-dasharray:15 17;stroke-dashoffset:16;animation:COGOhLcR_draw 2000ms linear 814ms forwards;}.COGOhLcR_45{stroke-dasharray:20 22;stroke-dashoffset:21;animation:COGOhLcR_draw 2000ms linear 833ms forwards;}.COGOhLcR_46{stroke-dasharray:20 22;stroke-dashoffset:21;animation:COGOhLcR_draw 2000ms linear 851ms forwards;}.COGOhLcR_47{stroke-dasharray:21 23;stroke-dashoffset:22;animation:COGOhLcR_draw 2000ms linear 870ms forwards;}.COGOhLcR_48{stroke-dasharray:17 19;stroke-dashoffset:18;animation:COGOhLcR_draw 2000ms linear 888ms forwards;}.COGOhLcR_49{stroke-dasharray:25 27;stroke-dashoffset:26;animation:COGOhLcR_draw 2000ms linear 907ms forwards;}.COGOhLcR_50{stroke-dasharray:28 30;stroke-dashoffset:29;animation:COGOhLcR_draw 2000ms linear 925ms forwards;}.COGOhLcR_51{stroke-dasharray:58 60;stroke-dashoffset:59;animation:COGOhLcR_draw 2000ms linear 944ms forwards;}.COGOhLcR_52{stroke-dasharray:33 35;stroke-dashoffset:34;animation:COGOhLcR_draw 2000ms linear 962ms forwards;}.COGOhLcR_53{stroke-dasharray:84 86;stroke-dashoffset:85;animation:COGOhLcR_draw 2000ms linear 981ms forwards;}.COGOhLcR_54{stroke-dasharray:52 54;stroke-dashoffset:53;animation:COGOhLcR_draw 2000ms linear 1000ms forwards;}@keyframes COGOhLcR_draw{100%{stroke-dashoffset:0;}}@keyframes COGOhLcR_fade{0%{stroke-opacity:1;}94.44444444444444%{stroke-opacity:1;}100%{stroke-opacity:0;}}</style></svg>