<svg id="Layer_1" data-name="Layer 1" xmlns="http://www.w3.org/2000/svg" viewBox="0 0 500 500" style=""><defs><style>.cls-1{fill:none;stroke:#1d1d1b;stroke-miterlimit:10;}</style></defs><path class="cls-1 ziBOuglV_0" d="M224.11,34.81s-7.13-4.91-10.7,3.12-10.7,29-12.48,31.66-17.4,23.19-18.73,25-7.58,25.86-2.68,27.2,6.69,6.24,11.15,4.46a20,20,0,0,0,7.13-4.9l1-1.94s2.22,8.92,3.71,10.7,8.33,11.6,12.19,12.34,19,4.31,21.4,4.31,15.46-4,17.69-6.24S264,125.77,264,125.33s4.46-11.3,4.46-11.3L273,102.14s.15-5.65,0-7.88-1-4,.74-8,1.34-16.21,1-17.69A76.7,76.7,0,0,0,272,58.74a33.24,33.24,0,0,0-6.25-9.37c-2.23-2.23-11.29-9.81-13.82-8.92s-7.43,1.64-9.07,0-4.16-5.2-5.5-5.35-6.09,1.64-7.87,1S224.11,34.81,224.11,34.81Z"></path><path class="cls-1 ziBOuglV_1" d="M177.67,119.38s-1.72-5-1.72-5.5,1.79-22.74,3.42-23.85,2.23-10.93,2.83-12.42.59-8.47,1.19-10,8.91-5.21,8.91-5.21,1.79-1.93,1.64-2.67,2.23-10.11,4.46-18.58a40.25,40.25,0,0,1,6.54-13.83S203.3,22.77,203,22s3-1.93,5.35-.89,4.75-2.38,5.2-2.67,7-4.61,9.22-6.55,7.43-5,8.17-5a19,19,0,0,0,4.31,0c2.38-.3,1.49-1,3.27-1.49s2.08-.89,4.61,1.19a14.28,14.28,0,0,0,6.24,3c.6,0,.15.89,1.64-.9s5.5-2.22,6.24-1.18,3,1.63,2.68,3.27,3,1.33,3.56.89,3.42-1.49,4.31.29-2.37,1.34-1,3.57,2.53,1.19,3.87,3.42,4.31,4,5.05,6.54-.74,4.32,1.64,7.88,2.38,2.38,3.71,6.39,2.68,6.1,2.68,8.62-1.78,6-3.27,7.73-.3,5.65-.15,8.47a23.13,23.13,0,0,1-.15,6c-.3,1.19-3.42,10.74-.44,15.85s1,5.7,4,9.42,7,4.31,5.2,7.73-6.69,3.86-4.16,7.88,2.66,3.56,4.6,6.83,3.28,4.76,3.28,7.29.3,6.83,0,7.73-3.12,13.23-6.1,17.54-1.63,6.24.6,11,5.65,4.16,3.12,8.47-2.23,4.63.89,8.56,4.91,15.22,3,20,1.49,7.33,3.57,9.68,1.64,5.78,0,8.15-1.78,3.87-.44,4.17,4.75,1.19,5.35,3.56.59,16.27-1.34,18.47-4.31,1.6-4,5.32.59,5.2,3,6.09,3.27,2.68,5.35,2.82,4.9,2.09,4.31,2.53-11.59-4.46-11.74-4,3.42,4.31,1.34,5.94-7,5.36-7,5.36,3.27-5.36,3.42-6.84a5.14,5.14,0,0,0-1.79-3.72c-.44-.15-4.16-3.12-4.16,1.49s-2.67,8.92-3.12,9.07-2.82-2.83-2.38-4.32-4.61-5.64-4.31-2.82-1.48,5.35-2.23,4.91-2.67-2.68-2.82-3.57-2.83-1.19-3.87-3.12-4.31-7.88-4.31-7.88l-1.81-9.39"></path><path class="cls-1 ziBOuglV_2" d="M186.06,92c.75,1.49,2.23,6.54,1.34,8.62s-3.27,3.87-2.68,6.1,4,8.47,3.87,9.51.6,3.42,0,4.16-1.86,5.06-1.86,5.06"></path><path class="cls-1 ziBOuglV_3" d="M185.72,125.48s-3.37,6.83-5.31,8.47-2.67.89-5.64,4.46-4.17,5.35-3.87,7.58,3.72,8.32,3.72,8.32l-2.38,6.1s-1.64,1.63-.15,3a4.65,4.65,0,0,1,1.63,2.68s-5.2,1.33-5.94,4.16.59,13.08,2.23,15,7.28,6.54,9.07,6.54,4.56,3.87,5.55,4l5.3.75c1,.15,4.46-.89,4.46-1.34s.59-2.08,1.93-1.19,2.23.45,3-.89.6-3.27,1.19-3.87,3.57.15,1.49-1.63-4.61-2.23-4.46-4.91,4.31-2.52,3.56-3.56-.74-5.8.45-8.33.89-.74,1.93-5.65,1.79-6.68,3-8.17-.6-6.69-.6-6.69a43.64,43.64,0,0,1,1.93-5.35c1-2.23,1.42-2.52.9-5.2a9.57,9.57,0,0,0-1.73-4.09"></path><path class="cls-1 ziBOuglV_4" d="M195.46,123.46s2.79,8,.86,10.64-2.83,1-5.2,6.09-4.88,8.48-2.29,11.89,5.38,3,3.54,6.54a42,42,0,0,1-4.64,6.84c-1.37,1.93-3.6,3.27-1,5.35s5.57,3.42,3.49,5.8-5.23,3.72-4.69,5.8a12.38,12.38,0,0,0,3.3,5.5c1.39,1.33,2,2.37,3.62,2.67a61.71,61.71,0,0,0,7.55,0"></path><path class="cls-1 ziBOuglV_5" d="M182.35,160.26s1.63,3.57,1.18,6.09a41.24,41.24,0,0,1-2.37,7.44c-1.19,3.27-4.6,3.12-3.49,6.83a24.55,24.55,0,0,0,2.86,6.84c1.22,2.08,2.52,5.2,4.1,5.35s5.59,2.53,5.59,2.53l4.17-.15"></path><path class="cls-1 ziBOuglV_6" d="M190.22,133.21s3,1.63-1.39,7.87-5.89,7.59-6.48,7.73-1.19,0-3.27,1.94a69.28,69.28,0,0,0-5.84,7.08"></path><path class="cls-1 ziBOuglV_7" d="M189.78,126.89s-2.23,4.38-4.31,5.28a28,28,0,0,0-7,5.35c-1.34,1.48-4.76,4.46-4,6.83a47.07,47.07,0,0,0,2.38,5.65l2.23.75"></path><path class="cls-1 ziBOuglV_8" d="M201.87,128.9a16.77,16.77,0,0,0,0,5c.39,3.27.8,3.86,0,7s-.35,4-2.73,6.39-4.75,4.16-4.75,5-.15,3.87,0,6.84.74,6.24,1.48,7,2.83,2.38,2.46,3.13-.52,4.6,0,5.5a44.36,44.36,0,0,1,1.67,5.32"></path><path class="cls-1 ziBOuglV_9" d="M200.9,179.72s4.36,5.21,8,6.25a100.62,100.62,0,0,0,13.74,2.83c2.52.15,13.23-.45,14.86-1s8.62-3.28,8.62-3.28l6.39-4.33s2.83-5.92,1.49-8.59-4.46-3.27-3.42-6.25,2.83-4.31,2.38-5.94-.15-7-.15-7l1-11.89"></path><path class="cls-1 ziBOuglV_10" d="M208.89,137.91c.41.44,3.93,21.46,2.59,25.47"></path><path class="cls-1 ziBOuglV_11" d="M202.42,188.82s14.56,4.44,16.94,4.44a11.76,11.76,0,0,0-3.27,4.75c-1.19,3.13-1.34,7.44,1,8.63s4.31,2.22,6.54,1.63,4.9-1.63,6.39-4.31.59-6.36,0-7.42-3.69-3-3.69-3l10.68-1.48s7.68-2.7,8.13-3c3.19-1.94,6.43-4,6.43-4l1.48-6.3"></path><path class="cls-1 ziBOuglV_12" d="M221.59,195.34a1.26,1.26,0,0,0,1.78,1.2c1.78-.46,1.34-1.5,2.08-1.2a9.27,9.27,0,0,1,2.41,1.93,7.17,7.17,0,0,1,1.16,3.12c0,.6-2.65,3.57-2.65,3.57s-2.7,1.49-3.59,1.49-6.4-1.34-5.65-3.42,1.48-4.28,3-5.49Z"></path><path class="cls-1 ziBOuglV_13" d="M244.75,189.29s-7.85,6.49-8,8.28-1.49,3.42.74,7,6.24,9.67,7,11.3,2.08,7,1.19,9.07-4.75,8.63-3.42,6.39c.84-1.43.35-6.09-.64-8.92s.64-.89-2-4.46-4.61-3.86-4.61-7.28-2.37-10.26-1.63-12.49a41.14,41.14,0,0,1,3-6"></path><path class="cls-1 ziBOuglV_14" d="M251.61,185.08s-2.67,5.2-2.67,7.58,2.52,4.56,1.41,7.71-1.56,5.67-2.3,6.86-3,2.38-3.27,5.5,1.93,3.72,2.37,6.24,1.46,10.85,1.1,11.6-2,4-1.39,5.35-.6,4.16,2.23,5.79,6.24,2.38,6.39,4.91a15.11,15.11,0,0,1,0,4.46c-.3,2.23-2.38,5.94-3.57,6.39s-1.93,0-3.72,0a32.6,32.6,0,0,0-3.44.2s5.53,5.45,6.57,4.85,6.39-1.93,6.68-2.67,2.68-3.87,2.23-6,1-1.19-1.78-5.35-3.59-5.35-4.1-7.28-2.89-3.57-2.59-6.1.27-3.12,1.33-5,.13-4.26,0-5.77-.61-2.26,1.26-4.93,2.32-1.64,2.32-4.31a19,19,0,0,0-.6-4.76s3.83,2.53,4.22,4,.24,3.13,2.32,5.21,1.19,3.86-1.19,6.54-5.35,3.27-4.46,6.54,3.72,2.67,4.46,7.58.11,5.94,2.36,7.58,2.55,1.19,3.14,2.23.3,3.86-1,4-3.86,1-4.16,2.38-1.49,3,0,5.2,4.45,5.35,5.49,4.31l4-4a20.48,20.48,0,0,0-4,.89c-.74.45-3.27,1.34-3.57-1.34s-1.48-2.37.15-3.27.15.15,1.64-.89l1.48-1s1,3.57,1.79,4"></path><path class="cls-1 ziBOuglV_15" d="M268.11,220.76c.45.59,1.49.89,3.12,4.75s3.42,3.15,1,6.26-4,4.74-2.82,7a11.7,11.7,0,0,1,1.32,3.12,2.36,2.36,0,0,1-3.7,0c-1.93-2.08-3.57-.29-3.86-4.46s.29-4.6,1.63-6.83,3.61-7.73,3.44-8.77-.32-.75-1.65-4.17-3.87-1.48-1.79-7,.93-4.91,3.44-8.62,2.36-4,3-6.74.6-.73-1.63-4.58-3.57-3.84-3.27-5.48-4-2.82-3.2-9.36-.67-4.46,4.39-9.67,6.83-5.6,4.75-9.11-3.41-4.16-4.75-6.44-.89-3.77,1.48-6.15,3.8-4.6,4.43-13.82-6.51-6.54-7.25-6.54a3,3,0,0,1-1.56-.68"></path><path class="cls-1 ziBOuglV_16" d="M273,102.14s1.29,2.38,2.06,4.31,3.44,6.39,2.69,7.43-1.52,3.12-2.69,3.87-3.85,5.92-5.93,5.71"></path><path class="cls-1 ziBOuglV_17" d="M197.51,110.17c-.75,1-.13,5-3.19,2.63s-6.59-1.44-5.49-4.86,1.84-7.43,1.69-8.92-2.08-3.12-.74-5l4.54-6.55"></path><path class="cls-1 ziBOuglV_18" d="M200.93,69.59s-1.49,11-2.6,13.23a45.46,45.46,0,0,0-2.9,10c0,1.19,1.19,10.55,1.33,11.89s.45,5.35.75,6.83,1.34,7.88,1.34,7.88"></path><path class="cls-1 ziBOuglV_19" d="M224.56,67.51s-4.76-3.42-5.95-3.72-7.43-2.23-7.43-2.23-5.94,2.53-6.54,4.16"></path><path class="cls-1 ziBOuglV_20" d="M252.06,73c2.23-1.49,10.55-1.79,10.55-1.79L267.37,73l4.16,5.35"></path><path class="cls-1 ziBOuglV_21" d="M248.64,80.74c1.64-1.19,7.88-2.68,9.36-2.38a21,21,0,0,1,5.65,2.38A14.28,14.28,0,0,1,265.88,83"></path><path class="cls-1 ziBOuglV_22" d="M226.37,78.36a21.23,21.23,0,0,1-3-3.57c-3.47-4.83-13.82-3.57-13.82-3.57l-3.42,1.49"></path><path class="cls-1 ziBOuglV_23" d="M226.37,80.64c-1.81-.8-2.7-3-5.23-4.51s-2.08-.89-4.61-1.34-3-.89-4.46,0-3,2.66-3.27,2.67-3.41.86-3.41.86l-.75-.86"></path><path class="cls-1 ziBOuglV_24" d="M245.82,84.9a14.14,14.14,0,0,1,2.82-2.76,3.62,3.62,0,0,1,1.49-.66,37.66,37.66,0,0,1,7.13,0c1.49.15,3.42.3,4.53,1.49s1.12,1.93,1.71,3a4.38,4.38,0,0,0,2.38,1.48"></path><path class="cls-1 ziBOuglV_25" d="M248.64,84.37a3.32,3.32,0,0,0,2.53,3,22.74,22.74,0,0,0,4.68.75,12.45,12.45,0,0,0,3.34,0c.6-.15,1.19.15,1.79-.75a5.81,5.81,0,0,1,2.52-1.48"></path><path class="cls-1 ziBOuglV_26" d="M250.13,81.48s1.93,2.21,1.93,2.89a2.53,2.53,0,0,0,2.67,1.95c1.64-.08,3-.08,3.57-.83a7.05,7.05,0,0,0,.89-2.52V81.73"></path><path class="cls-1 ziBOuglV_27" d="M212.07,74.79a3.45,3.45,0,0,0,0,3.57c1.19,1.63.9,2,2.53,2.28s3.87-.5,4.31-1.09,1.07-.08,1-1.23a28,28,0,0,1,0-2.88"></path><path class="cls-1 ziBOuglV_28" d="M207.57,77.74s3.45,4,4,4.48,2.19.3,4,.75,3.3.59,4.39,0,4.66-2.28,4.66-2.28l.53-.93"></path><path class="cls-1 ziBOuglV_29" d="M281,186.12c-.44.89-3,4.42.75,7.49s6.54,2.87,6.24,6.76.89,3.59-2.23,6.86-5.05,2.53-5.2,6.84-1.93,4.9,1.19,7.43,1.38,2.53,6.26,5.5,4.44,1.22,5.48,4.77-.15,5.78-.74,6.38-8.48-.45-4.46,3.42,8.55,4,5.61,6.68-4.77,3.28-6.6,4.61"></path><path class="cls-1 ziBOuglV_30" d="M275.25,170.22s-6.69-5.2-2.53,4.46,6.39,7.88,5.95,12,.44,3.52-1.94,6.89-6.39,6-3.86,8.57,4.34,2.72,2.17,6.26-2.29,5.92,0,9.05,4.39,3.41,4.75,7,5.29,6.69,0,9.07-8.4,2.23-6.32,6.69,3,11.59,4.6,13.23a57.12,57.12,0,0,1,4.15,5v.89"></path><path class="cls-1 ziBOuglV_31" d="M170,185.23l-23.11,11-14.35,6.84s-11.44,27.5-11.59,33.15-1.79,21.55-1.34,24.22-6.84,46.83-7,47.42-3.12,10-4.46,11.89-5,3.87-2.37,6.1,7,3.27,5.64,4.6-4,4.17-3.71,4.61-.45,20.07,0,21.55,1.78.3.59,3.57,3.27,3.42,3.27,3.42,2.23.6.75,3.72,1.18,3.42,1.33,5.65-2.52,2.52-1.33,4.75.74,1.34,2.67,2.68,2.08.44,4.31,3,3.27,1.64,3.12,5.8-1.33,5.5.15,8,2.68,6.25,4.46,7.29a28.67,28.67,0,0,1,5.5,3.86c1.49,1.49,5,4,4.88,3.57s-8-5.5-8-8.62-.15-2.38,2.08-6.24,4.46-7.29,6.84-9.37,3.12-4.76,6.84-5.5,4-1.19,7.13-1.19,3.57-1.34,5.65,1.49,2.23,3.27,2.23,4.75.44,7.73,1.48,2.83-.29-6.24-.14-9.37-2.53-5.2-3.42-8.17-1.79-2.08-.75-5,1.19-4-2.08-7.14-3.71-6.24-2.82-7.88,2.38-1.34-.89-11.15-7.88-26.16-7.14-31.51-8.17-7.13-2.52-19.92,9.06-1.33,5.94-16.35-4.61-18.72-2.38-21.7,5.21-5.65,5.5-17.69-2.52-14.56-3-19.17a14.24,14.24,0,0,0-2.68-7.28"></path><path class="cls-1 ziBOuglV_32" d="M154,200.37c1.48.47,3.41,2.7,4.75.91s2.83-3.09,4-4.74,3.56-3.77,3.86-2.93-6.09,2.47-3.42,5.44a29.13,29.13,0,0,0,4.4,4.32c1,.74,6-.6,4.52,2.08s-1.19,1-3,4.9-4.79,8.47-6,12.34-2.37,56,5.21,77.29a158.79,158.79,0,0,0,19.92,38c.45.45,8.47,13.23,9.81,15s-3.86,5.35-6.54,3.12-2.82-6.69-4.75-3.42-4.46,4.16-6.25,2.53.45-4.46-3.19-1.34-4.69,8.32-7.36,7.88-2.53-6.69-4.46-.89,1.34,8,1.63,9.66,5.65,8.17,4.31,10.25.75,4,2.68,4.61,3.72,2.23,6.84,0,6.69-4.76,7.58-4.31.15-5.5.44-5.95a12.32,12.32,0,0,1,7.59-3.56c4.16-.3,8.91.59,10.55,0s9.66-.45,9.07-3-1.19-3.12-3.27-5.2-1-2.38-3.13-5.05.3-4.16-3.41-2.68a13.49,13.49,0,0,1-6.54,1l-1-1.93"></path><path class="cls-1 ziBOuglV_33" d="M210,362.26c-1.63,0-6.69.89-8.62,0s-15,.4-15,.4l-18.11,10"></path><path class="cls-1 ziBOuglV_34" d="M188.59,381.14s1.93,5.1,4.16,5.45,4-.4,6.39-1.58,5.5,1.23,6,1.58,1.63,3.17,3.71,3.62a15.23,15.23,0,0,0,2.53.32,12.69,12.69,0,0,0,3.42-.32c1.93-.45,11.74-1.93,12-2.68s-.45-13.38,0-14.12-1-4.61-1-4.61.61-3.71,1.12-5.35,0-5.65,0-5.65-5.43-3-6.62-1.48-4.61,4.72-4.91,5.63-2.37,1.5-2.37,1.5"></path><path class="cls-1 ziBOuglV_35" d="M183.88,195.34l-1.24,55.14s-2.52,48.61-1.78,50.39,3.07,15.61,3,16.5S188.29,338,188.29,338"></path><path class="cls-1 ziBOuglV_36" d="M248,260.62s-64.23.82-66,2.48"></path><path class="cls-1 ziBOuglV_37" d="M250,267.88s-66.94-.75-68.25,1.48"></path><path class="cls-1 ziBOuglV_38" d="M250.72,263.1s-2.47,13.55-2.72,14.59-8.28,32.7-9,37-5.35,36.27-6.1,38.05-3.27,9.51-3.27,10-3.39,3.54-3.39,3.54"></path><path class="cls-1 ziBOuglV_39" d="M245.37,352.75c0-.45,7.43-30.77,7.73-36.12s-1-9.66,1.34-13.53S258,290,258,290l4.31-25.25V263.1"></path><path class="cls-1 ziBOuglV_40" d="M286.54,300.58c.15.74-17.24,31.81-24.23,37.45s-17.39,15.91-17.53,16.5-9.82,8.77-10.41,8.92-3.57,4.16-6.09,4.76l-2.53.59"></path><path class="cls-1 ziBOuglV_41" d="M310,260.62s1,15.58,0,17.51-5.28,13.68-6.62,16.8-2,9.36-8.46,17.54A185.5,185.5,0,0,1,279.79,329"></path><path class="cls-1 ziBOuglV_42" d="M293.72,184.59s28,15.95,28.65,17,10.4,10,10.4,10l7.43,20.15s11.89,51.86,15.76,56.47,4.31,8.47,5.94,10.11,1.49,8.32,1.49,8.32,7,9.51,7.58,19,1.64,7.13,2.08,7.88-1.93,3.12,0,3.56,3-.15,3.27,2.38,1.19,16.65,1.19,16.65-1.63,8,0,8.62,3.87.59,1.79,4.61-4.17,5.94-3.42,7.73,4.31,1.93,1,4.9-9.22,6.84-10.56,10.85-8.47,11.6-8.47,11.6l-6.54,4.31-14.42,18H328s5.65-.74,6.69-2.52,0-7.73.45-9.81,0-6.84-1.93-9.52-4.91-7.73-6-9.51-.15-3.86-2.53-4-4.9,1-7.87,1.48-2.53-.89-5.65.75-4.61,3.42-4.61,4.16-.45-1.93-.45-5.35,1.79-8.33,3-8.92,1.63-.15,4-.6,7.58,2.68,8.92,4.31a23.2,23.2,0,0,1,1.78,2.38"></path><path class="cls-1 ziBOuglV_43" d="M352,406.26V392.88s-20.07-9.51-25-9.36-13-.61-13-.61"></path><path class="cls-1 ziBOuglV_44" d="M305.24,290.13s5.38,5.24,5.83,8.81a123.7,123.7,0,0,1,.74,14.12c-.15,2.38-.68,7.14,0,9.66s2.35,5.36,3.24,8.48a26.6,26.6,0,0,0,4.76,8.92c1.63,1.78,3.42,6.54,4.9,6.68s4.76-.29,4.76.75a15.25,15.25,0,0,1-2.23,7.13c-1.78,2.83-3.12,4.31-2.08,6.25s1.49,5.29,2.08,5.32,2.38-.72.74.77-11.74,11.15-11.74,11.15l-7.13,5.35"></path><path class="cls-1 ziBOuglV_45" d="M226.79,373.41s9.53.74,11.68,1.34,24.89-1.55,26.22-2,9.37-3.31,11-2.57,9.22.35,10.85-.12,10.56-6,12-6.42,4.61-.74,5.21-2.82,3-4.55,0-4.88-4.17-.47-3.27-1.66,2.23-2.23-.45-3.87-4.16-1.63-3.42-3.27-.89-3.12,1.64-3.27,5.94-2.38,5.5-4.16-2.68-6.24-2.08-8.47,9.78-11.46,9.78-11.46"></path><path class="cls-1 ziBOuglV_46" d="M211.33,390.53c.08,1.24-3,30.22,0,36.24s7,13.6,8.55,15.16,9.81,1.57,9.81,1.57l-5.58-16.73,7.36,12.94s3.57-5.13,3.57-6.92,5.13-4.9,5.13-10,2-7.8-1.7-12.71-1.87-7.58-5.21-12.48a76.15,76.15,0,0,0-7.9-9.45"></path><path class="cls-1 ziBOuglV_47" d="M129.44,401.52S159.68,433,159,438.81s6.91,16.5,7.58,18.51,14.49,18.51,14.49,18.51l21.63,6.91h12s3,.44,1.52-2.68-14-3.34-16.9-4.46-6-2.9-10.25-7.13-7.81-7.81-8.26-8.7l-1.78-3.57s15.16,13.83,17.83,14.72,5.13,1.11,8.48,2,11.3,2.45,11.3,2.45,5.86,1.56,5.86.89,3.35-1.34,0-3.57-5.57-4.46-9.14-5.35-10-1.34-11.82-3.12a33.92,33.92,0,0,0-4.9-4.68c-3.12-2.45-8-5.58-7.57-6.24s0-2.68,0-2.68,10.69,6,14.7,7.58,4.24,2.68,7.81,4.24,8,4.46,9.81,4.68a34.18,34.18,0,0,0,4.78,0c1,0,3.25.22,3.25-.45s.89-1.33,0-3.79-8-3.56-11.6-5.35-8.9-2.9-10-4.46-4.46-3.56-5.8-5.13-3.57-4.45-3.57-4.45"></path><path class="cls-1 ziBOuglV_48" d="M161,391.9l25.91,32.64s14.05,8,15.83,7.81,11.46,0,11.46,0"></path><path class="cls-1 ziBOuglV_49" d="M207.84,442.14c1,.12,4.54,2,8.43,4.15,4.21,2.31,8.79,4.87,10.83,5.68a8.88,8.88,0,0,1,5,5.13s1.07,2.23-2.28,2.89a16.47,16.47,0,0,1-7.36-.74"></path><path class="cls-1 ziBOuglV_50" d="M228.56,443.48s-3.78-1.1-5.56,0-9.74,1.17-9.74,1.17"></path><path class="cls-1 ziBOuglV_51" d="M306.61,397.79s-18.35,24.41-21.4,26.64c-1.27.92-10.37,4.46-16.17,4.46-7.94,0-17,5.85-22.48,5.76-5.85-.09-9.72,4.43-7.8,6.17a11.23,11.23,0,0,0,8.53,2.44c1.1-.18,6-1.11,10.12-1.62,5-.61,6.21-.33,7.88-.53.08,0,.07.06,0,.13-1.07,1.76-12.41,4.93-14,4.93H238.47l-10.79-.56a1.83,1.83,0,0,0-2.32,1.23c-.65,1.78-.93,2.06,0,3.42s4.5,3.1,4.5,3.1c1.18.67,11.2,1.73,15.66,1.95s15.83-4.15,15.83-4.15"></path><path class="cls-1 ziBOuglV_52" d="M335.14,419.18l-35.22,23-19.84,18s-29.21,16.31-30.33,16.31-26.23,6.1-32.77-.37"></path><path class="cls-1 ziBOuglV_53" d="M229.86,461.56s18.78,1.18,21.46.78,8.47-3.35,8.47-3.35"></path><path class="cls-1 ziBOuglV_54" d="M214.17,464.9s-.41,2.4.82,3,17.82,4.61,22.95,2.83,19.84-4.46,19.84-4.46"></path><path class="cls-1 ziBOuglV_55" d="M229.24,80.55c.11.19,0,9.44-1.89,12s-5.13,7.27-5.24,7.93-.67,4,0,4.45a10,10,0,0,0,4.26.55c1.2-.11,3-.5,3.65,0s1.79,1.76,2.79,1.31,3.12-.81,3.9.1,1.12,2.36,2.45,2.69,3.69-2.56,3.8-4-.34-6.25-.79-6.69-.89-3-1-4.42"></path><path class="cls-1 ziBOuglV_56" d="M229.69,103.37c-.34-.56.22-1.56-1.34-1.23a14.86,14.86,0,0,0-3.26,1.23"></path><path class="cls-1 ziBOuglV_57" d="M234.93,104.37c.44-.45,1.56-1.78,2-1s1.57,1.78,1.9,2.34"></path><path class="cls-1 ziBOuglV_58" d="M215.72,119a39.65,39.65,0,0,0,4.72.41c1.44,0,2.45-.41,4.65-.63s1.81.67,4,1,3.23,1,5.8.87,2.9,1,4.79,2.23,2.68,1.67,3.25,2,1.32-1.42,1.32-1.42l-3.65-3.71c-.45-.44-3.26-3.85-4.49-4.45s-3.9.44-4.34.78-2.79-.67-3.95-1.45c0,0-2.19-2.53-4-1.1a19.29,19.29,0,0,1-5.57,2.88c-.45.11-3.79.33-3.79.33S212.44,118.59,215.72,119Z"></path><path class="cls-1 ziBOuglV_59" d="M218.32,120.2a5,5,0,0,0,2.56,2.68c1.45.55,2.51,1.33,4.21,1.56s9.28.85,9.84,1a5.46,5.46,0,0,0,2.67,0,20.14,20.14,0,0,0,3-2"></path><path class="cls-1 ziBOuglV_60" d="M221.78,129.79c1.33-.45,4.43-.11,5.61,0a10,10,0,0,1,3.64,1,17.18,17.18,0,0,0,2.23,1"></path><path class="cls-1 ziBOuglV_61" d="M248.64,31.68c3-.14,7.88,2.68,6-3.56s3.49-4.31-2.6-8.62-4.31-3.72-8.47-5.8-5.35-3.27-8.92-2.83-7.86,2.23-9.58,4.31-4.89,5.2-6.77,3.28"></path><path class="cls-1 ziBOuglV_62" d="M229.17,34.06c-.89-1.63-2.77-3.12-2.8-3.71s-1.86-3.13-4.59-5.06-3.31-1.19-4.35-3.12-2.11-4.89-1.71-5.16"></path><path class="cls-1 ziBOuglV_63" d="M255.85,27.37s3.19-1.19,3.34-3.27.9-1.93-.89-4.75-1-1.64-3.23-3.72-2.27-1.78-3-3.72a26,26,0,0,1-1-3.27"></path><path class="cls-1 ziBOuglV_64" d="M255.25,30.2c1.27-.3,2.9.3,5.73,1.34s4.9,2.08,6.39,3.71.3,5.06,5.05,5.06a23.2,23.2,0,0,0,8.33-1.47"></path><path class="cls-1 ziBOuglV_65" d="M252.06,35.21c3.27,1.83,7,6.28,10.85,7.92s4.9,2.68,7.13,2.68,5.36.74,6.4,0,2.23-1.79,2.67-2.09a13.32,13.32,0,0,0,1.64-2.37"></path><path class="cls-1 ziBOuglV_66" d="M258.13,26s7.6.82,8.94-.46,2.38-1.29,3.42-2.18A9.28,9.28,0,0,0,272.31,21"></path><path class="cls-1 ziBOuglV_67" d="M221.14,28.12c-.89-.6-4.76-3.87-8.32-.75s-4.26,3.13-5.25,5.95-1.14,4.16-2.93,7-2.67,6.24-4.75,7.58S196,50.45,196,50.45"></path><path class="cls-1 ziBOuglV_68" d="M303,362s14,13.54,13.25,16.22"></path><path class="cls-1 ziBOuglV_69" d="M170,375.65s-8.17,17.34-6.91,18.93"></path><path class="cls-1 ziBOuglV_70" d="M154.57,430.4c-.3.67-8,24.92-8,24.92"></path><path class="cls-1 ziBOuglV_71" d="M341.77,420.74s15.9,37.25,20.8,52.19,6.69,20.51,6.92,22.07"></path><path class="cls-1 ziBOuglV_72" d="M164.95,364.65L153.96,349.18"></path><style data-made-with="vivus-instant">.ziBOuglV_0{stroke-dasharray:346 348;stroke-dashoffset:347;animation:ziBOuglV_draw 2000ms linear 0ms forwards;}.ziBOuglV_1{stroke-dasharray:569 571;stroke-dashoffset:570;animation:ziBOuglV_draw 2000ms linear 13ms forwards;}.ziBOuglV_2{stroke-dasharray:36 38;stroke-dashoffset:37;animation:ziBOuglV_draw 2000ms linear 27ms forwards;}.ziBOuglV_3{stroke-dasharray:173 175;stroke-dashoffset:174;animation:ziBOuglV_draw 2000ms linear 41ms forwards;}.ziBOuglV_4{stroke-dasharray:90 92;stroke-dashoffset:91;animation:ziBOuglV_draw 2000ms linear 55ms forwards;}.ziBOuglV_5{stroke-dasharray:47 49;stroke-dashoffset:48;animation:ziBOuglV_draw 2000ms linear 69ms forwards;}.ziBOuglV_6{stroke-dasharray:32 34;stroke-dashoffset:33;animation:ziBOuglV_draw 2000ms linear 83ms forwards;}.ziBOuglV_7{stroke-dasharray:33 35;stroke-dashoffset:34;animation:ziBOuglV_draw 2000ms linear 97ms forwards;}.ziBOuglV_8{stroke-dasharray:56 58;stroke-dashoffset:57;animation:ziBOuglV_draw 2000ms linear 111ms forwards;}.ziBOuglV_9{stroke-dasharray:99 101;stroke-dashoffset:100;animation:ziBOuglV_draw 2000ms linear 125ms forwards;}.ziBOuglV_10{stroke-dasharray:26 28;stroke-dashoffset:27;animation:ziBOuglV_draw 2000ms linear 138ms forwards;}.ziBOuglV_11{stroke-dasharray:94 96;stroke-dashoffset:95;animation:ziBOuglV_draw 2000ms linear 152ms forwards;}.ziBOuglV_12{stroke-dasharray:36 38;stroke-dashoffset:37;animation:ziBOuglV_draw 2000ms linear 166ms forwards;}.ziBOuglV_13{stroke-dasharray:93 95;stroke-dashoffset:94;animation:ziBOuglV_draw 2000ms linear 180ms forwards;}.ziBOuglV_14{stroke-dasharray:256 258;stroke-dashoffset:257;animation:ziBOuglV_draw 2000ms linear 194ms forwards;}.ziBOuglV_15{stroke-dasharray:170 172;stroke-dashoffset:171;animation:ziBOuglV_draw 2000ms linear 208ms forwards;}.ziBOuglV_16{stroke-dasharray:27 29;stroke-dashoffset:28;animation:ziBOuglV_draw 2000ms linear 222ms forwards;}.ziBOuglV_17{stroke-dasharray:37 39;stroke-dashoffset:38;animation:ziBOuglV_draw 2000ms linear 236ms forwards;}.ziBOuglV_18{stroke-dasharray:51 53;stroke-dashoffset:52;animation:ziBOuglV_draw 2000ms linear 250ms forwards;}.ziBOuglV_19{stroke-dasharray:23 25;stroke-dashoffset:24;animation:ziBOuglV_draw 2000ms linear 263ms forwards;}.ziBOuglV_20{stroke-dasharray:23 25;stroke-dashoffset:24;animation:ziBOuglV_draw 2000ms linear 277ms forwards;}.ziBOuglV_21{stroke-dasharray:20 22;stroke-dashoffset:21;animation:ziBOuglV_draw 2000ms linear 291ms forwards;}.ziBOuglV_22{stroke-dasharray:24 26;stroke-dashoffset:25;animation:ziBOuglV_draw 2000ms linear 305ms forwards;}.ziBOuglV_23{stroke-dasharray:26 28;stroke-dashoffset:27;animation:ziBOuglV_draw 2000ms linear 319ms forwards;}.ziBOuglV_24{stroke-dasharray:24 26;stroke-dashoffset:25;animation:ziBOuglV_draw 2000ms linear 333ms forwards;}.ziBOuglV_25{stroke-dasharray:18 20;stroke-dashoffset:19;animation:ziBOuglV_draw 2000ms linear 347ms forwards;}.ziBOuglV_26{stroke-dasharray:15 17;stroke-dashoffset:16;animation:ziBOuglV_draw 2000ms linear 361ms forwards;}.ziBOuglV_27{stroke-dasharray:17 19;stroke-dashoffset:18;animation:ziBOuglV_draw 2000ms linear 375ms forwards;}.ziBOuglV_28{stroke-dasharray:21 23;stroke-dashoffset:22;animation:ziBOuglV_draw 2000ms linear 388ms forwards;}.ziBOuglV_29{stroke-dasharray:93 95;stroke-dashoffset:94;animation:ziBOuglV_draw 2000ms linear 402ms forwards;}.ziBOuglV_30{stroke-dasharray:111 113;stroke-dashoffset:112;animation:ziBOuglV_draw 2000ms linear 416ms forwards;}.ziBOuglV_31{stroke-dasharray:536 538;stroke-dashoffset:537;animation:ziBOuglV_draw 2000ms linear 430ms forwards;}.ziBOuglV_32{stroke-dasharray:351 353;stroke-dashoffset:352;animation:ziBOuglV_draw 2000ms linear 444ms forwards;}.ziBOuglV_33{stroke-dasharray:45 47;stroke-dashoffset:46;animation:ziBOuglV_draw 2000ms linear 458ms forwards;}.ziBOuglV_34{stroke-dasharray:92 94;stroke-dashoffset:93;animation:ziBOuglV_draw 2000ms linear 472ms forwards;}.ziBOuglV_35{stroke-dasharray:144 146;stroke-dashoffset:145;animation:ziBOuglV_draw 2000ms linear 486ms forwards;}.ziBOuglV_36{stroke-dasharray:67 69;stroke-dashoffset:68;animation:ziBOuglV_draw 2000ms linear 500ms forwards;}.ziBOuglV_37{stroke-dasharray:69 71;stroke-dashoffset:70;animation:ziBOuglV_draw 2000ms linear 513ms forwards;}.ziBOuglV_38{stroke-dasharray:107 109;stroke-dashoffset:108;animation:ziBOuglV_draw 2000ms linear 527ms forwards;}.ziBOuglV_39{stroke-dasharray:92 94;stroke-dashoffset:93;animation:ziBOuglV_draw 2000ms linear 541ms forwards;}.ziBOuglV_40{stroke-dasharray:94 96;stroke-dashoffset:95;animation:ziBOuglV_draw 2000ms linear 555ms forwards;}.ziBOuglV_41{stroke-dasharray:78 80;stroke-dashoffset:79;animation:ziBOuglV_draw 2000ms linear 569ms forwards;}.ziBOuglV_42{stroke-dasharray:400 402;stroke-dashoffset:401;animation:ziBOuglV_draw 2000ms linear 583ms forwards;}.ziBOuglV_43{stroke-dasharray:54 56;stroke-dashoffset:55;animation:ziBOuglV_draw 2000ms linear 597ms forwards;}.ziBOuglV_44{stroke-dasharray:116 118;stroke-dashoffset:117;animation:ziBOuglV_draw 2000ms linear 611ms forwards;}.ziBOuglV_45{stroke-dasharray:137 139;stroke-dashoffset:138;animation:ziBOuglV_draw 2000ms linear 625ms forwards;}.ziBOuglV_46{stroke-dasharray:156 158;stroke-dashoffset:157;animation:ziBOuglV_draw 2000ms linear 638ms forwards;}.ziBOuglV_47{stroke-dasharray:360 362;stroke-dashoffset:361;animation:ziBOuglV_draw 2000ms linear 652ms forwards;}.ziBOuglV_48{stroke-dasharray:71 73;stroke-dashoffset:72;animation:ziBOuglV_draw 2000ms linear 666ms forwards;}.ziBOuglV_49{stroke-dasharray:41 43;stroke-dashoffset:42;animation:ziBOuglV_draw 2000ms linear 680ms forwards;}.ziBOuglV_50{stroke-dasharray:16 18;stroke-dashoffset:17;animation:ziBOuglV_draw 2000ms linear 694ms forwards;}.ziBOuglV_51{stroke-dasharray:197 199;stroke-dashoffset:198;animation:ziBOuglV_draw 2000ms linear 708ms forwards;}.ziBOuglV_52{stroke-dasharray:137 139;stroke-dashoffset:138;animation:ziBOuglV_draw 2000ms linear 722ms forwards;}.ziBOuglV_53{stroke-dasharray:31 33;stroke-dashoffset:32;animation:ziBOuglV_draw 2000ms linear 736ms forwards;}.ziBOuglV_54{stroke-dasharray:47 49;stroke-dashoffset:48;animation:ziBOuglV_draw 2000ms linear 750ms forwards;}.ziBOuglV_55{stroke-dasharray:63 65;stroke-dashoffset:64;animation:ziBOuglV_draw 2000ms linear 763ms forwards;}.ziBOuglV_56{stroke-dasharray:6 8;stroke-dashoffset:7;animation:ziBOuglV_draw 2000ms linear 777ms forwards;}.ziBOuglV_57{stroke-dasharray:6 8;stroke-dashoffset:7;animation:ziBOuglV_draw 2000ms linear 791ms forwards;}.ziBOuglV_58{stroke-dasharray:70 72;stroke-dashoffset:71;animation:ziBOuglV_draw 2000ms linear 805ms forwards;}.ziBOuglV_59{stroke-dasharray:25 27;stroke-dashoffset:26;animation:ziBOuglV_draw 2000ms linear 819ms forwards;}.ziBOuglV_60{stroke-dasharray:12 14;stroke-dashoffset:13;animation:ziBOuglV_draw 2000ms linear 833ms forwards;}.ziBOuglV_61{stroke-dasharray:59 61;stroke-dashoffset:60;animation:ziBOuglV_draw 2000ms linear 847ms forwards;}.ziBOuglV_62{stroke-dasharray:23 25;stroke-dashoffset:24;animation:ziBOuglV_draw 2000ms linear 861ms forwards;}.ziBOuglV_63{stroke-dasharray:24 26;stroke-dashoffset:25;animation:ziBOuglV_draw 2000ms linear 875ms forwards;}.ziBOuglV_64{stroke-dasharray:30 32;stroke-dashoffset:31;animation:ziBOuglV_draw 2000ms linear 888ms forwards;}.ziBOuglV_65{stroke-dasharray:34 36;stroke-dashoffset:35;animation:ziBOuglV_draw 2000ms linear 902ms forwards;}.ziBOuglV_66{stroke-dasharray:17 19;stroke-dashoffset:18;animation:ziBOuglV_draw 2000ms linear 916ms forwards;}.ziBOuglV_67{stroke-dasharray:39 41;stroke-dashoffset:40;animation:ziBOuglV_draw 2000ms linear 930ms forwards;}.ziBOuglV_68{stroke-dasharray:22 24;stroke-dashoffset:23;animation:ziBOuglV_draw 2000ms linear 944ms forwards;}.ziBOuglV_69{stroke-dasharray:21 23;stroke-dashoffset:22;animation:ziBOuglV_draw 2000ms linear 958ms forwards;}.ziBOuglV_70{stroke-dasharray:27 29;stroke-dashoffset:28;animation:ziBOuglV_draw 2000ms linear 972ms forwards;}.ziBOuglV_71{stroke-dasharray:80 82;stroke-dashoffset:81;animation:ziBOuglV_draw 2000ms linear 986ms forwards;}.ziBOuglV_72{stroke-dasharray:19 21;stroke-dashoffset:20;animation:ziBOuglV_draw 2000ms linear 1000ms forwards;}@keyframes ziBOuglV_draw{100%{stroke-dashoffset:0;}}@keyframes ziBOuglV_fade{0%{stroke-opacity:1;}94.44444444444444%{stroke-opacity:1;}100%{stroke-opacity:0;}}</style></svg>